<?xml version="1.0" encoding="UTF-8" standalone="no"?>
<!-- Created with Inkscape (http://www.inkscape.org/) -->

<svg
   width="210mm"
   height="297mm"
   viewBox="0 0 210 297"
   version="1.1"
   id="svg1"
   inkscape:version="1.4 (86a8ad7, 2024-10-11)"
   sodipodi:docname="AppSplash.svg"
   xmlns:inkscape="http://www.inkscape.org/namespaces/inkscape"
   xmlns:sodipodi="http://sodipodi.sourceforge.net/DTD/sodipodi-0.dtd"
   xmlns:xlink="http://www.w3.org/1999/xlink"
   xmlns="http://www.w3.org/2000/svg"
   xmlns:svg="http://www.w3.org/2000/svg">
  <sodipodi:namedview
     id="namedview1"
     pagecolor="#505050"
     bordercolor="#ffffff"
     borderopacity="1"
     inkscape:showpageshadow="0"
     inkscape:pageopacity="0"
     inkscape:pagecheckerboard="1"
     inkscape:deskcolor="#505050"
     inkscape:document-units="mm"
     inkscape:zoom="0.52221046"
     inkscape:cx="184.7914"
     inkscape:cy="496.92609"
     inkscape:window-width="2560"
     inkscape:window-height="1009"
     inkscape:window-x="-8"
     inkscape:window-y="-8"
     inkscape:window-maximized="1"
     inkscape:current-layer="layer3" />
  <defs
     id="defs1">
    <linearGradient
       inkscape:collect="always"
       xlink:href="#linearGradient18"
       id="linearGradient20"
       gradientUnits="userSpaceOnUse"
       x1="86.514572"
       y1="99.916084"
       x2="96.030312"
       y2="99.916084"
       gradientTransform="translate(-4.0944341,152.32009)" />
    <linearGradient
       id="linearGradient18"
       inkscape:collect="always">
      <stop
         style="stop-color:#000000;stop-opacity:1;"
         offset="0"
         id="stop18" />
      <stop
         style="stop-color:#000000;stop-opacity:0;"
         offset="1"
         id="stop19" />
    </linearGradient>
    <linearGradient
       inkscape:collect="always"
       xlink:href="#linearGradient18"
       id="linearGradient19"
       x1="86.514572"
       y1="99.916084"
       x2="96.030312"
       y2="99.916084"
       gradientUnits="userSpaceOnUse"
       gradientTransform="translate(-2.7565741,151.06778)" />
  </defs>
  <g
     inkscape:groupmode="layer"
     id="layer3"
     inkscape:label="Layer 2">
    <rect
       style="opacity:1;fill:#603949;fill-opacity:1;stroke-width:0.20382"
       id="rect36"
       width="209.79926"
       height="296.77325"
       x="0.016193466"
       y="0.12666444"
       ry="0" />
  </g>
  <g
     inkscape:label="Layer 1"
     inkscape:groupmode="layer"
     id="layer1">
    <path
       id="path1-2"
       style="display:inline;fill:#782144;stroke-width:0.264583"
       d="m 110.32344,232.90203 v 5.2e-4 c -1.56692,-0.0157 -2.90316,0.30368 -4.08812,1.56373 -0.29031,0.30871 -0.50858,0.67843 -0.76274,1.01751 -1.1467,2.08618 -1.78698,4.47134 -1.86449,6.8554 -0.016,0.4906 0.0231,0.98153 0.0346,1.47226 0.58756,3.25591 1.97495,6.35506 3.85662,9.07076 0.35608,0.51393 0.75029,1.00056 1.12551,1.50068 1.47038,1.88597 3.21926,3.4986 5.05189,5.01624 0.0346,-0.009 0.0716,-0.0142 0.1111,-0.0155 0.13143,-0.004 0.28822,0.0339 0.46147,0.13229 0.45235,0.25694 0.90437,0.51501 1.35754,0.7705 0.59213,0.34654 1.17096,0.72476 1.79731,1.00717 0.14264,0.0643 0.25,0.14277 0.32711,0.22635 0.26045,0.11665 0.52055,0.23409 0.7829,0.34623 -2.29371,-1.79981 -4.5326,-3.67702 -6.35982,-5.96605 -0.90081,-1.16506 -1.45442,-1.80907 -2.21227,-3.08559 -1.33052,-2.24119 -2.37147,-4.68383 -2.8391,-7.25383 -0.0179,-0.47736 -0.0644,-0.95435 -0.0543,-1.43195 0.0486,-2.31033 0.6542,-4.63708 1.77302,-6.65386 0.24172,-0.30925 0.44943,-0.64809 0.72502,-0.92759 1.2448,-1.26247 2.91983,-1.44926 4.59662,-1.29656 2.07506,0.2055 4.18065,0.46074 6.16448,1.12344 0.16874,0.16563 0.3312,0.33818 0.48886,0.51574 -0.11603,-0.30271 0.0628,-0.56291 0.36638,-0.55863 0.006,8e-5 0.0123,0.003 0.0181,0.003 0.0241,-0.13862 0.0869,-0.24044 0.16898,-0.30282 0.004,-0.008 0.007,-0.0175 0.0124,-0.0253 -1.38473,-0.81472 -2.904,-1.57821 -3.18688,-1.73788 -2.30063,-0.81771 -4.74704,-1.11519 -7.16649,-1.34049 -0.23349,-0.0142 -0.4619,-0.0236 -0.68575,-0.0258 z m 10.87479,4.44521 c -0.004,3.4e-4 -0.0139,0.001 -0.0176,0.002 0.0212,0.0269 0.0426,0.0536 0.0636,0.0806 0.0243,0.004 0.0486,0.009 0.0729,0.0134 -0.0397,-0.0317 -0.0793,-0.0637 -0.11886,-0.0956 z m 4.26641,2.42828 c 0.002,0.005 0.005,0.01 0.007,0.0145 0.001,4.9e-4 0.003,0.001 0.005,0.001 -0.004,-0.005 -0.008,-0.0107 -0.0119,-0.016 z m 0.15296,0.31161 c 0.002,0.004 0.003,0.007 0.005,0.0109 l 0.12144,0.0527 c -0.006,-0.008 -0.0117,-0.0159 -0.0176,-0.0238 -0.0363,-0.0135 -0.0728,-0.0263 -0.10904,-0.0398 z m -5.46323,23.74273 c 4.5e-4,0.003 0.001,0.007 0.002,0.0103 l 0.0878,0.0346 c -0.0282,-0.0172 -0.0597,-0.0299 -0.0894,-0.045 z m 1.91771,0.709 c 0.015,0.0254 0.0283,0.0507 0.0403,0.0755 l 0.14004,0.0553 c -0.11565,-0.0829 -0.0924,-0.0677 -0.18035,-0.13075 z" />
    <path
       id="path13-1"
       style="display:inline;fill:#782144;stroke-width:0.264583"
       d="m 69.864406,244.40159 c 0.003,0.003 0.007,0.005 0.0103,0.008 5.2e-4,-6e-5 10e-4,3e-5 0.002,0 z m 0.0677,0.0434 c 0.003,0.003 0.007,0.007 0.0103,0.01 0.008,0.004 0.0134,0.007 0.0212,0.0103 z m -0.25941,0.014 c 0.004,0.004 0.008,0.009 0.0119,0.0129 4.8e-4,-8.6e-4 0.001,-0.002 0.001,-0.003 -0.004,-0.003 -0.009,-0.007 -0.0134,-0.0103 z m -0.39274,0.0346 c -0.27239,0.22814 -0.49907,0.50791 -0.70022,0.80202 -0.30505,0.46703 -0.45669,0.98915 -0.53175,1.53582 -0.0388,0.65259 0.097,1.29647 0.30386,1.91151 0.2269,0.64252 0.57506,1.22256 0.96686,1.77561 0.53742,0.74882 1.14724,1.43543 1.78646,2.09755 0.82344,0.82838 1.70937,1.59065 2.62413,2.31562 0.70216,0.55519 1.47559,1.00546 2.24172,1.46399 0.7405,0.46611 1.48323,0.92829 2.22674,1.38958 1.55866,0.95244 3.14973,1.85185 4.74338,2.74402 0.59205,0.33144 0.21855,0.13364 0.57981,0.32194 0.009,0.005 -0.20038,-0.11642 -0.21084,-0.12247 0.0963,0.0557 0.12503,0.0724 0.22066,0.12764 0.0148,0.008 0.004,0.002 0.0212,0.0109 0.24321,0.1395 0.48747,0.27736 0.72967,0.41858 0.21334,0.1244 -0.4427,-0.25599 -0.64131,-0.37103 0.10934,0.0599 0.2745,0.15079 0.20671,0.11162 -0.54157,-0.31298 -1.62316,-0.94089 -2.40967,-1.39527 l 3.59719,1.40147 -2.00608,-1.16841 c -0.63864,-0.36904 -1.27701,-0.73823 -1.91616,-1.10639 -0.51644,-0.31757 -1.03263,-0.63626 -1.53841,-0.97048 -0.77023,-0.47074 -1.56767,-0.89791 -2.29495,-1.43609 -0.0759,-0.0585 -0.79363,-0.61143 -0.85679,-0.66301 -0.62333,-0.50902 -1.22355,-1.04956 -1.80196,-1.60869 -0.34102,-0.35538 -0.69537,-0.70588 -1.00924,-1.08623 -0.25287,-0.30643 -0.48037,-0.63504 -0.74259,-0.93431 -0.3762,-0.52991 -0.75322,-1.0609 -0.98237,-1.67536 -0.23888,-0.54795 -0.37806,-1.13186 -0.37672,-1.73271 0.0576,-0.48663 0.16683,-0.95516 0.43822,-1.37252 0.20649,-0.28962 0.44494,-0.54165 0.73587,-0.73433 -0.009,-0.005 -0.005,-0.002 -0.015,-0.008 -0.12871,-0.0709 -0.25781,-0.14105 -0.38602,-0.2129 -0.46677,-0.26158 -0.92595,-0.53732 -1.39992,-0.786 -0.21345,-0.11876 -0.30826,-0.16888 -0.51573,-0.29404 -0.266,-0.16046 -0.52321,-0.33442 -0.77463,-0.51676 -0.1287,-0.0939 -0.1843,-0.13244 -0.30696,-0.22893 -0.002,-0.001 -0.003,-0.003 -0.005,-0.004 z m 13.74851,15.37064 c 0.18244,0.10543 0.36587,0.20914 0.54881,0.31368 0.39551,0.22754 0.79137,0.45471 1.18545,0.68471 0.33,0.1926 -0.69606,-0.40281 -0.99218,-0.57412 0.20436,0.11617 0.40695,0.23552 0.61236,0.34985 1.05963,0.58981 -4.19419,-2.43761 -3.15019,-1.82056 0.28157,0.16642 0.56564,0.32882 0.84852,0.49299 -0.26931,-0.1561 -0.35899,-0.20773 -0.53846,-0.31161 z m -13.24105,-15.2926 c -10e-4,2.9e-4 -6.5e-4,2.4e-4 -0.002,5.1e-4 0.001,0.001 0.003,0.003 0.004,0.004 0.004,-3.5e-4 0.006,-5.3e-4 0.009,-0.001 -0.004,-0.001 -0.008,-0.003 -0.0119,-0.004 z m 1.24126,0.81028 c 1.5e-4,5.3e-4 3.7e-4,0.001 5.2e-4,0.001 0.027,0.0141 0.0537,0.0287 0.0806,0.0429 -0.0274,-0.0142 -0.0539,-0.03 -0.0811,-0.0444 z m 0.0811,0.0444 c 0.0196,0.0103 0.0388,0.0212 0.0584,0.0315 0.17854,0.0923 0.35626,0.18599 0.53486,0.27802 -0.004,-0.005 -0.008,-0.0101 -0.0129,-0.015 -0.12167,-0.0622 -0.24328,-0.1244 -0.36536,-0.18552 -0.0718,-0.0359 -0.14368,-0.072 -0.21497,-0.10903 z" />
    <path
       id="path13-1-7"
       style="display:inline;fill:#782144;stroke-width:0.219402"
       d="m 92.124036,233.34025 c -0.17816,0.001 -0.37043,0.0206 -0.58033,0.0615 -0.38166,0.0904 -0.80256,0.23124 -1.29604,0.46612 -0.0113,0.0114 -0.0235,0.022 -0.0351,0.0331 0.006,0.0313 -0.006,0.0731 -0.0465,0.11472 -0.0411,0.0419 -0.0752,0.09 -0.11421,0.13385 -0.0412,0.0462 -0.0601,0.0639 -0.10439,0.108 -0.12606,0.11695 -0.25896,0.2262 -0.3855,0.34261 -0.15283,0.1433 -0.30148,0.29137 -0.44287,0.44597 -0.0249,0.0268 -0.0481,0.055 -0.0718,0.0827 0.0233,0.0634 0.002,0.15399 -0.093,0.24133 -0.0718,0.0662 -0.14331,0.13222 -0.21601,0.19741 -0.0252,0.0398 -0.0498,0.0801 -0.0765,0.11885 -0.0554,0.083 -0.12239,0.15653 -0.19068,0.22893 -0.0724,0.0703 -0.1486,0.1369 -0.22428,0.2036 -0.0622,0.0572 -0.12672,0.11132 -0.18603,0.17157 -0.0561,0.0564 -0.10936,0.11516 -0.16382,0.17311 -0.0587,0.0677 -0.11868,0.13461 -0.17518,0.20413 -0.0693,0.0813 -0.13386,0.16612 -0.19637,0.25269 -0.06,0.0792 -0.12287,0.15647 -0.18914,0.23048 -0.0669,0.0692 -0.13642,0.13573 -0.20257,0.20567 -0.0455,0.0439 -0.0898,0.089 -0.13436,0.13385 -0.0128,0.0243 -0.0261,0.0483 -0.0393,0.0724 -0.0239,0.0449 -0.0518,0.0872 -0.0811,0.12867 -0.0205,0.0306 -0.0425,0.0602 -0.0661,0.0884 -0.0262,0.0305 -0.0535,0.0597 -0.0801,0.0899 -0.0351,0.043 -0.0746,0.0817 -0.11368,0.12092 -0.0595,0.0602 -0.12235,0.11738 -0.18552,0.17364 -0.0884,0.0773 -0.17478,0.15675 -0.25942,0.23822 -0.0916,0.0898 -0.18369,0.17858 -0.27543,0.2682 -0.10299,0.10075 -0.20528,0.20231 -0.30748,0.30386 -0.0422,0.0428 -0.0867,0.0834 -0.13022,0.12506 -10e-4,0.001 -0.002,0.003 -0.003,0.004 -0.0922,0.11104 -0.18461,0.22198 -0.27957,0.33073 -0.0838,0.0972 -0.16792,0.19454 -0.25322,0.29042 -0.0815,0.093 -0.16454,0.18416 -0.24391,0.27905 -0.0682,0.0831 -0.13385,0.16835 -0.1943,0.25735 -0.0604,0.0859 -0.12144,0.17133 -0.18449,0.25528 -0.0593,0.0771 -0.11973,0.15334 -0.18345,0.22686 -0.0636,0.0755 -0.12601,0.15139 -0.18707,0.22893 -0.0563,0.0694 -0.11162,0.13974 -0.16898,0.20825 -0.0545,0.067 -0.1065,0.13628 -0.15865,0.20516 -0.0493,0.0637 -0.0992,0.12718 -0.14676,0.19224 -0.0316,0.0462 -0.0616,0.093 -0.0935,0.13901 -0.0309,0.0454 -0.0573,0.0936 -0.0858,0.14056 -0.0363,0.0612 -0.0726,0.12268 -0.10697,0.185 -0.0522,0.0905 -0.10369,0.18133 -0.15503,0.27233 -0.0582,0.10051 -0.11876,0.19938 -0.17983,0.29818 -0.0236,0.0404 -0.0473,0.0809 -0.0708,0.12143 -0.009,0.0274 -0.0185,0.0546 -0.0269,0.0822 0.003,0.0136 0.006,0.0269 0.009,0.0403 7e-5,0.005 0.001,0.003 0.001,0.007 0.42755,-0.57431 0.899,-1.16412 1.3994,-1.76475 0.70499,-0.83579 1.37619,-1.55143 2.03863,-2.23138 0.77494,-0.76022 1.44115,-1.33949 1.99988,-1.75959 0.65042,-0.51512 1.10259,-0.7562 1.55339,-0.99735 0.22395,-0.0795 0.50676,-0.23565 0.74569,-0.33486 0.29658,-0.12317 0.53006,-0.16259 0.77773,-0.22325 0.36386,-0.0479 0.6901,-0.0479 0.9617,0.0186 0.0275,0.007 0.2974,0.1257 0.32608,0.13798 0.24508,0.14796 0.30386,0.51592 0.43563,0.79788 0.11885,0.15346 0.21149,0.33842 0.30231,0.52504 0.0804,0.26233 0.16262,0.52227 0.24443,0.78289 l 0.26872,0.80719 0.41186,-2.32337 c 0.10063,0.32116 0.24272,0.75929 0.31212,0.9803 0.008,0.0277 -0.006,-0.0459 -0.0165,-0.0946 0.0258,0.0807 0.11162,0.3471 0.0827,0.26148 -0.0327,-0.0972 -0.0595,-0.20124 -0.0894,-0.30179 6e-5,-0.01 -0.001,-0.004 -0.001,-0.0103 -0.0121,-0.0392 -0.0161,-0.0507 -0.0284,-0.0899 10e-4,0.004 0.0289,0.0891 0.0279,0.0853 -0.0201,-0.17324 0.005,0.002 -0.0574,-0.25321 -0.16719,-0.68671 -0.34544,-1.36138 -0.61185,-1.93218 -0.13613,-0.26345 -0.27379,-0.52488 -0.41806,-0.77877 -0.11851,-0.29274 -0.22183,-0.60443 -0.50436,-0.70228 -0.23139,-0.0784 -0.48855,-0.12527 -0.78548,-0.12299 z m -2.59261,0.91261 c -0.0139,0.008 -0.0289,0.0183 -0.0429,0.0269 6.8e-4,0.004 0.001,0.008 0.002,0.0129 0.0142,-0.0129 0.0268,-0.0273 0.0413,-0.0398 z m 3.73776,2.78949 c -0.0117,0.024 0.52312,1.75455 0.42633,1.33687 -0.0207,-0.0893 -0.0496,-0.16898 -0.0734,-0.25476 0.0382,0.12063 0.17288,0.53587 0.12816,0.40359 -0.0534,-0.15797 -0.10206,-0.32149 -0.15142,-0.48421 -0.0219,-0.0761 -0.0426,-0.15406 -0.0661,-0.22841 l -0.19843,-0.5979 c 0.0233,0.073 0.0341,0.10981 0.0693,0.21911 -0.0372,-0.11456 -0.0713,-0.23287 -0.11214,-0.34313 -0.0142,-0.0383 -0.021,-0.0536 -0.0222,-0.0512 z m -6.47299,0.0346 c -0.0288,0.0353 -0.0578,0.0704 -0.0863,0.10594 0.035,-0.0326 0.07,-0.0655 0.1049,-0.0982 -0.006,-0.002 -0.0128,-0.005 -0.0186,-0.008 z m -0.88522,0.21756 c -0.0195,0.0202 -0.0394,0.0412 -0.0589,0.0615 0.0217,-0.0124 0.0441,-0.0239 0.0677,-0.0336 -0.004,-0.009 -0.007,-0.0184 -0.009,-0.0279 z m 0.69866,0.34365 c -0.0109,0.0112 -0.0216,0.0225 -0.0325,0.0336 0.004,-0.002 0.007,-0.003 0.0109,-0.005 0.003,-0.004 0.006,-0.008 0.009,-0.0119 5.2e-4,-6.7e-4 3.9e-4,-0.001 0.002,-0.002 0.004,-0.005 0.007,-0.01 0.0109,-0.0145 z m -0.0977,0.1142 c -0.002,0.002 -0.005,0.003 -0.008,0.005 l -5.2e-4,5.2e-4 c -0.002,0.002 -0.003,0.004 -0.005,0.006 8.5e-4,-5e-5 0.002,3e-5 0.003,0 0.004,-0.004 0.007,-0.007 0.0103,-0.0109 z m -0.34262,0.35554 c -10e-4,4.7e-4 -0.003,5.1e-4 -0.004,5.1e-4 6.7e-4,5.5e-4 10e-4,0.001 0.002,0.001 6.7e-4,-7e-4 0.001,-0.001 0.002,-0.002 z m -0.86816,0.0796 c -0.001,0.001 -0.003,0.003 -0.004,0.004 0.004,0.005 0.008,0.009 0.0114,0.014 0.003,0.005 4.4e-4,0.009 -0.004,0.0139 0.002,-7.4e-4 0.005,-0.001 0.007,-0.002 0.008,-0.007 0.0169,-0.0134 0.0253,-0.0202 l -5.2e-4,-5.2e-4 c -0.009,-8.5e-4 -0.0172,-0.002 -0.0258,-0.003 -0.003,-0.002 -0.006,-0.004 -0.009,-0.007 z m 0.45526,0.18345 c -0.001,0.001 -0.003,0.003 -0.005,0.004 0.002,-3.8e-4 0.004,-0.001 0.006,-0.001 -5.2e-4,-0.001 -1.2e-4,-0.002 -0.002,-0.003 z m -0.0625,0.0667 c -0.003,0.004 -0.006,0.009 -0.01,0.0129 0.003,-4.5e-4 0.006,-0.001 0.008,-0.002 -4.7e-4,-0.004 -6.8e-4,-0.008 0.002,-0.0114 z m -0.0718,0.0956 c -2.4e-4,2.6e-4 -0.001,2.5e-4 -0.001,5.1e-4 3.2e-4,-1e-4 0.001,1.1e-4 0.001,0 z m -0.92346,0.14417 c -0.003,0.003 -0.006,0.005 -0.01,0.008 -0.005,0.004 -0.009,0.009 -0.014,0.0134 0.005,-0.002 0.01,-0.004 0.0145,-0.005 0.005,-0.004 0.0106,-0.009 0.016,-0.0129 -0.002,-10e-4 -0.005,-0.002 -0.007,-0.003 z m 0.7984,0.0305 c -0.002,1.6e-4 -0.004,3.8e-4 -0.006,5.1e-4 h -5.2e-4 c 10e-4,0.004 -1.6e-4,0.008 -0.001,0.0124 0.005,-0.002 0.008,-0.004 0.0109,-0.006 v -5.1e-4 c -0.002,-0.002 -0.003,-0.004 -0.003,-0.007 z m -0.91416,0.0165 c -0.01,0.0108 -0.0193,0.0213 -0.0289,0.032 0.0131,-0.008 0.0261,-0.0161 0.0398,-0.0232 -0.004,-0.002 -0.007,-0.006 -0.0109,-0.009 z m 0.77618,0.0134 c -0.004,0.004 -0.008,0.007 -0.0119,0.0109 8.2e-4,3.3e-4 0.002,0.001 0.003,0.001 0.003,-0.004 0.006,-0.008 0.009,-0.0119 z m 0.10077,0.008 c -0.004,0.004 -0.008,0.008 -0.0129,0.0114 -0.005,0.006 -0.01,0.0124 -0.0145,0.0186 0.0105,-0.009 0.0211,-0.0182 0.0315,-0.0274 -0.001,-8.3e-4 -0.003,-0.001 -0.004,-0.003 z m -0.35347,0.26716 c -0.002,0.002 -0.003,0.004 -0.005,0.006 3.7e-4,-2e-5 0.001,0 0.001,0 5.1e-4,-1.3e-4 7e-5,-4.6e-4 0.002,-5.1e-4 8.6e-4,-9e-5 0.002,2e-5 0.003,0 -4.2e-4,-0.002 -5.7e-4,-0.004 -5.1e-4,-0.005 z m 0.28681,0.0129 c -0.003,0.003 -0.006,0.005 -0.009,0.008 -0.008,0.008 -0.0163,0.0161 -0.0248,0.0238 0.001,0.001 0.002,0.002 0.003,0.003 0.0103,-0.0114 0.0204,-0.023 0.0305,-0.0346 z m -1.40663,0.37724 c -0.004,0.004 -0.007,0.008 -0.0103,0.0124 0.004,-0.003 0.008,-0.006 0.0103,-0.009 4.7e-4,-5.5e-4 0.001,-0.001 0.001,-0.001 -4.7e-4,-5.6e-4 -0.001,-0.001 -0.001,-0.002 z m 0.64285,0.16692 c -5.6e-4,2.9e-4 -0.001,0.001 -0.001,0.001 -0.003,0.004 -0.007,0.008 -0.01,0.0119 0.004,-0.004 0.008,-0.009 0.0114,-0.0129 z m 0.14263,0.0832 c -0.002,0.003 -0.004,0.005 -0.007,0.008 4.8e-4,5.2e-4 0.001,-1.5e-4 0.002,0.002 0.002,-0.003 0.005,-0.005 0.007,-0.008 -6.7e-4,-1.3e-4 -10e-4,-0.001 -0.002,-0.001 z m -1.02681,0.0294 c -0.003,0.003 -0.006,0.007 -0.009,0.0103 0.0186,0.009 0.0381,0.0189 0.0553,0.0274 -0.002,-0.004 -0.004,-0.007 -0.005,-0.0103 h -5.2e-4 c -0.0135,-0.008 -0.0266,-0.0172 -0.0403,-0.0248 -1.4e-4,-8.6e-4 -3.6e-4,-0.002 -5.2e-4,-0.003 z m 0.30489,0.15451 c 0.0111,0.005 0.0221,0.01 0.0331,0.015 0.003,-0.003 0.005,-0.006 0.008,-0.009 -0.0138,-0.002 -0.0276,-0.004 -0.0413,-0.006 z m -0.71779,0.40359 c -7.6e-4,4e-5 -9.9e-4,0.001 -5.1e-4,0.001 0.003,0.005 0.007,0.01 0.0103,0.0145 -2.8e-4,-0.004 1.6e-4,-0.007 -5.1e-4,-0.0103 -4.5e-4,-0.002 -0.007,-0.005 -0.009,-0.005 z m -0.14417,0.11317 c -0.002,0.002 -0.003,0.004 -0.005,0.006 0.002,4e-5 0.004,-9e-5 0.006,0 -2.8e-4,-0.002 -9.9e-4,-0.004 -9.9e-4,-0.006 z m -0.81443,1.01286 c -0.006,0.008 -0.0125,0.0159 -0.0186,0.0238 0.007,-0.002 0.014,-0.005 0.0212,-0.006 0.002,-2.9e-4 0.003,-2.7e-4 0.005,-5.2e-4 -0.003,-0.006 -0.005,-0.0121 -0.008,-0.0176 z m -0.37982,0.6904 c -9e-4,9e-4 3.2e-4,4.1e-4 -0.002,0.003 l -5.1e-4,5.2e-4 c -10e-4,0.004 3.2e-4,0.005 -0.002,0.009 0.003,-0.004 0.005,-0.008 0.007,-0.0119 -0.001,1.4e-4 -0.002,-7e-5 -0.003,0 z m -0.0672,0.0114 c -0.002,-1e-4 -0.006,0.002 -0.009,0.003 0.002,4.5e-4 0.003,0.002 0.005,0.002 0.002,-0.002 0.003,-0.004 0.004,-0.005 z m -0.20154,0.29352 0.003,0.004 c -2e-4,-1e-4 0.001,8.4e-4 0.001,-0.002 -0.001,-0.001 -0.003,-0.002 -0.004,-0.002 z m 0.0139,0.0222 0.007,0.0108 c -8.1e-4,-0.003 -0.001,-0.006 -0.001,-0.0108 -10e-4,-4.6e-4 -0.002,-0.002 -0.006,0 z" />
    <path
       id="path13-1-7-3"
       style="display:inline;fill:#782144;stroke-width:0.244692"
       d="m 66.162826,234.06579 c -0.60101,0.003 -1.03991,0.15675 -1.3932,0.38757 -0.26911,0.17867 -0.30624,0.56296 -0.36276,0.92914 -0.0918,0.3272 -0.17457,0.66202 -0.2558,0.99839 -0.14658,0.72219 -0.17897,1.54379 -0.19741,2.37712 -0.007,0.3096 -0.0199,0.10134 -0.003,0.30644 -2e-4,0.005 0.009,-0.0995 0.009,-0.1049 -0.004,0.0483 -0.005,0.0624 -0.009,0.11058 3.6e-4,0.008 -0.001,0.001 10e-4,0.0124 -0.008,0.12327 -0.0129,0.2494 -0.0248,0.36949 -0.0105,0.10576 0.0184,-0.22204 0.0269,-0.32143 4.7e-4,0.0587 0.001,0.14726 0.004,0.11317 0.022,-0.27181 0.0706,-0.81171 0.10232,-1.20664 l 0.94465,2.59312 0.0961,-0.99632 c 0.0259,-0.32052 0.0524,-0.64055 0.0765,-0.96273 0.0517,-0.23698 0.10521,-0.47239 0.19327,-0.67748 0.0726,-0.35678 0.051,-0.79625 0.27027,-1.02423 0.0268,-0.0209 0.27804,-0.22045 0.30489,-0.23461 0.26487,-0.1399 0.60149,-0.21608 0.98702,-0.24494 0.26871,0.0128 0.5175,0.005 0.85059,0.0785 0.26835,0.0595 0.59486,0.17431 0.84336,0.21445 0.51838,0.17463 1.03779,0.34938 1.82315,0.79479 0.66963,0.35668 1.4861,0.87234 2.45463,1.57251 0.83465,0.63336 1.68592,1.30613 2.59932,2.10995 0.64997,0.5791 1.26805,1.15221 1.8371,1.71773 -2.1e-4,-0.005 -10e-4,-0.002 -10e-4,-0.009 -9e-5,-0.03 3e-4,-0.0598 0,-0.0899 -0.24543,-0.42891 -0.50124,-0.85188 -0.78342,-1.2578 -0.0765,-0.10559 -0.15113,-0.21249 -0.22944,-0.31678 -0.36753,-0.48939 -0.7733,-0.94904 -1.18597,-1.40043 -0.0678,-0.072 -0.13476,-0.14447 -0.20309,-0.216 -0.25496,-0.26687 -0.51797,-0.52597 -0.78135,-0.78445 -0.19794,-0.19081 -0.39963,-0.37787 -0.60358,-0.56224 -0.1769,-0.15895 -0.35298,-0.31879 -0.52917,-0.47853 -0.15456,-0.13864 -0.30758,-0.27895 -0.45888,-0.42116 -0.12932,-0.12096 -0.25474,-0.24597 -0.38551,-0.36535 -0.0278,-0.0247 -0.0559,-0.0492 -0.0837,-0.0739 -0.25125,-0.14362 -0.50064,-0.29057 -0.74672,-0.44287 -0.2937,-0.18471 -0.58084,-0.38004 -0.85783,-0.58911 -0.21536,-0.16547 -0.42306,-0.34076 -0.64183,-0.50178 -0.19232,-0.13467 -0.39061,-0.25925 -0.59427,-0.3762 -0.20089,-0.11959 -0.40608,-0.23187 -0.60875,-0.3483 -0.0558,-0.0321 -0.0859,-0.0704 -0.0961,-0.10645 -0.21173,-0.0883 -0.41405,-0.16729 -0.601,-0.23048 -0.72739,-0.23979 -1.29024,-0.32207 -1.78749,-0.34158 z m -1.06092,5.56813 c -0.008,0.0915 -0.011,0.1864 -0.0165,0.27957 -0.0144,0.19972 -0.0279,0.40015 -0.0475,0.59532 -0.0164,0.16342 0.029,-0.34871 0.0413,-0.49713 -0.005,0.10476 -0.0168,0.20394 -0.0181,0.31213 -0.007,0.55804 0.19271,-2.08881 0.12816,-1.58079 -0.0173,0.13704 -0.0261,0.28154 -0.0388,0.42272 0.0117,-0.13462 0.0146,-0.17989 0.0222,-0.26975 z m 7.4073,-2.40502 c 7.1e-4,6.8e-4 10e-4,10e-4 0.002,0.002 3.1e-4,-2.4e-4 0.001,-2.8e-4 0.001,-5.1e-4 -0.001,-5.5e-4 -0.002,-0.001 -0.003,-0.001 z m 0.0811,0.0491 c 0,8.7e-4 0.001,0.004 0.005,0.01 -2.9e-4,-0.003 -10e-4,-0.005 -10e-4,-0.008 -0.002,-0.001 -0.004,-0.002 -0.004,-0.001 z m 0.37311,0.28422 c 0.0112,0.0127 0.0232,0.0247 0.0346,0.0372 -0.005,-0.006 -0.01,-0.0119 -0.0139,-0.0181 -0.002,-0.002 -0.004,-0.005 -0.005,-0.007 v -5.1e-4 c -0.002,-0.002 -0.005,-0.004 -0.007,-0.006 -0.003,-0.002 -0.006,-0.003 -0.009,-0.005 z m 0.71727,0.68523 c 0.0294,0.0297 0.0585,0.0597 0.0879,0.0894 0.004,-0.006 0.0116,-0.0113 0.0202,-0.0134 -9.4e-4,-0.001 -0.002,-0.003 -0.003,-0.005 l -5.2e-4,-5.1e-4 c -0.0103,-0.002 -0.0203,-0.007 -0.0305,-0.009 -0.0101,-0.007 -0.021,-0.0131 -0.0305,-0.0207 -0.0106,-0.008 -0.0201,-0.0182 -0.03,-0.0274 -0.005,-0.004 -0.009,-0.009 -0.0139,-0.0134 z m 0.30127,0.0553 c 0.003,0.009 0.006,0.0176 0.009,0.0264 0.002,-0.002 0.0125,-0.004 0.0155,-0.006 -0.008,-0.007 -0.0167,-0.0136 -0.0248,-0.0207 z m 0.76636,0.71676 c -0.001,0.001 -0.003,0.002 -0.004,0.003 0.007,0.008 0.0147,0.0163 0.0222,0.0243 -0.006,-0.009 -0.0121,-0.0179 -0.0181,-0.0269 z m 0.72709,0.81132 c 0.0494,0.0453 0.0982,0.0911 0.14883,0.13487 3.5e-4,1.5e-4 9.5e-4,3.7e-4 0.001,5.2e-4 3.7e-4,-0.001 9.1e-4,-0.003 0.001,-0.004 -0.05,-0.044 -0.10024,-0.0881 -0.1509,-0.13126 z m -0.0444,0.2222 c 0.007,0.007 0.0127,0.0145 0.0191,0.0217 -0.001,-0.003 -0.003,-0.005 -0.004,-0.008 -0.005,-0.005 -0.01,-0.009 -0.015,-0.0139 z m 0.41186,0.29869 c -0.003,5.9e-4 -0.006,0.001 -0.01,0.001 0.002,0.004 0.004,0.007 0.006,0.0109 0.001,-0.001 0.003,-0.002 0.005,-0.003 -3.6e-4,-0.003 -7.7e-4,-0.006 -0.001,-0.009 z m 0.19844,0.12196 c -0.002,0.004 -0.005,0.008 -0.007,0.0124 0.005,-10e-4 0.01,-0.002 0.0145,-0.003 -0.003,-0.004 -0.004,-0.006 -0.007,-0.01 z m 0.0532,0.14831 c -9e-4,10e-4 -10e-4,0.003 -0.002,0.004 0.003,6.1e-4 0.007,8.4e-4 0.01,0 0.003,-7e-4 -0.004,-0.005 -0.007,-0.004 z m 0.41806,0.0413 c 0.003,0.004 0.006,0.008 0.009,0.0124 -0.001,-0.003 -0.003,-0.006 -0.004,-0.008 -0.002,-0.001 -0.003,-0.003 -0.005,-0.004 z m 0.59583,0.38964 c 4.9e-4,0.001 0.001,0.002 0.002,0.003 5.5e-4,0.001 0.001,0.002 0.001,0.004 0.001,-6e-4 0.002,-0.001 0.004,-0.002 10e-4,-5.4e-4 0.003,-0.001 0.004,-0.002 -0.004,-4.8e-4 -0.007,-10e-4 -0.0109,-0.003 z m 0.40359,0.21756 c -3e-5,5.3e-4 3e-5,0.002 0,0.002 3.5e-4,-3.4e-4 0.001,-0.001 0.001,-0.001 -3.6e-4,-3.3e-4 -0.001,-0.001 -0.001,-0.001 z m -0.85111,0.10284 c -0.002,8.7e-4 -0.004,0.002 -0.006,0.004 0.002,0 0.004,-1.9e-4 0.006,0 1.9e-4,-0.001 2.9e-4,-0.002 5.2e-4,-0.004 z m 0.69918,0.11678 c 2.4e-4,0.003 2.5e-4,0.007 5.2e-4,0.008 3.8e-4,0.002 0.001,-0.004 5.2e-4,-0.006 -3e-4,-8.8e-4 -0.001,-0.001 -0.001,-0.002 z m -0.56637,0.28164 c 0.0104,0.0156 0.0202,0.0314 0.0305,0.047 -1.2e-4,-0.006 -1.2e-4,-0.012 5.2e-4,-0.0176 -0.0102,-0.0101 -0.0204,-0.0198 -0.031,-0.0295 z m 0.3514,0.046 c 9.8e-4,0.003 0.002,0.007 0.003,0.01 0.002,-0.002 0.004,-0.004 0.007,-0.005 -0.003,-0.001 -0.007,-0.003 -0.01,-0.005 z m 0.86506,0.0491 c 0.002,0.001 0.003,0.003 0.006,0.005 0.002,-5.4e-4 0.003,-0.002 0.005,-0.003 -0.003,0 -0.008,-0.002 -0.0103,-0.002 z m -0.0744,0.003 c 0.003,0.004 0.006,0.008 0.0103,0.0119 -0.002,-0.004 -0.002,-0.005 -0.004,-0.009 h -0.001 c -0.002,-0.002 -0.002,-0.002 -0.003,-0.003 -9.9e-4,1.5e-4 -0.002,-5e-5 -0.003,0 z m -1.02422,0.0842 c 0.001,0.002 0.002,0.004 0.003,0.005 -3.9e-4,-0.001 -6.9e-4,-0.002 -10e-4,-0.004 -7.4e-4,-3.2e-4 -0.001,-9.5e-4 -0.002,-0.002 z m 0.10335,0.0584 c 0,3.5e-4 0,7.2e-4 0,0.001 0.003,0.007 0.006,0.0134 0.008,0.0202 h 5.2e-4 c -0.003,-0.007 -0.006,-0.0142 -0.009,-0.0212 z m 0.25735,0.0289 c -0.007,0.003 -0.012,0.005 -0.0165,0.005 2.2e-4,8.5e-4 2.9e-4,0.002 5.1e-4,0.003 0.006,-0.001 0.0124,-4.2e-4 0.0186,0.001 -8.7e-4,-0.003 -0.002,-0.005 -0.003,-0.008 z m -0.0754,0.11007 c -9.9e-4,4.8e-4 -0.002,6.5e-4 -0.003,0.001 0.001,4.5e-4 0.003,0.001 0.005,0.001 -6.8e-4,-9e-4 -10e-4,-0.002 -0.002,-0.003 z m 1.08624,0.009 c -0.001,8.3e-4 -0.003,0.001 -0.004,0.003 5.2e-4,6.4e-4 0.002,0.001 0.002,0.001 z m -0.009,0.0289 c -0.004,-0.001 -0.005,0.001 -0.006,0.002 10e-4,0.005 0.002,0.008 0.002,0.0124 z m -1.0573,0.0289 c 1.2e-4,3.1e-4 -5e-5,7.5e-4 0,0.001 3.5e-4,2e-5 7.3e-4,-4e-5 10e-4,0 -3.1e-4,-3.9e-4 -7.7e-4,-6.8e-4 -10e-4,-0.001 z m 0.52245,0.17105 c 0.001,0.0138 0.002,0.027 0.003,0.0408 -0.001,-0.0131 -0.001,-0.0244 -0.001,-0.0367 -5.3e-4,-0.001 -10e-4,-0.003 -10e-4,-0.004 z m 0.003,0.0408 c 1.5e-4,0.002 3.5e-4,0.004 5.1e-4,0.005 -4e-5,-0.001 7e-5,-0.003 0,-0.004 z m 5.1e-4,0.005 c 2.7e-4,0.009 10e-4,0.0178 10e-4,0.0274 0.002,0.0206 0.004,0.041 0.006,0.0615 0.001,5.7e-4 0.003,0.001 0.005,0.002 -0.004,-0.0307 -0.008,-0.0614 -0.0114,-0.0909 z m 0.0274,0.25632 c 10e-4,0.003 0.002,0.005 0.003,0.008 8.2e-4,1e-5 0.002,1.2e-4 0.003,0 -1.3e-4,-0.001 -3.8e-4,-0.002 -5.1e-4,-0.003 -3.8e-4,-5.1e-4 -7.8e-4,-0.001 -0.001,-0.002 -10e-4,-0.001 -0.003,-0.002 -0.004,-0.004 z" />
    <path
       style="display:inline;fill:#782144;stroke:url(#linearGradient20);stroke-width:0.198038"
       id="path13-5-1"
       d="m 91.053096,243.42777 c 0.24458,0.25062 0.42615,0.64041 0.58264,1.05315 0.17,0.46949 0.25464,0.99469 0.29647,1.54423 0.0216,0.65602 -0.0541,1.30308 -0.16945,1.92134 -0.12645,0.64588 -0.32047,1.22876 -0.53882,1.78471 -0.29951,0.75275 -0.63933,1.44296 -0.99557,2.10855 -0.45892,0.83272 -0.95257,1.59902 -1.46237,2.32779 -0.39133,0.55811 -0.8224,1.01114 -1.24937,1.47208 -0.41269,0.46856 -0.82679,0.93299 -1.24116,1.39671 -0.86866,0.95744 -1.75523,1.86151 -2.64339,2.75836 -0.36583,0.36941 -0.009,0.0273 -0.35688,0.35536 -0.0493,0.0482 -0.19657,0.19497 -0.14801,0.14435 0.57777,-0.60226 2.30844,-2.41693 1.73567,-1.79934 -0.65344,0.70458 -1.32006,1.36865 -1.97772,2.06034 -0.59064,0.6212 2.36512,-2.47677 1.77666,-1.84887 -0.0905,0.0966 -4.90216,5.11083 -0.14386,0.15165 0,0 -2.05257,1.44239 -2.05257,1.44239 v 0 c 0.64867,-0.68142 1.29734,-1.36285 1.94601,-2.04428 -0.59812,0.62446 -2.39125,2.50172 -1.79438,1.87337 0.65446,-0.68899 1.3148,-1.35978 1.96714,-2.05524 0.58184,-0.62029 -2.34614,2.42262 -1.75559,1.82971 0.66949,-0.67216 1.32744,-1.3811 1.99246,-2.06752 0.0462,-0.0477 0.0942,-0.0899 0.14124,-0.13484 0.17454,-0.17294 0.16387,-0.1616 0.34531,-0.3448 0.0655,-0.0661 0.2611,-0.26677 0.1962,-0.1989 -2.9698,3.10557 -1.87911,1.96829 -1.23372,1.27986 0.41408,-0.46283 0.83206,-0.91499 1.23851,-1.39945 0.42925,-0.47321 0.87372,-0.90251 1.27904,-1.44351 0.0423,-0.0588 0.44253,-0.61488 0.47773,-0.66673 0.34739,-0.5117 0.68171,-1.05489 1.00406,-1.61696 0.19005,-0.35724 0.38748,-0.70979 0.56241,-1.09214 0.14093,-0.30805 0.26782,-0.63815 0.41395,-0.93899 0.20966,-0.5327 0.4198,-1.06686 0.54751,-1.68454 0.13313,-0.55083 0.21079,-1.13739 0.21004,-1.74138 -0.0321,-0.48919 -0.093,-0.96066 -0.24423,-1.38022 -0.14994,-0.37935 -0.32689,-0.70071 -0.56447,-0.89981 z" />
    <path
       id="path15-1"
       style="display:inline;fill:#782144;stroke-width:0.264583"
       d="m 135.10074,229.2144 c -0.0602,0.0148 -0.12032,0.0303 -0.18035,0.046 0.0499,-0.005 0.0998,-0.01 0.14986,-0.0139 0.0431,-0.003 0.0861,-0.006 0.12919,-0.009 -0.0327,-0.008 -0.0659,-0.0147 -0.0987,-0.0228 z m 1.95906,0.82166 c -0.64136,0.0313 -1.28196,0.0815 -1.92237,0.12816 -1.66496,0.13053 -3.32045,0.36033 -4.97179,0.60565 -0.82287,0.12081 -1.64271,0.27184 -2.44946,0.47439 -0.30119,0.1522 -0.59725,0.3145 -0.88418,0.49402 -0.14345,0.0949 -0.28973,0.18589 -0.43047,0.28474 -0.38178,0.26815 -0.74328,0.57104 -1.06143,0.91364 0.003,0.018 -2e-4,0.0399 -0.0129,0.0672 -0.0221,0.0468 -0.0504,0.0901 -0.0755,0.13539 -0.034,0.0616 -0.0675,0.12334 -0.10128,0.185 0.11718,-0.0397 0.2078,-0.027 0.15244,0.12299 -0.0536,0.14526 -0.21842,0.23529 -0.25942,0.38499 -0.16075,0.22703 -0.32232,0.45346 -0.48369,0.68006 -0.0378,0.0724 -0.0765,0.14372 -0.10748,0.20051 -0.0742,0.13585 -0.14957,0.27157 -0.22893,0.40463 0.033,0.0227 0.0648,0.0457 0.0946,0.0693 0.0297,-0.0158 0.0734,-0.0278 0.13952,-0.0351 0.0457,-0.005 0.0697,0.0597 0.10387,0.0904 0.0616,0.0553 0.12236,0.1116 0.18346,0.16743 0.11462,0.0338 0.23513,0.0798 0.32969,0.13952 0.0227,0.0144 0.0448,0.03 0.0667,0.046 0.28683,-0.62301 0.66221,-1.20547 1.08417,-1.74511 0.1878,-0.24018 0.38037,-0.47782 0.59273,-0.6966 0.21658,-0.22314 0.46105,-0.41744 0.69143,-0.62632 0.26335,-0.18413 0.51365,-0.3878 0.78962,-0.55242 0.94599,-0.56427 2.02146,-0.90413 3.10627,-1.07125 1.13414,-0.17471 1.57828,-0.13019 2.73213,-0.13126 1.10152,0.0661 2.20903,0.19553 3.28197,0.46767 0.11359,0.16066 0.22854,0.32031 0.31678,0.49558 0.39673,0.78804 0.49333,1.67597 0.37104,2.54248 -0.11766,0.83364 -0.27216,1.07953 -0.5855,1.86965 -0.18613,0.33024 -0.35559,0.67018 -0.5581,0.99064 -1.07891,1.70732 -2.50562,3.1615 -3.88142,4.62453 -0.45518,0.48403 -0.90663,0.97113 -1.36012,1.45675 -1.76643,1.85799 -3.48523,3.77199 -4.99298,5.84926 -0.85725,1.18105 -1.11915,1.64599 -1.88826,2.87476 -0.82773,1.45068 -1.61124,2.93192 -2.26136,4.47208 -0.73479,1.74073 -1.33539,3.53791 -1.9482,5.3237 -0.25149,0.7799 -0.49722,1.5623 -0.74207,2.34508 0.0135,0.14793 -0.0309,0.26985 -0.11111,0.35037 -0.39766,1.28752 -0.77363,2.58139 -1.06918,3.8964 -0.30396,1.35242 -0.31701,1.5833 -0.52814,2.94246 -0.2297,1.69064 -0.35538,3.39545 -0.30282,5.10201 0.1798,0.15899 0.36295,0.3139 0.55087,0.46354 0.36544,0.29506 0.73336,0.58788 1.1157,0.86093 0.1405,0.0987 0.25598,0.18142 0.39945,0.27492 0.24171,0.15746 0.49251,0.29975 0.74311,0.44235 0.15904,0.0909 0.31946,0.18076 0.47439,0.27905 -0.0236,-0.20318 -0.0486,-0.40621 -0.063,-0.6103 -0.12174,-1.72639 -0.0341,-3.46055 0.18086,-5.17591 0.19163,-1.34021 0.20788,-1.59709 0.48214,-2.93419 0.4597,-2.24113 1.11794,-4.43656 1.80971,-6.6151 0.51469,-1.51018 0.69235,-2.09723 1.28778,-3.57911 0.84404,-2.10059 1.82513,-4.14794 2.94762,-6.11384 0.73718,-1.20145 1.02279,-1.70901 1.83865,-2.86856 1.4678,-2.08613 3.1474,-4.01198 4.91546,-5.84718 0.14888,-0.14933 2.47408,-2.48105 2.69493,-2.70475 0.39393,-0.399 0.79829,-0.78827 1.17616,-1.20251 0.86702,-0.95049 1.6418,-1.99289 2.27066,-3.11557 0.36106,-0.82982 0.52607,-1.06934 0.68109,-1.95286 0.16006,-0.91227 0.10326,-1.87105 -0.25063,-2.73368 -0.10998,-0.2681 -0.27519,-0.50983 -0.41289,-0.76481 -0.19386,-0.21748 -0.33693,-0.49493 -0.58188,-0.65267 -0.99781,-0.64256 -2.03341,-1.22437 -3.07785,-1.78904 z m -15.35979,4.08761 5.2e-4,5.1e-4 5.1e-4,-5.1e-4 z m 5.2e-4,5.1e-4 h -0.001 v 5.2e-4 z m -0.001,5.2e-4 c -0.002,8.5e-4 -0.003,0.002 -0.005,0.003 0.002,-6.7e-4 0.004,-0.001 0.006,-0.002 -1.3e-4,-1.4e-4 -8.9e-4,-4.5e-4 -0.001,-5.2e-4 z m 2.50941,0.0398 c -0.0427,0.0457 -0.0856,0.0911 -0.12816,0.13694 0.006,-0.001 0.0133,-0.001 0.0202,10e-4 0.0145,0.005 0.0271,0.0128 0.0387,0.0222 0.002,-0.004 0.003,-0.009 0.005,-0.0129 0.0362,-0.0865 0.0502,-0.11516 0.0641,-0.14728 z m -2.37091,0.31368 c -6.6e-4,0.001 -0.001,0.003 -0.002,0.004 h 5.2e-4 c 3.2e-4,-0.001 10e-4,-0.003 0.002,-0.004 z m 1.44849,0.78238 c -0.006,0.0102 -0.0135,0.0197 -0.0196,0.03 l 0.0537,0.0305 c 9.7e-4,-10e-4 0.002,-0.002 0.003,-0.003 -0.0137,-0.0193 -0.0257,-0.0385 -0.0367,-0.0579 z m 0.54001,0.10387 c 0.0157,0.0142 0.031,0.0293 0.046,0.045 0.0121,-0.008 0.0242,-0.0151 0.0356,-0.0232 -0.0289,-0.004 -0.0564,-0.0101 -0.0816,-0.0217 z m 1.2144,0.42994 c 0.004,0.006 0.008,0.0124 0.0119,0.0186 0.002,-0.005 0.004,-0.0107 0.007,-0.016 -0.007,-10e-4 -0.009,-5e-5 -0.0186,-0.003 z m -6.67711,41.84913 c 0.074,0.0578 0.14719,0.11665 0.22221,0.17312 l 0.0904,0.045 c -0.10448,-0.0724 -0.20866,-0.14497 -0.31264,-0.21808 z m 2.72593,1.42265 0.11576,0.0579 c -0.001,-0.01 -0.002,-0.0196 -0.003,-0.0295 -0.038,-0.008 -0.0753,-0.0179 -0.11266,-0.0284 z" />
    <path
       style="display:inline;fill:#000000;stroke-width:0.264583"
       id="path1"
       d="m 122.7746,237.81101 c -0.74632,-1.01009 -1.51148,-2.04945 -2.47509,-2.86883 -1.28612,-1.09363 -4.65843,-2.76809 -5.09382,-3.01385 -2.30063,-0.8177 -4.74675,-1.11515 -7.1662,-1.34044 -1.86788,-0.11336 -3.41992,0.0983 -4.77416,1.53836 -0.29031,0.3087 -0.50833,0.67816 -0.76249,1.01724 -1.1467,2.08618 -1.78686,4.47141 -1.86437,6.85546 -0.016,0.49061 0.0229,0.98147 0.0344,1.4722 0.58756,3.25591 1.97493,6.35531 3.8566,9.07103 0.35608,0.51392 0.75045,1.00023 1.12567,1.50035 2.23543,2.86724 5.09988,5.12178 7.94832,7.34076 1.42052,1.05698 0.73616,0.55411 2.05169,1.51053 0,0 3.62741,1.43488 3.62741,1.43488 v 0 c -1.33989,-0.96023 -0.64256,-0.45677 -2.09101,-1.5117 -2.85277,-2.20402 -5.74239,-4.41975 -8.00689,-7.25657 -0.90081,-1.16506 -1.45449,-1.80894 -2.21234,-3.08546 -1.33052,-2.24112 -2.37172,-4.68403 -2.83935,-7.25402 -0.0179,-0.47737 -0.0639,-0.95451 -0.0538,-1.43211 0.0486,-2.31033 0.65403,-4.63675 1.77285,-6.65353 0.24172,-0.30926 0.44957,-0.64827 0.72516,-0.92777 1.2448,-1.26247 2.91976,-1.44905 4.59655,-1.29635 2.3987,0.23755 4.83842,0.53876 7.08339,1.46267 -0.80116,-0.48535 -1.59452,-0.98381 -2.40347,-1.45603 -0.28232,-0.16481 0.56509,0.33246 0.82294,0.53339 0.97822,0.76228 1.74655,1.79172 2.47145,2.78283 z" />
    <path
       style="display:inline;fill:#000000;stroke-width:0.264583"
       id="path2"
       d="m 110.56925,258.63399 c -0.69063,-0.26304 -1.41969,-0.4201 -2.14472,-0.55624 -0.57255,-0.12624 -1.15528,-0.14057 -1.7385,-0.1442 -0.38951,0.0113 -0.78049,-0.0219 -1.16911,0.0161 -0.0452,0.004 -0.44626,0.0618 -0.49896,0.0693 -0.41761,0.0538 -0.78559,0.2426 -1.15215,0.43542 -0.37932,0.18344 -0.6719,0.48316 -0.91934,0.81738 -0.26424,0.35598 -0.41223,0.76206 -0.49597,1.19282 -0.0799,0.45788 -0.0167,0.78078 0.20184,1.18624 0.21704,0.2874 0.47359,0.57042 0.78936,0.7534 3.50381,2.0304 2.33316,1.55771 3.89228,2.1662 0.56113,0.17617 1.12973,0.32574 1.70865,0.42963 0.58233,0.0653 1.16485,0.11803 1.74171,0.2232 0.69106,0.12234 1.39034,0.17307 2.09006,0.21365 0.67527,0.0786 1.35575,0.0817 2.03275,0.13271 0.54277,0.0498 1.08603,0.11027 1.62654,0.18239 0.33209,0.0784 0.6754,0.0874 1.00866,0.1579 0.14931,0.0316 0.29617,0.0738 0.44487,0.10814 0.34916,0.0874 0.69931,0.15811 1.05735,0.19595 0.17905,0.0135 0.0915,0.008 0.26262,0.0163 0,0 -3.18552,-2.35109 -3.18552,-2.35109 v 0 c -0.15808,-0.0166 -0.0773,-0.007 -0.24243,-0.0288 -0.34225,-0.0545 -0.67808,-0.13967 -1.01783,-0.20743 -0.48619,-0.0994 -0.9799,-0.15675 -1.47014,-0.23226 -0.53755,-0.0581 -1.07528,-0.11841 -1.61544,-0.14636 -0.67462,-0.0341 -1.34883,-0.0719 -2.02227,-0.12523 -0.70138,-0.0483 -1.3979,-0.13258 -2.08938,-0.26144 -0.57695,-0.0848 -1.16055,-0.12191 -1.73328,-0.23445 -0.5613,-0.12594 -1.12307,-0.26668 -1.65444,-0.49072 -1.35868,-0.64643 -0.15741,-0.084 2.80466,1.65937 0.0816,0.0481 -0.17299,-0.0784 -0.25397,-0.12753 -0.2086,-0.12664 -0.39802,-0.29553 -0.56872,-0.46817 -0.26262,-0.27362 -0.37597,-0.52191 -0.32783,-0.90626 0.049,-0.37422 0.15263,-0.72751 0.39016,-1.02976 0.22852,-0.28265 0.50157,-0.51431 0.83651,-0.66329 0.3377,-0.16556 0.68165,-0.30432 1.06148,-0.3363 0.5378,-0.066 1.07844,-0.0635 1.61961,-0.0464 0.56075,0.0206 1.11998,0.067 1.67101,0.1786 0.73992,0.15543 1.47779,0.33936 2.16269,0.66828 z" />
    <path
       style="display:inline;fill:#000000;stroke-width:0.264583"
       id="path12"
       d="m 70.573846,235.80338 c -2.20011,-1.2246 4.19646,2.46082 2.10917,1.22186 -0.14152,-0.084 -0.28198,-0.1698 -0.42456,-0.25199 -1.23885,-0.71408 -2.47979,-1.42453 -3.71968,-2.13679 -0.9246,-0.51823 -1.91778,-0.88269 -2.91849,-1.22142 -0.80728,-0.27452 -1.62772,-0.52068 -2.47211,-0.64839 -0.33813,-0.0525 -0.67721,-0.0788 -1.01857,-0.0983 -0.0886,-0.005 -0.17722,-0.0199 -0.26585,-0.0152 -0.0835,0.004 -0.16485,0.0283 -0.24727,0.0424 -0.46513,0.14119 -0.59827,0.38926 -0.68679,0.8421 -0.0362,0.41373 -0.0406,0.82986 -0.0135,1.24416 0.0228,0.40717 0.088,0.80626 0.19214,1.20006 0.13192,0.47429 0.39069,0.89508 0.65638,1.30418 0.23381,0.37745 0.50148,0.72975 0.79649,1.06087 0.31708,0.38344 0.66757,0.73739 1.01645,1.09155 0.43618,0.44911 0.93648,0.82591 1.41555,1.22633 0.25709,0.21138 0.49626,0.44794 0.76883,0.63979 0.17864,0.14229 0.33185,0.30335 0.53098,0.41919 1.16439,0.66644 2.32878,1.33289 3.49316,1.99933 0,0 -3.0922,-2.47841 -3.0922,-2.47841 v 0 c 1.09914,0.63302 2.19829,1.26604 3.29743,1.89906 -0.098,-0.0563 -0.19911,-0.10617 -0.29917,-0.15839 -0.0318,-0.0166 -0.0689,-0.0231 -0.0981,-0.0438 -0.0612,-0.0433 -0.0937,-0.11987 -0.15732,-0.16078 -0.19445,-0.1766 0.0201,0.009 -0.20852,-0.15696 -0.21133,-0.15303 -0.41031,-0.3265 -0.61003,-0.49379 -0.47336,-0.40113 -0.98037,-0.76029 -1.4263,-1.19242 -0.34436,-0.3459 -0.6899,-0.69111 -1.01673,-1.05382 -0.0447,-0.058 -0.0861,-0.11859 -0.13398,-0.1739 -0.3267,-0.37724 0.03,0.0772 -0.29942,-0.31573 -0.0965,-0.11508 -0.17449,-0.2355 -0.26052,-0.35812 -0.0411,-0.0586 -0.0828,-0.11682 -0.12424,-0.17524 -0.25574,-0.38533 -0.53509,-0.75923 -0.70466,-1.19344 -0.11011,-0.37067 -0.19774,-0.74204 -0.21053,-1.13054 -0.0473,-0.38251 -0.0601,-0.76697 -0.0257,-1.15172 0.0345,-0.30158 0.0751,-0.3782 0.39657,-0.41328 0.48832,-2.7e-4 0.97118,0.0729 1.45392,0.14006 0.80371,0.14726 1.58923,0.37104 2.35932,0.64421 0.99595,0.35486 1.97448,0.7575 2.8929,1.28599 -0.94656,-0.54882 -1.89282,-1.09817 -2.8397,-1.64645 -0.13928,-0.0806 0.27902,0.16057 0.41692,0.24356 0.1285,0.0773 0.25255,0.16202 0.38222,0.23738 1.38334,0.80401 2.76905,1.64149 4.18668,2.39932 z" />
    <path
       style="display:inline;fill:#000000;stroke-width:0.245274"
       id="path12-8"
       d="m 88.902966,235.08344 c 1.62125,-1.42814 -3.09234,2.86984 -1.55424,1.42496 0.10429,-0.098 0.20779,-0.19804 0.31286,-0.29388 0.9129,-0.83278 1.82734,-1.6613 2.74101,-2.49196 0.68134,-0.60437 1.4132,-1.02941 2.15062,-1.42444 0.59488,-0.32014 1.19946,-0.60722 1.82168,-0.75615 0.24916,-0.0612 0.49904,-0.0919 0.75059,-0.11462 0.0653,-0.006 0.13052,-0.0232 0.19589,-0.0177 0.0616,0.005 0.12144,0.033 0.18223,0.0495 0.34274,0.16465 0.44085,0.45396 0.50606,0.98206 0.0267,0.4825 0.0299,0.9678 0.01,1.45096 -0.0169,0.47485 -0.0649,0.94028 -0.14159,1.39953 -0.0972,0.55313 -0.28788,1.04385 -0.48367,1.52096 -0.1723,0.44018 -0.36954,0.85104 -0.58693,1.23719 -0.23366,0.44719 -0.49194,0.85996 -0.74901,1.27299 -0.32142,0.52376 -0.69009,0.96319 -1.04311,1.43016 -0.18946,0.24652 -0.3657,0.5224 -0.56656,0.74613 -0.13164,0.16594 -0.24453,0.35378 -0.39127,0.48887 -0.85803,0.77722 -1.71607,1.55443 -2.5741,2.33165 0,0 2.27863,-2.89036 2.27863,-2.89036 v 0 c -0.80995,0.73824 -1.61991,1.47648 -2.42986,2.21472 0.0722,-0.0657 0.14672,-0.12382 0.22046,-0.18473 0.0234,-0.0193 0.0508,-0.0269 0.0723,-0.0511 0.0451,-0.0505 0.0691,-0.13979 0.11592,-0.1875 0.14329,-0.20596 -0.0148,0.01 0.15366,-0.18305 0.15573,-0.17846 0.30235,-0.38077 0.44953,-0.57586 0.34881,-0.46781 0.72242,-0.88667 1.05103,-1.39062 0.25376,-0.4034 0.50839,-0.80599 0.74922,-1.22898 0.0329,-0.0676 0.0634,-0.1383 0.0987,-0.20281 0.24075,-0.43994 -0.0221,0.09 0.22063,-0.36821 0.0711,-0.1342 0.12858,-0.27464 0.19199,-0.41763 0.0303,-0.0684 0.061,-0.13625 0.0915,-0.20437 0.18846,-0.44939 0.39431,-0.88543 0.51926,-1.39181 0.0811,-0.43228 0.14572,-0.86539 0.15515,-1.31846 0.0349,-0.44608 0.0444,-0.89445 0.0189,-1.34315 -0.0254,-0.35171 -0.0554,-0.44106 -0.29222,-0.48197 -0.35986,-3.1e-4 -0.71567,0.085 -1.0714,0.16334 -0.59225,0.17174 -1.17109,0.43271 -1.73857,0.75128 -0.73391,0.41385 -1.45498,0.88341 -2.13176,1.49974 0.69752,-0.64003 1.39481,-1.2807 2.09255,-1.92011 0.10265,-0.094 -0.2056,0.18725 -0.30722,0.28404 -0.0947,0.0902 -0.1861,0.18895 -0.28166,0.27684 -1.01937,0.93765 -2.04049,1.91433 -3.08514,2.79813 z" />
    <path
       style="display:inline;fill:#000000;stroke-width:0.264583"
       id="path13"
       d="m 67.058766,243.08571 c -0.43886,0.24932 -0.76464,0.63707 -1.04544,1.04766 -0.30505,0.46703 -0.45692,0.98949 -0.53198,1.53616 -0.0388,0.65259 0.0972,1.29627 0.30404,1.91131 0.2269,0.64251 0.57504,1.22234 0.96684,1.77538 0.53742,0.74883 1.14717,1.43542 1.78639,2.09753 0.82344,0.82838 1.70922,1.59066 2.62397,2.31563 0.70216,0.55519 1.47565,1.00586 2.24178,1.46439 0.7405,0.46611 1.48354,0.92812 2.22705,1.38941 1.55865,0.95244 3.14945,1.85179 4.74311,2.74396 0.65641,0.36748 0.0166,0.0272 0.64034,0.3535 0.0885,0.0479 0.35272,0.19395 0.26559,0.1436 -1.0367,-0.59912 -4.1421,-2.40431 -3.11437,-1.78994 1.17249,0.7009 2.36863,1.3615 3.54869,2.04957 1.05981,0.61796 -4.2438,-2.46383 -3.18791,-1.83921 0.16244,0.0961 8.79608,5.08414 0.25812,0.15086 0,0 3.68299,1.43486 3.68299,1.43486 v 0 c -1.16392,-0.67787 -2.32786,-1.35574 -3.49178,-2.03361 1.07323,0.6212 4.29069,2.48866 3.21971,1.86359 -1.17431,-0.68539 -2.35918,-1.35268 -3.52971,-2.04451 -1.044,-0.61705 4.20977,2.40997 3.15013,1.82016 -1.20129,-0.66865 -2.38186,-1.37389 -3.57514,-2.05673 -0.083,-0.0475 -0.16895,-0.0894 -0.25342,-0.13413 -0.31318,-0.17204 -0.29406,-0.16076 -0.61961,-0.343 -0.11746,-0.0658 -0.46851,-0.26538 -0.35205,-0.19786 5.32879,3.08935 3.37175,1.95801 2.2137,1.27317 -0.743,-0.46041 -1.49299,-0.91021 -2.22229,-1.39214 -0.77023,-0.47074 -1.56775,-0.89779 -2.29502,-1.43597 -0.0758,-0.0585 -0.79403,-0.61167 -0.8572,-0.66325 -0.62333,-0.50902 -1.22321,-1.04937 -1.80161,-1.6085 -0.34102,-0.35538 -0.69528,-0.70609 -1.00915,-1.08644 -0.25288,-0.30643 -0.48055,-0.63482 -0.74277,-0.93408 -0.3762,-0.52991 -0.75326,-1.06128 -0.98241,-1.67573 -0.23888,-0.54796 -0.37822,-1.13145 -0.37688,-1.7323 0.0576,-0.48663 0.16683,-0.95563 0.43822,-1.373 0.26906,-0.37737 0.58655,-0.69706 1.01285,-0.89511 z" />
    <path
       style="display:inline;fill:#000000;stroke-width:0.264583"
       id="path14"
       d="m 71.946246,254.75655 c -0.85362,-0.0349 -1.70705,-0.0842 -2.56151,-0.0858 -0.4633,-0.009 -0.93944,0.034 -1.36631,0.23035 -0.2114,0.0972 -0.3251,0.19356 -0.51049,0.32844 -0.44717,0.38755 -0.6726,0.81063 -0.80614,1.37827 -0.0843,0.51191 -0.0132,1.02402 0.2037,1.49528 0.0492,0.10688 0.10991,0.20807 0.16487,0.3121 0.19451,0.28733 0.44716,0.69077 0.75006,0.87516 0.98946,0.60235 2.69542,1.92965 4.2067,2.31724 0.20594,0.0528 0.4165,0.0857 0.62475,0.1285 1.15937,0.20355 2.33424,0.28642 3.50925,0.32305 0.58373,0.0128 1.1676,0.0155 1.75141,0.0221 0,0 -3.16877,-2.29926 -3.16877,-2.29926 v 0 c -0.56179,0.0139 -1.12386,0.0205 -1.68576,0.009 -1.14367,-0.0301 -2.29272,-0.0929 -3.41101,-0.35286 -0.20768,-0.0614 -0.4195,-0.11037 -0.62306,-0.18435 -0.17295,-0.0628 -0.66036,-0.32231 -0.50401,-0.22525 0.94919,0.58926 1.9177,1.14702 2.88614,1.70409 0.11222,0.0646 -0.21609,-0.14349 -0.31609,-0.22572 -0.0919,-0.0756 -0.17825,-0.15845 -0.25824,-0.24658 -0.0763,-0.0841 -0.13966,-0.17916 -0.2095,-0.26874 -0.33228,-0.49679 -0.53278,-0.91827 -0.46682,-1.53024 0.0911,-0.46985 0.2554,-0.83017 0.64663,-1.12912 0.1794,-0.11506 0.23713,-0.16627 0.44013,-0.2392 0.4025,-0.14459 0.83791,-0.14838 1.25961,-0.15572 0.8696,0.005 1.74259,0.0418 2.603,0.17474 z" />
    <path
       style="display:inline;fill:#000000;stroke:url(#linearGradient19);stroke-width:0.198038"
       id="path13-5"
       d="m 92.390956,242.17546 c 0.24458,0.25062 0.42615,0.64041 0.58264,1.05315 0.17,0.46949 0.25464,0.99469 0.29647,1.54423 0.0216,0.65601 -0.0541,1.30308 -0.16945,1.92134 -0.12645,0.64589 -0.32047,1.22876 -0.53882,1.78471 -0.29951,0.75275 -0.63933,1.44295 -0.99558,2.10854 -0.45891,0.83272 -0.95256,1.59902 -1.46236,2.32779 -0.39133,0.55811 -0.8224,1.01114 -1.24937,1.47208 -0.41269,0.46856 -0.82679,0.93299 -1.24116,1.39671 -0.86866,0.95744 -1.75523,1.86151 -2.64339,2.75836 -0.36583,0.36941 -0.009,0.0273 -0.35688,0.35536 -0.0493,0.0482 -0.19657,0.19497 -0.14801,0.14435 0.57776,-0.60226 2.30844,-2.41693 1.73567,-1.79934 -0.65344,0.70458 -1.32006,1.36865 -1.97772,2.06034 -0.59064,0.6212 2.36512,-2.47677 1.77666,-1.84887 -0.0905,0.0966 -4.90216,5.11083 -0.14386,0.15165 0,0 -2.05257,1.44239 -2.05257,1.44239 v 0 c 0.64867,-0.68142 1.29734,-1.36285 1.94601,-2.04428 -0.59812,0.62446 -2.39125,2.50172 -1.79438,1.87337 0.65446,-0.68899 1.3148,-1.35978 1.96714,-2.05524 0.58184,-0.62029 -2.34614,2.42262 -1.75559,1.82971 0.66949,-0.67216 1.32744,-1.3811 1.99246,-2.06752 0.0462,-0.0477 0.0942,-0.0899 0.14124,-0.13484 0.17453,-0.17294 0.16387,-0.1616 0.34531,-0.3448 0.0655,-0.0661 0.2611,-0.26677 0.1962,-0.1989 -2.9698,3.10557 -1.87911,1.96829 -1.23372,1.27986 0.41408,-0.46283 0.83206,-0.91499 1.23851,-1.39945 0.42925,-0.47321 0.87372,-0.90251 1.27904,-1.44351 0.0423,-0.0588 0.44253,-0.61488 0.47773,-0.66673 0.34739,-0.5117 0.68171,-1.05489 1.00406,-1.61696 0.19005,-0.35724 0.38748,-0.70979 0.56241,-1.09214 0.14093,-0.30804 0.26782,-0.63815 0.41395,-0.93899 0.20966,-0.53269 0.4198,-1.06685 0.5475,-1.68453 0.13314,-0.55083 0.2108,-1.13739 0.21005,-1.74138 -0.0321,-0.48919 -0.093,-0.96066 -0.24423,-1.38022 -0.14994,-0.37935 -0.32689,-0.70071 -0.56447,-0.89981 z" />
    <path
       style="display:inline;fill:#000000;stroke-width:0.296176"
       id="path17"
       d="m 134.76374,228.61124 c -0.20083,-0.98549 -0.38363,-1.99367 -0.72912,-2.92749 -0.10798,-0.29177 -0.24033,-0.56995 -0.36048,-0.85492 -0.77184,-1.05115 -0.96786,-1.4252 -1.97292,-2.29037 -0.53453,-0.46014 -1.10049,-0.86643 -1.67219,-1.25552 -2.86433,-1.94943 -6.01872,-3.1916 -9.07346,-4.58417 -3.50612,-1.3108 -7.1245,-2.15332 -10.76217,-2.63766 -0.70918,-0.0944 -1.42056,-0.15769 -2.13085,-0.23654 -3.23415,-0.26442 -6.48304,-0.29221 -9.710994,-0.0235 -0.55173,0.0459 -1.10184,0.11257 -1.65278,0.16887 -2.51533,0.32093 -5.01467,0.8831 -7.44066,1.72262 -0.42739,0.14788 -0.84969,0.31533 -1.27453,0.473 -1.507,0.60788 -2.97912,1.33718 -4.40751,2.16927 -0.70525,0.41083 -1.15096,0.70142 -1.83942,1.13714 -0.94681,0.64689 -1.91654,1.3023 -2.7095,2.21217 -0.40778,0.4679 -0.4916,0.64649 -0.82055,1.17545 -0.3116,0.53199 -0.46266,1.14444 -0.61386,1.76095 0,0 3.67837,1.70046 3.67837,1.70046 v 0 c 0.12744,-0.56738 0.25077,-1.13152 0.52979,-1.62361 0.10993,-0.18301 0.21043,-0.37484 0.32978,-0.54904 0.80575,-1.17599 1.9297,-1.96018 3.00623,-2.72389 1.9656,-1.27977 3.9862,-2.44961 6.11847,-3.29059 1.05511,-0.39939 1.48908,-0.58371 2.57435,-0.91118 1.97221,-0.59509 3.98561,-1.00441 6.01105,-1.26208 0.538964,-0.0591 1.077074,-0.12842 1.616884,-0.17722 3.18094,-0.28753 6.38352,-0.27213 9.57186,0.004 0.70652,0.0818 1.41415,0.14874 2.11955,0.24539 3.62617,0.49684 7.2308,1.355 10.71677,2.70544 -0.34229,-0.19322 -1.38006,-0.7411 -1.0269,-0.57965 0.67192,0.30717 1.33247,0.6523 1.98464,1.01748 1.07205,0.60028 2.40658,1.43834 3.38467,2.27739 0.88754,0.76134 1.10365,1.13364 1.78762,2.04316 0.11361,0.26431 0.23945,0.52174 0.34099,0.79291 0.32307,0.86295 0.50984,1.83384 0.58095,2.76984 z" />
    <path
       id="path15"
       style="display:inline;fill:#000000;stroke-width:0.264583"
       d="m 133.58817,229.49707 c -1.15008,0.014 -1.68943,-0.0205 -2.82515,0.15607 -1.49257,0.23199 -2.89528,0.78416 -4.07882,1.73064 -0.24106,0.22029 -0.49586,0.42679 -0.72347,0.66094 -0.21879,0.22508 -0.41557,0.47048 -0.6134,0.71417 -0.58898,0.72548 -1.09798,1.50843 -1.58956,2.30167 l 3.43596,1.942 c 0.29737,-0.85806 0.77487,-1.6461 1.33274,-2.35955 0.1878,-0.24018 0.38037,-0.47782 0.59273,-0.69659 0.21658,-0.22315 0.46105,-0.41745 0.69143,-0.62632 0.26335,-0.18414 0.51364,-0.38781 0.78961,-0.55242 0.94599,-0.56427 2.02146,-0.90414 3.10627,-1.07126 1.13414,-0.17471 1.57829,-0.13019 2.73214,-0.13125 1.10152,0.0661 2.20903,0.19553 3.28197,0.46767 0.11359,0.16065 0.22853,0.32031 0.31677,0.49557 0.39673,0.78804 0.49333,1.67597 0.37104,2.54248 -0.11766,0.83364 -0.27216,1.07953 -0.5855,1.86966 -0.18613,0.33024 -0.35559,0.67018 -0.5581,0.99064 -1.07891,1.70731 -2.50562,3.1615 -3.88142,4.62452 -0.45518,0.48403 -0.90663,0.97113 -1.36012,1.45676 -1.76643,1.85798 -3.48523,3.77198 -4.99298,5.84925 -0.85725,1.18105 -1.11915,1.64599 -1.88826,2.87476 -0.82773,1.45068 -1.61124,2.93192 -2.26136,4.47208 -0.73479,1.74073 -1.33539,3.53792 -1.9482,5.32371 -0.25149,0.7799 -0.49722,1.56229 -0.74207,2.34507 0.0135,0.14793 -0.0309,0.26985 -0.11111,0.35037 -0.39766,1.28752 -0.77363,2.58139 -1.06918,3.8964 -0.30396,1.35242 -0.317,1.5833 -0.52813,2.94246 -0.2333,1.7171 -0.36144,3.44879 -0.30231,5.18211 0.0118,0.34671 0.0421,0.69294 0.063,1.03922 l 3.26389,1.62935 c -0.0357,-0.34621 -0.083,-0.691 -0.10749,-1.03818 -0.12174,-1.72639 -0.0341,-3.46055 0.18087,-5.17591 0.19163,-1.34021 0.20788,-1.59709 0.48214,-2.93419 0.4597,-2.24113 1.11794,-4.43656 1.80971,-6.6151 0.51469,-1.51018 0.69234,-2.09723 1.28777,-3.57911 0.84404,-2.10059 1.82514,-4.14793 2.94763,-6.11383 0.73718,-1.20145 1.02279,-1.70901 1.83865,-2.86856 1.4678,-2.08613 3.1474,-4.01198 4.91546,-5.84719 0.14888,-0.14932 2.47407,-2.48105 2.69492,-2.70475 0.39393,-0.399 0.79829,-0.78827 1.17616,-1.20251 0.86702,-0.95049 1.6418,-1.99289 2.27066,-3.11557 0.36106,-0.82981 0.52608,-1.06933 0.6811,-1.95285 0.16006,-0.91228 0.10326,-1.87106 -0.25063,-2.73368 -0.10998,-0.26811 -0.2752,-0.50983 -0.4129,-0.76482 -0.19386,-0.21748 -0.33692,-0.49493 -0.58187,-0.65267 -1.27051,-0.81817 -2.59566,-1.55019 -3.93258,-2.25464 -0.29817,-0.15712 -0.63328,-0.23435 -0.9586,-0.32246 -1.2893,-0.3492 -2.62998,-0.4806 -3.95945,-0.54416 z" />
  </g>
</svg>
