<?xml version="1.0" encoding="UTF-8" standalone="no"?>
<!-- Created with Inkscape (http://www.inkscape.org/) -->

<svg
   width="100%"
   height="100%"
   viewBox="0 0 209.98512 191.97032"
   version="1.1"
   id="svg1"
   inkscape:version="1.4 (86a8ad7, 2024-10-11)"
   sodipodi:docname="splash.svg"
   xmlns:inkscape="http://www.inkscape.org/namespaces/inkscape"
   xmlns:sodipodi="http://sodipodi.sourceforge.net/DTD/sodipodi-0.dtd"
   xmlns:xlink="http://www.w3.org/1999/xlink"
   xmlns="http://www.w3.org/2000/svg"
   xmlns:svg="http://www.w3.org/2000/svg">
  <sodipodi:namedview
     id="namedview1"
     pagecolor="#505050"
     bordercolor="#ffffff"
     borderopacity="1"
     inkscape:showpageshadow="0"
     inkscape:pageopacity="0"
     inkscape:pagecheckerboard="1"
     inkscape:deskcolor="#505050"
     inkscape:document-units="mm"
     inkscape:zoom="0.73851712"
     inkscape:cx="396.06394"
     inkscape:cy="409.60459"
     inkscape:window-width="2560"
     inkscape:window-height="1009"
     inkscape:window-x="-8"
     inkscape:window-y="-8"
     inkscape:window-maximized="1"
     inkscape:current-layer="layer1" />
  <defs
     id="defs1">
    <linearGradient
       inkscape:collect="always"
       xlink:href="#linearGradient18"
       id="linearGradient20"
       gradientUnits="userSpaceOnUse"
       x1="86.514572"
       y1="99.916084"
       x2="96.030312"
       y2="99.916084"
       gradientTransform="matrix(1.7143954,0,0,1.7143954,-79.442183,-26.083892)" />
    <linearGradient
       id="linearGradient18"
       inkscape:collect="always">
      <stop
         style="stop-color:#000000;stop-opacity:1;"
         offset="0"
         id="stop18" />
      <stop
         style="stop-color:#000000;stop-opacity:0;"
         offset="1"
         id="stop19" />
    </linearGradient>
    <linearGradient
       inkscape:collect="always"
       xlink:href="#linearGradient18"
       id="linearGradient19"
       x1="86.514572"
       y1="99.916084"
       x2="96.030312"
       y2="99.916084"
       gradientUnits="userSpaceOnUse"
       gradientTransform="matrix(1.7143954,0,0,1.7143954,-77.148563,-28.230855)" />
  </defs>
  <g
     inkscape:label="Layer 1"
     inkscape:groupmode="layer"
     id="layer1"
     transform="translate(-0.3061302,-39.958694)">
    <rect
       style="opacity:0.51;fill:#782144;stroke-width:0.264583"
       id="rect1"
       width="209.98512"
       height="191.97032"
       x="0.3061302"
       y="39.958694" />
    <path
       id="path1-2"
       style="display:inline;fill:#782144;stroke-width:0.4536"
       d="m 116.7153,112.06543 v 8.9e-4 c -2.68633,-0.0269 -4.97717,0.52063 -7.00866,2.68086 -0.49771,0.52923 -0.87191,1.16309 -1.30764,1.74441 -1.9659,3.57654 -3.06359,7.66564 -3.19648,11.75285 -0.0274,0.84109 0.0396,1.68275 0.0593,2.52404 1.00732,5.58193 3.38585,10.89509 6.61177,15.55088 0.61046,0.88108 1.28631,1.71535 1.92958,2.57276 2.5208,3.2333 5.51908,5.99798 8.66093,8.59982 0.0593,-0.0154 0.12276,-0.0243 0.19047,-0.0266 0.22533,-0.007 0.49413,0.0581 0.79115,0.22679 0.7755,0.4405 1.55044,0.88293 2.32736,1.32094 1.01514,0.59411 2.00749,1.24253 3.08129,1.7267 0.24455,0.11022 0.4286,0.24475 0.5608,0.38805 0.44651,0.19998 0.89243,0.40132 1.3422,0.59357 -3.93232,-3.08559 -7.77067,-6.30387 -10.90325,-10.22816 -1.54434,-1.99738 -2.49345,-3.10147 -3.7927,-5.28993 -2.28104,-3.84229 -4.06564,-8.02994 -4.86734,-12.43593 -0.0307,-0.8184 -0.11041,-1.63614 -0.0931,-2.45494 0.0833,-3.96081 1.12156,-7.94979 3.03966,-11.40734 0.4144,-0.53019 0.7705,-1.11108 1.24297,-1.59026 2.13407,-2.16437 5.00574,-2.4846 7.88042,-2.22281 3.55747,0.3523 7.16728,0.78988 10.56835,1.92601 0.2893,0.28397 0.56782,0.57978 0.8381,0.88417 -0.19892,-0.51896 0.10767,-0.96503 0.62813,-0.95769 0.0104,1.4e-4 0.0211,0.005 0.0311,0.005 0.0413,-0.23764 0.14898,-0.4122 0.2897,-0.51915 0.007,-0.0138 0.012,-0.03 0.0213,-0.0434 -2.37398,-1.39675 -4.9786,-2.70568 -5.46357,-2.97942 -3.9442,-1.40187 -8.13831,-1.91187 -12.28621,-2.29813 -0.40029,-0.0244 -0.79187,-0.0404 -1.17565,-0.0442 z m 18.64368,7.62084 c -0.007,5.9e-4 -0.0238,0.002 -0.0301,0.003 0.0364,0.0461 0.073,0.0919 0.10903,0.13818 0.0417,0.007 0.0833,0.0154 0.12498,0.0229 -0.0681,-0.0543 -0.13595,-0.1092 -0.20377,-0.16389 z m 7.31431,4.16304 c 0.003,0.008 0.008,0.0171 0.012,0.0248 0.002,8.3e-4 0.005,0.002 0.008,0.002 -0.007,-0.008 -0.0137,-0.0184 -0.0204,-0.0274 z m 0.26224,0.53421 c 0.003,0.007 0.005,0.012 0.008,0.0187 l 0.2082,0.0903 c -0.0104,-0.0137 -0.02,-0.0272 -0.0301,-0.0408 -0.0623,-0.0231 -0.1248,-0.045 -0.18692,-0.0682 z m -9.36613,40.70444 c 7.7e-4,0.005 0.002,0.012 0.003,0.0176 l 0.15052,0.0593 c -0.0484,-0.0295 -0.10239,-0.0513 -0.15326,-0.0772 z m 3.28771,1.21551 c 0.0258,0.0436 0.0485,0.0869 0.0691,0.12944 l 0.24008,0.0948 c -0.19826,-0.14212 -0.15841,-0.11607 -0.30919,-0.22415 z" />
    <path
       id="path13-1"
       style="display:inline;fill:#782144;stroke-width:0.4536"
       d="m 47.352524,131.78022 c 0.0051,0.005 0.012,0.008 0.01766,0.0138 8.92e-4,-10e-5 0.0017,6e-5 0.0034,0 z m 0.116065,0.0744 c 0.0051,0.005 0.012,0.012 0.01766,0.0171 0.01371,0.007 0.02297,0.012 0.03635,0.0176 z m -0.444749,0.0239 c 0.0069,0.007 0.01371,0.0154 0.02041,0.0221 8.23e-4,-0.001 0.0017,-0.003 0.0017,-0.005 -0.0069,-0.005 -0.01543,-0.012 -0.02297,-0.0176 z m -0.673311,0.0593 c -0.466967,0.3911 -0.855604,0.87076 -1.200437,1.37499 -0.522976,0.80066 -0.782947,1.69579 -0.91163,2.633 -0.06652,1.1188 0.166297,2.22265 0.52092,3.27707 0.389013,1.10153 0.98588,2.09594 1.657597,3.04411 0.921333,1.28377 1.966806,2.46089 3.062682,3.59603 1.411701,1.42016 2.930553,2.727 4.498796,3.96988 1.20378,0.95182 2.529745,1.72376 3.843195,2.50986 1.26951,0.7991 2.54286,1.59146 3.817513,2.38229 2.672159,1.63286 5.399882,3.1748 8.132029,4.70434 1.015007,0.56822 0.374699,0.22911 0.994024,0.55193 0.01543,0.008 -0.343531,-0.19959 -0.361463,-0.20996 0.165096,0.0955 0.21435,0.12412 0.378298,0.21883 0.02537,0.0137 0.0069,0.003 0.03635,0.0187 0.416957,0.23916 0.835716,0.4755 1.250943,0.71761 0.365766,0.21327 -0.758964,-0.43887 -1.099443,-0.63609 0.187452,0.10271 0.470585,0.25851 0.354366,0.19136 -0.928448,-0.53657 -2.782721,-1.61306 -4.131127,-2.39205 l 6.167023,2.40268 -3.439215,-2.00311 c -1.094881,-0.63269 -2.189299,-1.26563 -3.285072,-1.8968 -0.885383,-0.54444 -1.770337,-1.0908 -2.637427,-1.66379 -1.320479,-0.80703 -2.687623,-1.53937 -3.934452,-2.46202 -0.130122,-0.10031 -1.360595,-1.04823 -1.468894,-1.13667 -1.068634,-0.87265 -2.097648,-1.79935 -3.089272,-2.75792 -0.584643,-0.60927 -1.192122,-1.21016 -1.730236,-1.86223 -0.43352,-0.52535 -0.823544,-1.08871 -1.273093,-1.60178 -0.644938,-0.90847 -1.2913,-1.8188 -1.684171,-2.87222 -0.409534,-0.93941 -0.648144,-1.94046 -0.645847,-2.97055 0.09875,-0.83429 0.286013,-1.63753 0.751283,-2.35306 0.354005,-0.49652 0.762803,-0.92859 1.261572,-1.25892 -0.01543,-0.008 -0.0085,-0.003 -0.02571,-0.0138 -0.22066,-0.12173 -0.441988,-0.24184 -0.661791,-0.36501 -0.800228,-0.44844 -1.587444,-0.92117 -2.400016,-1.3475 -0.365938,-0.2036 -0.528462,-0.28955 -0.884165,-0.5041 -0.45603,-0.27509 -0.896989,-0.57333 -1.328022,-0.88595 -0.220643,-0.16098 -0.315964,-0.22704 -0.526234,-0.39246 -0.0034,-0.002 -0.0051,-0.005 -0.0086,-0.007 z m 23.5704,26.35135 c 0.312758,0.18076 0.627229,0.35855 0.94086,0.53778 0.678078,0.39009 1.356721,0.77955 2.032348,1.17386 0.56575,0.33019 -1.19334,-0.69057 -1.701006,-0.98427 0.350354,0.19916 0.69769,0.40378 1.049827,0.59979 1.816625,1.01116 -7.190501,-4.17904 -5.400671,-3.12116 0.482722,0.28531 0.969731,0.56372 1.454715,0.84518 -0.46172,-0.26762 -0.615468,-0.35613 -0.92315,-0.53423 z M 47.220517,132.07155 c -0.0017,5.2e-4 -0.0011,4.3e-4 -0.0017,8.9e-4 0.0017,0.002 0.0051,0.005 0.0069,0.007 0.0069,-6.2e-4 0.01032,-9.3e-4 0.01543,-0.002 -0.0069,-0.002 -0.01371,-0.005 -0.02041,-0.007 z m 2.128027,1.38916 c 2.39e-4,9.1e-4 6.17e-4,0.002 8.74e-4,0.003 0.04629,0.0242 0.09206,0.0492 0.13818,0.0735 -0.04698,-0.0243 -0.09241,-0.0514 -0.139037,-0.0761 z m 0.139037,0.0761 c 0.03361,0.0176 0.06652,0.0364 0.100122,0.054 0.306071,0.15824 0.610753,0.31886 0.916945,0.47663 -0.0069,-0.008 -0.01371,-0.0173 -0.02212,-0.0258 -0.208573,-0.10663 -0.417078,-0.21327 -0.626355,-0.31805 -0.123093,-0.0615 -0.246341,-0.12344 -0.36856,-0.18692 z" />
    <path
       id="path13-1-7"
       style="display:inline;fill:#782144;stroke-width:0.376141"
       d="m 85.514317,112.81671 c -0.305435,0.002 -0.63506,0.0354 -0.994914,0.10543 -0.654319,0.15499 -1.375904,0.39643 -2.221927,0.79912 -0.0194,0.0195 -0.04025,0.0378 -0.06017,0.0567 0.01199,0.0537 -0.01043,0.12532 -0.07977,0.19668 -0.07049,0.0718 -0.128922,0.15429 -0.195802,0.22945 -0.07059,0.0793 -0.103021,0.10955 -0.178952,0.18516 -0.216136,0.20051 -0.443971,0.3878 -0.66092,0.58738 -0.261984,0.24567 -0.516846,0.49952 -0.759248,0.76457 -0.04265,0.046 -0.08248,0.0943 -0.123093,0.14178 0.03994,0.10869 0.0031,0.264 -0.159443,0.41374 -0.123093,0.11349 -0.245665,0.22668 -0.370302,0.33841 -0.04317,0.0682 -0.0854,0.13733 -0.131154,0.20378 -0.09499,0.14229 -0.209848,0.26835 -0.326924,0.39247 -0.124116,0.12053 -0.254738,0.23471 -0.384484,0.34905 -0.106639,0.098 -0.217261,0.19085 -0.318948,0.29415 -0.09614,0.0967 -0.187471,0.19743 -0.280836,0.29678 -0.100623,0.11606 -0.203477,0.23075 -0.300346,0.34993 -0.118975,0.13938 -0.229482,0.28482 -0.336653,0.43323 -0.102917,0.13579 -0.21063,0.26825 -0.324245,0.39513 -0.114689,0.11864 -0.233893,0.2327 -0.3473,0.35261 -0.078,0.0753 -0.153948,0.15258 -0.230329,0.22945 -0.02195,0.0416 -0.04474,0.0827 -0.06737,0.12413 -0.04098,0.0769 -0.08881,0.14949 -0.139038,0.22061 -0.03514,0.0524 -0.07286,0.10323 -0.113493,0.15155 -0.04492,0.0523 -0.09172,0.10239 -0.137322,0.15412 -0.06018,0.0737 -0.127724,0.14007 -0.19491,0.2073 -0.10201,0.10323 -0.209757,0.20122 -0.318055,0.29767 -0.151724,0.13253 -0.299642,0.26875 -0.444748,0.40842 -0.157039,0.15396 -0.314918,0.30616 -0.472196,0.4598 -0.176566,0.17273 -0.351931,0.34684 -0.527143,0.52094 -0.07234,0.0734 -0.148638,0.14299 -0.223248,0.2144 -0.0017,0.002 -0.0034,0.005 -0.0051,0.007 -0.158067,0.19037 -0.316495,0.38054 -0.479293,0.567 -0.143666,0.16664 -0.287865,0.33352 -0.434102,0.49789 -0.139895,0.15944 -0.282105,0.31573 -0.418176,0.47841 -0.116921,0.14246 -0.229472,0.28862 -0.333107,0.4412 -0.103553,0.14726 -0.208196,0.29372 -0.316289,0.43765 -0.101665,0.13218 -0.205264,0.26288 -0.314506,0.38893 -0.109035,0.12943 -0.21603,0.25954 -0.320711,0.39248 -0.09652,0.11897 -0.191362,0.23956 -0.289699,0.35701 -0.09344,0.11487 -0.182566,0.23365 -0.271972,0.35174 -0.08452,0.1092 -0.170068,0.21801 -0.251622,0.32955 -0.05417,0.0793 -0.105607,0.15944 -0.160295,0.23831 -0.05297,0.0778 -0.0984,0.16048 -0.147096,0.24099 -0.06223,0.10492 -0.124465,0.21033 -0.183389,0.31717 -0.08949,0.15516 -0.177765,0.31088 -0.265783,0.46688 -0.09978,0.1723 -0.203601,0.34181 -0.308299,0.51119 -0.04046,0.0692 -0.08109,0.13869 -0.12138,0.2082 -0.01543,0.047 -0.03172,0.0936 -0.04612,0.14092 0.0051,0.0234 0.01032,0.0461 0.01543,0.0691 1.2e-4,0.008 0.0017,0.005 0.0017,0.012 0.733007,-0.98459 1.541259,-1.99576 2.399126,-3.02547 1.208631,-1.43287 2.359351,-2.65976 3.495017,-3.82549 1.328554,-1.30329 2.470695,-2.29641 3.428582,-3.01661 1.115077,-0.88313 1.890289,-1.29643 2.663145,-1.70986 0.38392,-0.13629 0.868765,-0.40401 1.278409,-0.57409 0.508452,-0.21115 0.908722,-0.27873 1.333329,-0.38272 0.623788,-0.0822 1.183094,-0.0822 1.648722,0.0319 0.04713,0.012 0.50986,0.21549 0.559025,0.23655 0.420165,0.25366 0.520954,0.88449 0.74686,1.36787 0.203738,0.26308 0.362565,0.58017 0.518265,0.90011 0.137837,0.44976 0.278792,0.8954 0.419049,1.3422 l 0.460696,1.38385 0.70609,-3.9832 c 0.172518,0.55062 0.416129,1.30173 0.535115,1.68064 0.01366,0.0476 -0.01043,-0.0787 -0.02826,-0.16217 0.04421,0.13835 0.19136,0.59506 0.141779,0.44828 -0.0561,-0.16664 -0.101978,-0.34501 -0.15327,-0.51739 1.04e-4,-0.0171 -0.0021,-0.007 -0.0021,-0.0176 -0.02075,-0.0673 -0.02763,-0.0868 -0.0487,-0.15412 0.0021,0.007 0.04953,0.15275 0.04786,0.14623 -0.03451,-0.297 0.0083,0.003 -0.09843,-0.43409 -0.286644,-1.17732 -0.592235,-2.33395 -1.048947,-3.31255 -0.233403,-0.45164 -0.469392,-0.89983 -0.716726,-1.3351 -0.203185,-0.50187 -0.380323,-1.03624 -0.864688,-1.20399 -0.396694,-0.13441 -0.837567,-0.21476 -1.346624,-0.21085 z m -4.444762,1.56456 c -0.02388,0.0138 -0.04953,0.0314 -0.07351,0.0461 0.001,0.007 0.0021,0.0154 0.0031,0.0221 0.0243,-0.0221 0.04598,-0.0468 0.0708,-0.0682 z m 6.408,4.78231 c -0.02002,0.0412 0.896835,3.00799 0.730896,2.29192 -0.03545,-0.1531 -0.08509,-0.28972 -0.125836,-0.43677 0.06548,0.2068 0.296384,0.9187 0.219723,0.69193 -0.09155,-0.27085 -0.174959,-0.55119 -0.259575,-0.83013 -0.03754,-0.13047 -0.07299,-0.26413 -0.113501,-0.39159 l -0.340199,-1.02504 c 0.03994,0.12515 0.0585,0.18827 0.118631,0.37564 -0.06382,-0.19641 -0.122238,-0.39922 -0.192247,-0.58826 -0.0244,-0.0657 -0.03597,-0.0919 -0.03806,-0.0878 z m -11.097263,0.0593 c -0.04937,0.0605 -0.09909,0.12068 -0.147953,0.18162 0.06001,-0.0561 0.120008,-0.11229 0.17984,-0.16836 -0.01032,-0.003 -0.02195,-0.008 -0.03189,-0.0137 z m -1.517618,0.37298 c -0.03343,0.0346 -0.06755,0.0706 -0.100977,0.10543 0.03721,-0.0213 0.07561,-0.041 0.116065,-0.0576 -0.0069,-0.0154 -0.012,-0.0315 -0.01543,-0.0479 z m 1.197797,0.58913 c -0.01869,0.0192 -0.03703,0.0386 -0.05589,0.0577 0.0069,-0.003 0.012,-0.005 0.01869,-0.008 0.0051,-0.007 0.01032,-0.0138 0.01543,-0.0204 8.91e-4,-0.001 6.86e-4,-0.002 0.0034,-0.003 0.0069,-0.008 0.012,-0.0171 0.01869,-0.0248 z m -0.167497,0.1958 c -0.0034,0.003 -0.0086,0.005 -0.01371,0.008 l -8.91e-4,9e-4 c -0.0017,0.003 -0.0051,0.007 -0.0086,0.0104 0.0015,-9e-5 0.0034,4e-5 0.0051,0 0.0051,-0.007 0.012,-0.012 0.01766,-0.0187 z m -0.587385,0.60952 c -0.0034,8.3e-4 -0.0051,8.8e-4 -0.0069,8.9e-4 0.0011,9.5e-4 0.0017,0.002 0.0034,0.003 0.0011,-0.001 0.0017,-0.002 0.0034,-0.003 z m -1.48837,0.13647 c -0.0017,0.002 -0.0051,0.005 -0.0069,0.007 0.0069,0.008 0.01371,0.0154 0.01954,0.0239 0.0051,0.008 7.54e-4,0.0154 -0.0069,0.0239 0.0034,-10e-4 0.0085,-0.002 0.012,-0.003 0.01371,-0.012 0.02898,-0.0229 0.04338,-0.0346 l -8.92e-4,-8.8e-4 c -0.01543,-0.001 -0.02949,-0.003 -0.04423,-0.005 -0.0051,-0.003 -0.01032,-0.007 -0.01543,-0.012 z m 0.780512,0.31452 c -0.0034,0.002 -0.0051,0.005 -0.0085,0.007 0.0034,-6.6e-4 0.0069,-0.002 0.01032,-0.002 -8.75e-4,-0.002 -2.07e-4,-0.003 -0.0034,-0.005 z m -0.107149,0.11435 c -0.0051,0.007 -0.01032,0.0154 -0.01714,0.0221 0.0051,-7.8e-4 0.01032,-0.002 0.01371,-0.002 -8.06e-4,-0.007 -0.0011,-0.0137 0.0034,-0.0195 z m -0.123093,0.1639 c -4.12e-4,4.4e-4 -0.0017,4.1e-4 -0.0017,8.7e-4 5.5e-4,-1.7e-4 0.0017,2e-4 0.0017,0 z m -1.583177,0.24716 c -0.0051,0.005 -0.01032,0.008 -0.01714,0.0138 -0.0085,0.007 -0.01543,0.0154 -0.02383,0.0229 0.0085,-0.003 0.01714,-0.007 0.02486,-0.008 0.0086,-0.007 0.01817,-0.0154 0.02743,-0.0221 -0.0034,-0.002 -0.0085,-0.003 -0.012,-0.005 z m 1.368774,0.0523 c -0.0034,3e-4 -0.0069,6.7e-4 -0.01032,8.9e-4 h -8.75e-4 c 0.0017,0.007 -2.91e-4,0.0138 -0.0017,0.0213 0.0085,-0.003 0.01371,-0.007 0.01869,-0.0104 v -9e-4 c -0.0034,-0.003 -0.0051,-0.007 -0.0051,-0.012 z m -1.567232,0.0283 c -0.01714,0.0186 -0.03308,0.0365 -0.04955,0.0549 0.02246,-0.0138 0.04474,-0.0276 0.06824,-0.0397 -0.0069,-0.003 -0.012,-0.0104 -0.01869,-0.0154 z m 1.330697,0.0229 c -0.0069,0.007 -0.01371,0.012 -0.02041,0.0187 0.0014,5.8e-4 0.0034,0.002 0.0051,0.002 0.0051,-0.007 0.01032,-0.0138 0.01543,-0.0204 z m 0.172742,0.0137 c -0.0069,0.007 -0.01371,0.0138 -0.02212,0.0195 -0.0085,0.0104 -0.01714,0.0213 -0.02486,0.0319 0.018,-0.0154 0.03617,-0.0312 0.054,-0.047 -0.0017,-0.001 -0.0051,-0.002 -0.0069,-0.005 z m -0.60597,0.45804 c -0.0034,0.003 -0.0051,0.007 -0.0085,0.0104 6.17e-4,-6e-5 0.0017,0 0.0017,0 8.75e-4,-2.3e-4 1.2e-4,-8e-4 0.0034,-9e-4 0.0015,-1.4e-4 0.0034,3e-5 0.0051,0 -7.37e-4,-0.003 -9.95e-4,-0.007 -8.92e-4,-0.008 z m 0.491689,0.0221 c -0.0051,0.005 -0.01032,0.008 -0.01543,0.0137 -0.01371,0.0138 -0.02795,0.0276 -0.04251,0.0408 0.0017,0.002 0.0034,0.003 0.0051,0.005 0.01766,-0.0196 0.03497,-0.0394 0.05229,-0.0593 z m -2.41152,0.64674 c -0.0069,0.007 -0.012,0.0137 -0.01766,0.0213 0.0069,-0.005 0.012,-0.0104 0.01766,-0.0154 8.06e-4,-9.4e-4 0.0017,-0.002 0.0017,-0.002 -7.88e-4,-9.8e-4 -0.0017,-0.002 -0.0017,-0.003 z m 1.102099,0.28616 c -9.6e-4,5.1e-4 -0.0017,0.002 -0.0017,0.002 -0.0051,0.007 -0.012,0.0137 -0.01714,0.0204 0.0069,-0.007 0.01371,-0.0154 0.01954,-0.0221 z m 0.244524,0.14263 c -0.0034,0.005 -0.0069,0.008 -0.012,0.0137 8.23e-4,9.2e-4 0.0017,-2.5e-4 0.0034,0.003 0.0034,-0.005 0.0085,-0.0104 0.012,-0.0137 -0.0011,-2.1e-4 -0.0017,-0.002 -0.0034,-0.002 z m -1.760359,0.0504 c -0.0051,0.005 -0.01032,0.012 -0.01543,0.0176 0.03189,0.0154 0.06532,0.0324 0.0948,0.047 -0.0034,-0.007 -0.0069,-0.012 -0.0085,-0.0176 h -8.92e-4 c -0.02315,-0.0137 -0.0456,-0.0295 -0.06909,-0.0425 -2.23e-4,-0.001 -6.17e-4,-0.003 -8.74e-4,-0.005 z m 0.522702,0.26491 c 0.01903,0.008 0.03789,0.0171 0.05674,0.0258 0.0051,-0.005 0.01032,-0.0104 0.01371,-0.0154 -0.02366,-0.003 -0.04732,-0.007 -0.0708,-0.0104 z m -1.230558,0.69192 c -0.0014,5e-5 -0.0017,0.002 -8.92e-4,0.002 0.0051,0.008 0.012,0.0171 0.01766,0.0248 -4.8e-4,-0.007 2.57e-4,-0.012 -8.92e-4,-0.0176 -7.71e-4,-0.005 -0.012,-0.008 -0.01543,-0.008 z m -0.247182,0.19402 c -0.0034,0.003 -0.0051,0.007 -0.0085,0.0104 0.0034,8e-5 0.0069,-1.5e-4 0.01032,0 -4.8e-4,-0.003 -0.0017,-0.007 -0.0017,-0.0104 z m -1.396238,1.73643 c -0.01032,0.0138 -0.02143,0.0272 -0.03189,0.0408 0.012,-0.003 0.024,-0.008 0.03635,-0.0104 0.0034,-5.3e-4 0.0051,-4.7e-4 0.0085,-9e-4 -0.0051,-0.0104 -0.0085,-0.0207 -0.01371,-0.0301 z m -0.651178,1.18373 c -0.0016,10e-4 5.65e-4,6.8e-4 -0.0034,0.005 l -8.74e-4,8.7e-4 c -0.0017,0.007 5.49e-4,0.008 -0.0034,0.0154 0.0051,-0.007 0.0086,-0.0137 0.012,-0.0204 -0.0017,2.5e-4 -0.0034,-1.1e-4 -0.0051,0 z m -0.115207,0.0195 c -0.0034,-1.8e-4 -0.01032,0.003 -0.01543,0.005 0.0034,7.7e-4 0.0051,0.003 0.0086,0.003 0.0034,-0.003 0.0051,-0.007 0.0069,-0.008 z m -0.34552,0.50321 0.0051,0.007 c -3.42e-4,-1.8e-4 0.0017,0.001 0.0017,-0.003 -0.0017,-0.002 -0.0051,-0.003 -0.0069,-0.003 z m 0.02383,0.0381 0.012,0.0187 c -0.0014,-0.005 -0.0017,-0.0104 -0.0017,-0.0187 -0.0017,-8e-4 -0.0034,-0.003 -0.01032,0 z" />
    <path
       id="path13-1-7-3"
       style="display:inline;fill:#782144;stroke-width:0.419499"
       d="m 41.006535,114.06058 c -1.030352,0.005 -1.782799,0.26871 -2.388478,0.66444 -0.461379,0.30631 -0.525034,0.96512 -0.621931,1.59292 -0.157382,0.56095 -0.299282,1.13496 -0.438543,1.71164 -0.251296,1.23811 -0.306825,2.64664 -0.338422,4.07532 -0.012,0.53076 -0.03412,0.17373 -0.0051,0.52536 -3.43e-4,0.008 0.01543,-0.17058 0.01543,-0.17986 -0.0069,0.0828 -0.0085,0.10715 -0.01543,0.18959 5.99e-4,0.0137 -0.0017,0.002 0.0017,0.0213 -0.01371,0.21132 -0.02212,0.42756 -0.04252,0.63344 -0.018,0.1813 0.03154,-0.38066 0.04612,-0.55106 8.06e-4,0.10062 0.0017,0.25247 0.0069,0.19402 0.03771,-0.46598 0.121037,-1.39159 0.175417,-2.06866 l 1.619487,4.44564 0.164753,-1.70808 c 0.0444,-0.54951 0.08983,-1.09817 0.131152,-1.65051 0.08881,-0.40627 0.180371,-0.80986 0.33134,-1.16147 0.124466,-0.61166 0.08743,-1.36509 0.46335,-1.75593 0.04594,-0.0359 0.476671,-0.37793 0.522702,-0.40222 0.454109,-0.23984 1.031192,-0.37044 1.692143,-0.41991 0.460675,0.0219 0.887216,0.008 1.458264,0.13475 0.460041,0.10197 1.019826,0.29883 1.445836,0.36764 0.888709,0.29939 1.779182,0.59898 3.1256,1.36259 1.14801,0.61149 2.54778,1.49553 4.208206,2.69591 1.43092,1.08582 2.890351,2.2392 4.456263,3.61728 1.114306,0.99279 2.173956,1.97535 3.149516,2.94485 -3.43e-4,-0.008 -0.0017,-0.003 -0.0017,-0.0154 -1.37e-4,-0.0514 5.32e-4,-0.1025 0,-0.15412 -0.420764,-0.73534 -0.859323,-1.46047 -1.343074,-2.15637 -0.131152,-0.18102 -0.259114,-0.3643 -0.393368,-0.54308 -0.630075,-0.83902 -1.325742,-1.62703 -2.033222,-2.4009 -0.116235,-0.1236 -0.231032,-0.24769 -0.348177,-0.37032 -0.437085,-0.45751 -0.888005,-0.90171 -1.339543,-1.34484 -0.339346,-0.32713 -0.685124,-0.64782 -1.034775,-0.96391 -0.303275,-0.2725 -0.605129,-0.54653 -0.907189,-0.82038 -0.264994,-0.23769 -0.527331,-0.47823 -0.786719,-0.72204 -0.221688,-0.20737 -0.436708,-0.42169 -0.660916,-0.62636 -0.04766,-0.0423 -0.09584,-0.0844 -0.143495,-0.12669 -0.430725,-0.24624 -0.858295,-0.49817 -1.280174,-0.75926 -0.503517,-0.31666 -0.995789,-0.65153 -1.470659,-1.00996 -0.369212,-0.2837 -0.725293,-0.58419 -1.100334,-0.86025 -0.329712,-0.23087 -0.669677,-0.44445 -1.018831,-0.64496 -0.344405,-0.20504 -0.696181,-0.39751 -1.043638,-0.59711 -0.09566,-0.0551 -0.147267,-0.1207 -0.164753,-0.18252 -0.36299,-0.15138 -0.709846,-0.28678 -1.030352,-0.39512 -1.247034,-0.41109 -2.211982,-0.55215 -3.064447,-0.5856 z m -1.818819,9.54598 c -0.01371,0.15686 -0.01886,0.31956 -0.02829,0.47928 -0.02469,0.3424 -0.04783,0.68602 -0.08144,1.0206 -0.02829,0.28019 0.04972,-0.5978 0.0708,-0.85226 -0.0085,0.1796 -0.0288,0.34964 -0.03103,0.5351 -0.012,0.95671 0.330364,-3.58103 0.2197,-2.71008 -0.02966,0.23493 -0.04474,0.48266 -0.06652,0.72469 0.02006,-0.23078 0.02503,-0.30839 0.03806,-0.46246 z m 12.699042,-4.12317 c 0.0013,0.001 0.0017,0.002 0.0034,0.003 5.15e-4,-4.1e-4 0.0017,-4.8e-4 0.0017,-8.9e-4 -0.0017,-9.5e-4 -0.0034,-0.002 -0.0051,-0.002 z m 0.139037,0.0842 c 0,0.001 0.0017,0.007 0.0086,0.0171 -5.15e-4,-0.005 -0.0017,-0.007 -0.0017,-0.0138 -0.0034,-0.002 -0.0069,-0.003 -0.0069,-0.002 z m 0.639641,0.48726 c 0.01921,0.0218 0.03978,0.0423 0.05932,0.0638 -0.0085,-0.0104 -0.01714,-0.0204 -0.02383,-0.0311 -0.0034,-0.003 -0.0069,-0.008 -0.0085,-0.012 v -8.9e-4 c -0.0034,-0.003 -0.0085,-0.007 -0.012,-0.0104 -0.0051,-0.003 -0.01032,-0.005 -0.01543,-0.008 z m 1.229685,1.17477 c 0.0504,0.0509 0.100289,0.10239 0.150695,0.15326 0.0069,-0.0104 0.01989,-0.0194 0.03463,-0.0229 -0.0016,-0.003 -0.0034,-0.005 -0.0051,-0.008 l -8.92e-4,-8.8e-4 c -0.01765,-0.003 -0.03481,-0.0104 -0.05229,-0.0154 -0.01732,-0.012 -0.03601,-0.0224 -0.05229,-0.0355 -0.01817,-0.0138 -0.03446,-0.0312 -0.05144,-0.0469 -0.0085,-0.007 -0.01543,-0.0154 -0.02383,-0.0229 z m 0.516496,0.0948 c 0.0051,0.0154 0.01032,0.0301 0.01543,0.045 0.0034,-0.003 0.02143,-0.007 0.02657,-0.0104 -0.01371,-0.012 -0.02863,-0.0234 -0.04251,-0.0354 z m 1.313861,1.22879 c -0.0017,0.002 -0.0051,0.003 -0.0069,0.005 0.01371,0.0137 0.02537,0.0277 0.03806,0.0417 -0.01032,-0.0154 -0.02074,-0.0307 -0.03103,-0.0461 z m 1.246502,1.39093 c 0.08469,0.0777 0.168182,0.15617 0.255154,0.23123 6e-4,2.6e-4 0.0017,6.1e-4 0.0017,9e-4 6.52e-4,-0.002 0.0016,-0.005 0.0017,-0.007 -0.08572,-0.0754 -0.17185,-0.15104 -0.258685,-0.22503 z m -0.07612,0.38095 c 0.012,0.012 0.02177,0.0248 0.03274,0.0372 -0.0017,-0.005 -0.0051,-0.008 -0.0069,-0.0137 -0.0085,-0.008 -0.01714,-0.0154 -0.02571,-0.0238 z m 0.70609,0.51207 c -0.0051,0.001 -0.01032,0.002 -0.01714,0.002 0.0034,0.007 0.0069,0.012 0.01032,0.0187 0.0034,-0.002 0.0051,-0.003 0.0086,-0.005 -6.17e-4,-0.005 -0.0014,-0.0104 -0.0017,-0.0154 z m 0.340205,0.20909 c -0.0034,0.007 -0.0086,0.0138 -0.012,0.0213 0.0086,-0.002 0.01714,-0.003 0.02486,-0.005 -0.0051,-0.007 -0.0069,-0.0104 -0.012,-0.0171 z m 0.09121,0.25426 c -0.0016,0.002 -0.0017,0.005 -0.0034,0.007 0.0051,0.001 0.012,0.001 0.01714,0 0.0051,-10e-4 -0.0069,-0.008 -0.012,-0.007 z m 0.71672,0.0708 c 0.0051,0.007 0.01032,0.0137 0.01543,0.0213 -0.0017,-0.005 -0.0051,-0.0104 -0.0069,-0.0137 -0.0034,-0.002 -0.0051,-0.005 -0.0086,-0.007 z m 1.021488,0.66799 c 8.57e-4,0.002 0.0017,0.003 0.0034,0.005 9.6e-4,0.002 0.0017,0.003 0.0017,0.007 0.0017,-0.001 0.0034,-0.002 0.0069,-0.003 0.0017,-9.2e-4 0.0051,-0.003 0.0069,-0.003 -0.0069,-8.3e-4 -0.012,-0.002 -0.01869,-0.005 z m 0.69193,0.37299 c -6.8e-5,9.1e-4 5.2e-5,0.003 0,0.003 6e-4,-5.8e-4 0.0017,-0.002 0.0017,-0.002 -6.16e-4,-5.6e-4 -0.0017,-0.002 -0.0017,-0.002 z m -1.459156,0.17629 c -0.0034,0.001 -0.0069,0.003 -0.01032,0.007 0.0034,0 0.0069,-3e-4 0.01032,0 3.43e-4,-0.002 5.14e-4,-0.003 8.91e-4,-0.007 z m 1.198688,0.20023 c 3.94e-4,0.005 4.28e-4,0.0104 8.75e-4,0.0137 6.5e-4,0.003 0.0017,-0.007 8.91e-4,-0.0104 -5.15e-4,-10e-4 -0.0017,-0.002 -0.0017,-0.003 z m -0.970999,0.48283 c 0.01766,0.0268 0.03463,0.0538 0.05229,0.0806 -1.87e-4,-0.0104 -2.05e-4,-0.0205 8.92e-4,-0.0301 -0.01732,-0.0173 -0.03497,-0.034 -0.05315,-0.0506 z m 0.602438,0.0788 c 0.0017,0.005 0.0034,0.012 0.0051,0.0171 0.0034,-0.003 0.0069,-0.007 0.012,-0.008 -0.0051,-0.002 -0.012,-0.005 -0.01714,-0.008 z m 1.483073,0.0841 c 0.0034,0.003 0.0051,0.005 0.01032,0.008 0.0034,-9.2e-4 0.0051,-0.003 0.0085,-0.005 -0.0051,0 -0.01371,-0.003 -0.01765,-0.003 z m -0.127551,0.005 c 0.0051,0.007 0.01032,0.0137 0.01765,0.0204 -0.0034,-0.007 -0.0034,-0.008 -0.0069,-0.0154 h -0.0017 c -0.0034,-0.003 -0.0034,-0.003 -0.0051,-0.005 -0.0017,2.6e-4 -0.0034,-8e-5 -0.0051,0 z m -1.755936,0.14435 c 0.0017,0.003 0.0034,0.007 0.0051,0.008 -6.69e-4,-0.002 -0.0011,-0.003 -0.0017,-0.007 -0.0013,-5.6e-4 -0.0017,-0.002 -0.0034,-0.003 z m 0.177183,0.1001 c 0,6e-4 0,0.001 0,0.002 0.0051,0.012 0.01032,0.0229 0.01371,0.0346 h 8.91e-4 c -0.0051,-0.012 -0.01032,-0.0243 -0.01543,-0.0364 z m 0.4412,0.0495 c -0.012,0.005 -0.02057,0.008 -0.02829,0.008 3.94e-4,0.001 4.97e-4,0.003 8.91e-4,0.005 0.01032,-0.002 0.02108,-7.4e-4 0.03189,0.002 -0.0015,-0.005 -0.0034,-0.0104 -0.0051,-0.0138 z m -0.129438,0.1887 c -0.0017,8.2e-4 -0.0034,0.001 -0.0051,0.002 0.0017,7.7e-4 0.0051,0.002 0.0085,0.002 -0.0011,-0.001 -0.0017,-0.003 -0.0034,-0.005 z m 1.862246,0.0154 c -0.0017,0.001 -0.0051,0.002 -0.0069,0.005 8.91e-4,0.001 0.0034,0.002 0.0034,0.002 z m -0.01543,0.0495 c -0.0069,-0.002 -0.0085,0.002 -0.01032,0.002 0.0017,0.008 0.0034,0.0137 0.0034,0.0213 z m -1.812629,0.0495 c 2.22e-4,5.3e-4 -8.7e-5,0.001 0,0.002 6e-4,5e-5 0.0013,-6e-5 0.0017,0 -5.14e-4,-6.6e-4 -0.0013,-0.001 -0.0017,-0.002 z m 0.895685,0.29324 c 0.0017,0.0237 0.0034,0.0463 0.0051,0.07 -0.0017,-0.0224 -0.0017,-0.0418 -0.0017,-0.0629 -9.09e-4,-0.002 -0.0017,-0.005 -0.0034,-0.007 z m 0.0051,0.07 c 2.74e-4,0.003 5.99e-4,0.007 8.91e-4,0.008 -6.9e-5,-0.002 1.2e-4,-0.005 0,-0.007 z m 8.91e-4,0.008 c 4.45e-4,0.0154 0.0017,0.0305 0.0017,0.047 0.0034,0.0354 0.0069,0.0703 0.01032,0.10544 0.0017,9.8e-4 0.0051,0.002 0.0086,0.003 -0.0069,-0.0527 -0.01371,-0.10527 -0.01954,-0.15585 z m 0.04698,0.43943 c 0.0017,0.005 0.0034,0.008 0.0051,0.0137 0.0014,2e-5 0.0034,2.2e-4 0.0051,0 -2.22e-4,-0.002 -6.68e-4,-0.003 -8.91e-4,-0.005 -6.51e-4,-8.5e-4 -0.0014,-0.002 -0.0017,-0.003 -0.0017,-0.002 -0.0051,-0.003 -0.0069,-0.007 z" />
    <path
       style="display:inline;fill:#782144;stroke:url(#linearGradient20);stroke-width:0.339516"
       id="path13-5-1"
       d="m 83.678301,130.11071 c 0.41931,0.42966 0.730594,1.09792 0.998876,1.80551 0.291452,0.80488 0.436557,1.7053 0.508265,2.64742 0.03702,1.12467 -0.0927,2.234 -0.290503,3.29394 -0.216782,1.1073 -0.54941,2.10658 -0.923748,3.05971 -0.513478,1.2905 -1.096068,2.47379 -1.706801,3.61489 -0.786776,1.42761 -1.633081,2.74134 -2.507081,3.99075 -0.670898,0.95682 -1.409907,1.73349 -2.141919,2.52372 -0.707508,0.8033 -1.417441,1.59951 -2.127836,2.39452 -1.489227,1.64143 -3.009141,3.19136 -4.531815,4.72891 -0.627178,0.63332 -0.01543,0.0468 -0.611817,0.60923 -0.08452,0.0827 -0.337016,0.33426 -0.253747,0.24747 0.990509,-1.0325 3.957562,-4.14357 2.975625,-3.08478 -1.120272,1.20793 -2.263106,2.34641 -3.390595,3.53224 -1.012607,1.06499 4.05475,-4.24616 3.045881,-3.16969 -0.155153,0.16561 -8.404224,8.76198 -0.246617,0.25999 0,0 -3.518933,2.47282 -3.518933,2.47282 v 0 c 1.112094,-1.16822 2.224153,-2.33647 3.336247,-3.5047 -1.025413,1.07057 -4.099565,4.28894 -3.076293,3.2117 1.122003,-1.18121 2.254087,-2.3312 3.372472,-3.5235 0.997488,-1.06342 -4.022228,4.15334 -3.009792,3.13685 1.147788,-1.15235 2.275757,-2.36775 3.415882,-3.54455 0.07921,-0.0817 0.161496,-0.15413 0.242124,-0.23117 0.29923,-0.29649 0.280955,-0.27704 0.591998,-0.59112 0.112293,-0.11332 0.447646,-0.45735 0.336381,-0.34099 -5.091429,5.32417 -3.221554,3.37443 -2.115101,2.19418 0.709914,-0.79347 1.42648,-1.56865 2.123296,-2.39921 0.735921,-0.81127 1.497919,-1.54726 2.192781,-2.47475 0.07252,-0.10083 0.758674,-1.05414 0.819017,-1.14303 0.595561,-0.87726 1.168725,-1.8085 1.721357,-2.77211 0.325841,-0.61245 0.664309,-1.21687 0.964196,-1.87237 0.241609,-0.52811 0.459142,-1.09403 0.709687,-1.60979 0.359437,-0.91326 0.719687,-1.82902 0.938628,-2.88797 0.228241,-0.94434 0.361387,-1.94994 0.360094,-2.98542 -0.05506,-0.83866 -0.159433,-1.64695 -0.418706,-2.36624 -0.257052,-0.65035 -0.560421,-1.2013 -0.967709,-1.54263 z" />
    <path
       id="path15-1"
       style="display:inline;fill:#782144;stroke-width:0.4536"
       d="m 159.19339,105.74337 c -0.10323,0.0253 -0.20628,0.0519 -0.3092,0.0788 0.0856,-0.008 0.1711,-0.0171 0.25693,-0.0239 0.0739,-0.005 0.1476,-0.0104 0.22147,-0.0154 -0.0561,-0.0138 -0.11298,-0.0252 -0.1692,-0.0389 z m 3.3586,1.40866 c -1.09954,0.0537 -2.19779,0.13971 -3.29571,0.21971 -2.8544,0.22377 -5.69256,0.61775 -8.52361,1.03831 -1.41073,0.20713 -2.81625,0.46604 -4.19934,0.8133 -0.51636,0.26094 -1.02393,0.53919 -1.51584,0.84696 -0.24593,0.16269 -0.49671,0.31868 -0.738,0.48815 -0.65451,0.45971 -1.27427,0.97899 -1.81971,1.56634 0.005,0.0309 -3.4e-4,0.0684 -0.0221,0.1152 -0.0379,0.0802 -0.0864,0.15447 -0.12943,0.23211 -0.0583,0.10561 -0.11573,0.21146 -0.17364,0.31717 0.20089,-0.0681 0.35625,-0.0463 0.26134,0.21086 -0.0919,0.24903 -0.37445,0.40338 -0.44474,0.66002 -0.27559,0.38922 -0.55259,0.77741 -0.82924,1.16589 -0.0647,0.12413 -0.13115,0.2464 -0.18427,0.34375 -0.1272,0.23291 -0.25641,0.46558 -0.39247,0.69369 0.0565,0.0389 0.11109,0.0783 0.16218,0.1188 0.0509,-0.0271 0.12583,-0.0477 0.2392,-0.0602 0.0783,-0.008 0.11948,0.10229 0.17806,0.15498 0.10561,0.0948 0.20978,0.19133 0.31453,0.28706 0.1965,0.058 0.40311,0.13681 0.56522,0.23919 0.0389,0.0247 0.0769,0.0514 0.11435,0.0788 0.49174,-1.06808 1.13529,-2.06666 1.8587,-2.99181 0.32196,-0.41176 0.6521,-0.81917 1.01617,-1.19424 0.37131,-0.38256 0.79042,-0.71566 1.18538,-1.07377 0.45149,-0.31568 0.8806,-0.66484 1.35373,-0.94706 1.62179,-0.96739 3.46558,-1.55006 5.32537,-1.83655 1.94436,-0.29954 2.7058,-0.22321 4.68395,-0.22503 1.88844,0.11333 3.78715,0.33522 5.62659,0.80177 0.19474,0.27544 0.39182,0.54914 0.54309,0.84962 0.68015,1.35102 0.84577,2.87326 0.63611,4.35881 -0.20172,1.42919 -0.46659,1.85075 -1.00378,3.20532 -0.31909,0.56617 -0.60962,1.14896 -0.9568,1.69836 -1.84968,2.927 -4.29562,5.42006 -6.65429,7.92826 -0.78036,0.82983 -1.55433,1.66491 -2.33178,2.49745 -3.02836,3.18531 -5.97506,6.46669 -8.55995,10.02795 -1.46967,2.02477 -1.91866,2.82188 -3.23722,4.92847 -1.41906,2.48704 -2.7623,5.02648 -3.87687,7.66692 -1.25971,2.98429 -2.28938,6.06537 -3.33998,9.12692 -0.43115,1.33706 -0.85243,2.6784 -1.2722,4.0204 0.0232,0.25361 -0.053,0.46263 -0.19049,0.60068 -0.68175,2.20732 -1.32631,4.42552 -1.833,6.67996 -0.5211,2.31859 -0.54348,2.7144 -0.90544,5.04455 -0.39379,2.89842 -0.60926,5.82114 -0.51915,8.74685 0.30825,0.27258 0.62224,0.53815 0.94441,0.79469 0.62651,0.50586 1.25727,1.00787 1.91275,1.47598 0.24088,0.16921 0.43885,0.31103 0.68482,0.47132 0.41438,0.26995 0.84435,0.51389 1.27398,0.75837 0.27265,0.15584 0.54768,0.30989 0.8133,0.4784 -0.0405,-0.34833 -0.0833,-0.6964 -0.10802,-1.0463 -0.20871,-2.95971 -0.0585,-5.93275 0.31007,-8.87356 0.32852,-2.29765 0.35639,-2.73804 0.82658,-5.03035 0.7881,-3.84219 1.91659,-7.60603 3.10256,-11.3409 0.88238,-2.58905 1.18696,-3.59549 2.20776,-6.13601 1.44702,-3.60125 3.129,-7.11121 5.05338,-10.48154 1.26383,-2.05976 1.75348,-2.92993 3.15218,-4.91785 2.51639,-3.57645 5.39589,-6.87812 8.42704,-10.0244 0.25524,-0.25599 4.24156,-4.25349 4.62018,-4.63698 0.67535,-0.68405 1.36858,-1.35141 2.01641,-2.06158 1.48641,-1.62953 2.81469,-3.41661 3.8928,-5.34133 0.619,-1.42264 0.9019,-1.83327 1.16765,-3.34797 0.27442,-1.56399 0.17704,-3.20772 -0.42967,-4.68661 -0.18855,-0.45964 -0.47178,-0.87405 -0.70785,-1.31118 -0.33236,-0.37287 -0.57764,-0.84853 -0.99758,-1.11894 -1.71064,-1.1016 -3.48607,-2.09905 -5.27665,-3.06713 z m -26.33275,7.00776 8.8e-4,8.9e-4 8.8e-4,-8.9e-4 z m 8.8e-4,8.9e-4 h -0.002 v 9e-4 z m -0.002,9e-4 c -0.003,0.001 -0.005,0.003 -0.008,0.005 0.003,-10e-4 0.007,-0.002 0.0104,-0.003 -2.2e-4,-2.4e-4 -0.001,-7.7e-4 -0.002,-9e-4 z m 4.30211,0.0682 c -0.0732,0.0783 -0.14675,0.15618 -0.21971,0.23477 0.0104,-0.002 0.0228,-0.002 0.0346,0.002 0.0248,0.008 0.0465,0.0219 0.0663,0.0381 0.003,-0.007 0.005,-0.0154 0.008,-0.0221 0.062,-0.1483 0.086,-0.19743 0.10989,-0.2525 z m -4.06467,0.53775 c -0.001,0.002 -0.002,0.005 -0.003,0.007 h 8.9e-4 c 5.6e-4,-0.002 0.002,-0.005 0.003,-0.007 z m 2.48328,1.34132 c -0.0104,0.0175 -0.0232,0.0338 -0.0336,0.0514 l 0.0921,0.0522 c 0.002,-0.002 0.003,-0.003 0.005,-0.005 -0.0235,-0.0331 -0.044,-0.066 -0.0629,-0.0993 z m 0.92579,0.17806 c 0.0269,0.0243 0.0532,0.0503 0.0788,0.0772 0.0207,-0.0137 0.0415,-0.0259 0.061,-0.0399 -0.0495,-0.007 -0.0967,-0.0173 -0.13989,-0.0372 z m 2.08197,0.73712 c 0.007,0.0104 0.0136,0.0213 0.0204,0.0319 0.003,-0.008 0.007,-0.0183 0.012,-0.0274 -0.012,-0.002 -0.0154,-8e-5 -0.0319,-0.005 z m -11.44721,71.74595 c 0.12687,0.0991 0.25234,0.19999 0.38096,0.2968 l 0.15498,0.0772 c -0.17912,-0.12413 -0.35773,-0.24854 -0.53599,-0.37388 z m 4.67332,2.43899 0.19846,0.0993 c -0.002,-0.0171 -0.003,-0.0336 -0.005,-0.0506 -0.0652,-0.0138 -0.12909,-0.0307 -0.19314,-0.0487 z" />
    <path
       style="display:inline;fill:#000000;stroke-width:0.4536"
       id="path1"
       d="m 138.06151,120.48136 c -1.2795,-1.73169 -2.59128,-3.51357 -4.24329,-4.91832 -2.20492,-1.8749 -7.98639,-4.7456 -8.73282,-5.16691 -3.94419,-1.40188 -8.13781,-1.91181 -12.2857,-2.29807 -3.20229,-0.19432 -5.8631,0.16852 -8.1848,2.63736 -0.4977,0.52925 -0.87148,1.16265 -1.30721,1.74397 -1.9659,3.57653 -3.06339,7.66574 -3.19627,11.75297 -0.0274,0.8411 0.0393,1.68263 0.059,2.52393 1.00732,5.58192 3.38582,10.89551 6.61175,15.55132 0.61046,0.88108 1.28657,1.7148 1.92985,2.57221 3.83241,4.91558 8.7432,8.78076 13.62656,12.58496 2.43533,1.81209 1.26207,0.94996 3.5174,2.58965 0,0 6.21882,2.45995 6.21882,2.45995 v 0 c -2.2971,-1.64621 -1.10161,-0.78309 -3.58482,-2.59165 -4.89077,-3.77857 -9.84473,-7.5772 -13.72697,-12.44063 -1.54435,-1.99738 -2.49358,-3.10124 -3.79283,-5.2897 -2.28104,-3.84218 -4.06607,-8.03028 -4.86777,-12.43626 -0.0307,-0.8184 -0.10954,-1.63641 -0.0923,-2.45521 0.0833,-3.96081 1.12127,-7.94921 3.03937,-11.40678 0.4144,-0.53019 0.77074,-1.11138 1.24321,-1.59056 2.13408,-2.16438 5.00562,-2.48424 7.8803,-2.22245 4.11232,0.40725 8.29498,0.92363 12.14374,2.50758 -1.37351,-0.83208 -2.73364,-1.68663 -4.1205,-2.49622 -0.48401,-0.28254 0.96879,0.56998 1.41085,0.91446 1.67705,1.30685 2.99427,3.07171 4.23704,4.77087 z" />
    <path
       style="display:inline;fill:#000000;stroke-width:0.4536"
       id="path2"
       d="m 117.13671,156.18019 c -1.18402,-0.45096 -2.43391,-0.72022 -3.6769,-0.95362 -0.98157,-0.21643 -1.98061,-0.241 -2.98047,-0.24721 -0.66778,0.0194 -1.33808,-0.0375 -2.00433,0.0276 -0.0775,0.007 -0.76506,0.10595 -0.8554,0.11881 -0.71596,0.0922 -1.34682,0.41591 -1.97525,0.74647 -0.65031,0.3145 -1.1519,0.82833 -1.57611,1.40132 -0.45301,0.61029 -0.70673,1.30647 -0.85029,2.04497 -0.13698,0.78498 -0.0287,1.33856 0.34603,2.03368 0.37209,0.49272 0.81193,0.97793 1.35328,1.29162 6.00691,3.48091 3.99996,2.67054 6.67291,3.71373 0.96199,0.30202 1.9368,0.55844 2.9293,0.73656 0.99834,0.11195 1.99701,0.20235 2.98598,0.38265 1.18474,0.20974 2.38359,0.2967 3.58318,0.36627 1.15769,0.13475 2.32429,0.14007 3.48495,0.22753 0.93051,0.0854 1.86188,0.18904 2.78853,0.31269 0.56933,0.1344 1.1579,0.14984 1.72924,0.2707 0.25598,0.0542 0.50776,0.12652 0.76268,0.18539 0.5986,0.14984 1.19889,0.27106 1.81272,0.33594 0.30696,0.0232 0.15687,0.0138 0.45023,0.0279 0,0 -5.46124,-4.03069 -5.46124,-4.03069 v 0 c -0.271,-0.0285 -0.13252,-0.012 -0.41562,-0.0494 -0.58675,-0.0934 -1.1625,-0.23945 -1.74496,-0.35562 -0.83353,-0.17041 -1.67994,-0.26873 -2.5204,-0.39818 -0.92158,-0.0996 -1.84346,-0.20301 -2.7695,-0.25092 -1.15657,-0.0585 -2.31244,-0.12327 -3.46697,-0.2147 -1.20245,-0.0828 -2.39657,-0.22729 -3.58203,-0.44821 -0.98912,-0.14538 -1.98965,-0.209 -2.97153,-0.40194 -0.96228,-0.21591 -1.92538,-0.45719 -2.83636,-0.84129 -2.32932,-1.10824 -0.26987,-0.144 4.8083,2.84482 0.13989,0.0825 -0.29658,-0.13441 -0.43541,-0.21864 -0.35762,-0.21711 -0.68237,-0.50665 -0.97501,-0.80263 -0.45024,-0.46909 -0.64456,-0.89476 -0.56203,-1.55369 0.0841,-0.64155 0.26166,-1.24724 0.66889,-1.76541 0.39177,-0.48457 0.85989,-0.88173 1.43411,-1.13714 0.57895,-0.28384 1.16862,-0.52173 1.81979,-0.57655 0.922,-0.11316 1.84887,-0.10886 2.77665,-0.0796 0.96135,0.0353 1.92009,0.11486 2.86478,0.30619 1.26851,0.26647 2.53351,0.5818 3.7077,1.1457 z" />
    <path
       style="display:inline;fill:#000000;stroke-width:0.4536"
       id="path12"
       d="m 48.568768,117.03949 c -3.771841,-2.09945 7.194392,4.21882 3.615952,2.09476 -0.242622,-0.14401 -0.483426,-0.29113 -0.727864,-0.43201 -2.123862,-1.22422 -4.251341,-2.44222 -6.377003,-3.66331 -1.585129,-0.88845 -3.287833,-1.51328 -5.003445,-2.09401 -1.383981,-0.47063 -2.79054,-0.89264 -4.238158,-1.11159 -0.579706,-0.09 -1.161022,-0.13509 -1.746248,-0.16852 -0.151896,-0.008 -0.303808,-0.0341 -0.455772,-0.0261 -0.143153,0.007 -0.282619,0.0485 -0.423919,0.0727 -0.797417,0.24205 -1.025655,0.66735 -1.17743,1.4437 -0.06206,0.70927 -0.0696,1.4227 -0.02315,2.13296 0.03909,0.69805 0.150868,1.38227 0.329405,2.0574 0.22618,0.81311 0.669797,1.5345 1.125311,2.23588 0.400844,0.64709 0.859719,1.25105 1.365482,1.81874 0.543601,0.65737 1.144479,1.26418 1.742598,1.87136 0.747802,0.76994 1.605497,1.41593 2.426812,2.10239 0.440771,0.36241 0.850787,0.76796 1.318079,1.09686 0.30626,0.24393 0.568922,0.52008 0.91031,0.71866 1.996225,1.14255 3.992449,2.28509 5.988674,3.42765 0,0 -5.301271,-4.24899 -5.301271,-4.24899 v 0 c 1.884378,1.08527 3.768739,2.17051 5.653099,3.25576 -0.168011,-0.0966 -0.341336,-0.18202 -0.512895,-0.27155 -0.05451,-0.0285 -0.118122,-0.0396 -0.168182,-0.0751 -0.104921,-0.0742 -0.160639,-0.20549 -0.269692,-0.27562 -0.333381,-0.30278 0.03446,0.0154 -0.357503,-0.26909 -0.362303,-0.26235 -0.703416,-0.55975 -1.045833,-0.84656 -0.811526,-0.68769 -1.680725,-1.30344 -2.445242,-2.04428 -0.590369,-0.59302 -1.182761,-1.18483 -1.74306,-1.80666 -0.07663,-0.0995 -0.147609,-0.20331 -0.229695,-0.29815 -0.56011,-0.64672 0.05144,0.13236 -0.513324,-0.54126 -0.165439,-0.1973 -0.299162,-0.40375 -0.446634,-0.61397 -0.07047,-0.10052 -0.141952,-0.20027 -0.212996,-0.30043 -0.43844,-0.6606 -0.917374,-1.30162 -1.208066,-2.04603 -0.188789,-0.63548 -0.339022,-1.27216 -0.360949,-1.93819 -0.08109,-0.65577 -0.103032,-1.31491 -0.04406,-1.9745 0.05914,-0.51703 0.128751,-0.64839 0.679878,-0.70853 0.83719,-4.6e-4 1.664986,0.12498 2.492611,0.24012 1.37786,0.25246 2.724552,0.63611 4.04479,1.10443 1.707453,0.60838 3.38504,1.29866 4.959574,2.2047 -1.622778,-0.9409 -3.245041,-1.8827 -4.868351,-2.82267 -0.238781,-0.13835 0.478334,0.27528 0.714766,0.41756 0.2203,0.13252 0.43297,0.27777 0.655259,0.40696 2.371591,1.3784 4.747246,2.81416 7.177642,4.11339 z" />
    <path
       style="display:inline;fill:#000000;stroke-width:0.420497"
       id="path12-8"
       d="m 79.99213,115.80523 c 2.779461,-2.4484 -5.301495,4.92004 -2.664563,2.44294 0.178786,-0.168 0.356226,-0.33952 0.536346,-0.50382 1.565074,-1.42772 3.132797,-2.84815 4.699196,-4.2722 1.168068,-1.03613 2.422766,-1.76482 3.687005,-2.44206 1.019845,-0.54887 2.056332,-1.04101 3.123069,-1.29634 0.427151,-0.10492 0.855554,-0.15756 1.286803,-0.1965 0.111957,-0.0104 0.223768,-0.0397 0.33584,-0.0303 0.105607,0.008 0.20819,0.0565 0.31241,0.0849 0.587595,0.28228 0.755786,0.77827 0.867587,1.68364 0.04578,0.8272 0.0513,1.65919 0.0171,2.48752 -0.02899,0.81409 -0.111259,1.61201 -0.242736,2.39935 -0.166648,0.94828 -0.493541,1.78957 -0.829204,2.60752 -0.295393,0.75465 -0.633537,1.45901 -1.006227,2.12104 -0.400594,0.76664 -0.843386,1.47431 -1.284103,2.18241 -0.551047,0.89793 -1.183094,1.65127 -1.7883,2.45185 -0.324819,0.42264 -0.626958,0.89561 -0.971317,1.27917 -0.225666,0.28449 -0.419217,0.6065 -0.670784,0.83811 -1.47101,1.33247 -2.942011,2.66491 -4.413011,3.99737 0,0 3.906477,-4.95521 3.906477,-4.95521 v 0 c -1.388593,1.26561 -2.777166,2.53127 -4.16575,3.79691 0.123782,-0.11264 0.251536,-0.21228 0.377946,-0.31671 0.04014,-0.0331 0.08707,-0.0461 0.123948,-0.0876 0.07737,-0.0865 0.118464,-0.23966 0.198733,-0.32145 0.245675,-0.3531 -0.02534,0.0171 0.263433,-0.31382 0.266979,-0.30595 0.518348,-0.65279 0.770676,-0.98727 0.598012,-0.802 1.238525,-1.52009 1.801877,-2.38406 0.435045,-0.69158 0.871581,-1.38178 1.284457,-2.10697 0.05641,-0.11589 0.108694,-0.23709 0.169213,-0.34768 0.412741,-0.75423 -0.03785,0.15429 0.378269,-0.63125 0.121894,-0.23008 0.220431,-0.47085 0.329125,-0.71601 0.05193,-0.11726 0.104574,-0.23357 0.156867,-0.35037 0.323098,-0.77041 0.676007,-1.51796 0.890214,-2.3861 0.139037,-0.74109 0.249826,-1.48362 0.265988,-2.26036 0.05985,-0.76478 0.07612,-1.53345 0.03243,-2.30269 -0.04359,-0.60296 -0.09499,-0.75615 -0.500987,-0.8263 -0.616937,-5.1e-4 -1.22694,0.14572 -1.836797,0.28004 -1.015331,0.29441 -2.007711,0.74185 -2.980581,1.28799 -1.258233,0.70951 -2.494433,1.51452 -3.654701,2.57116 1.195825,-1.09729 2.391265,-2.19563 3.587476,-3.29183 0.17597,-0.16132 -0.352492,0.32102 -0.52671,0.48696 -0.162352,0.15463 -0.319052,0.32393 -0.482864,0.4746 -1.747614,1.60751 -3.49822,3.28192 -5.289163,4.79709 z" />
    <path
       style="display:inline;fill:#000000;stroke-width:0.4536"
       id="path13"
       d="m 42.542531,129.52429 c -0.752363,0.42743 -1.310878,1.09219 -1.792298,1.79608 -0.522976,0.80069 -0.783324,1.69639 -0.912024,2.6336 -0.06652,1.1188 0.16664,2.22233 0.521245,3.27675 0.389014,1.10151 0.985846,2.09555 1.657563,3.0437 0.921334,1.28377 1.966686,2.46086 3.062562,3.59599 1.411702,1.42018 2.930279,2.72702 4.498522,3.96991 1.203781,0.95182 2.529848,1.72444 3.843315,2.51054 1.269493,0.7991 2.543357,1.59117 3.818027,2.38201 2.672143,1.63285 5.399403,3.17469 8.131566,4.70423 1.125364,0.63 0.02846,0.0466 1.097814,0.60603 0.151723,0.0822 0.604684,0.33251 0.455309,0.2462 -1.777315,-1.02714 -7.101198,-4.12195 -5.339262,-3.06867 2.010111,1.20162 4.060768,2.33414 6.083858,3.51377 1.816933,1.05943 -7.275552,-4.22398 -5.465338,-3.15314 0.278503,0.16476 15.079956,8.71623 0.442536,0.25864 0,0 6.314102,2.45992 6.314102,2.45992 v 0 c -1.995436,-1.16214 -3.990873,-2.32427 -5.986309,-3.48642 1.839958,1.06499 7.355939,4.26655 5.519856,3.19493 -2.013232,-1.17502 -4.044567,-2.31902 -6.051302,-3.5051 -1.789846,-1.05786 7.217194,4.13165 5.400552,3.12049 -2.059486,-1.14634 -4.08345,-2.3554 -6.129204,-3.52605 -0.142123,-0.0814 -0.289647,-0.15327 -0.434462,-0.22996 -0.536915,-0.29494 -0.504118,-0.27561 -1.062257,-0.58804 -0.201373,-0.1128 -0.803194,-0.45496 -0.603535,-0.33921 9.135653,5.29637 5.780512,3.35681 3.795157,2.18272 -1.273796,-0.78933 -2.559576,-1.56046 -3.809885,-2.38667 -1.320477,-0.80704 -2.687742,-1.53918 -3.934588,-2.46183 -0.130123,-0.10031 -1.361282,-1.04865 -1.469562,-1.13707 -1.068635,-0.87266 -2.097067,-1.79904 -3.08869,-2.7576 -0.584643,-0.60927 -1.191985,-1.21052 -1.730082,-1.8626 -0.433519,-0.52533 -0.823853,-1.08833 -1.273401,-1.60139 -0.644939,-0.90848 -1.291386,-1.81944 -1.68424,-2.87287 -0.409535,-0.9394 -0.648418,-1.93973 -0.646121,-2.96983 0.09875,-0.83427 0.286012,-1.63835 0.751283,-2.35386 0.461274,-0.64697 1.005595,-1.19504 1.736441,-1.53458 z" />
    <path
       style="display:inline;fill:#000000;stroke-width:0.4536"
       id="path14"
       d="m 50.921604,149.53272 c -1.463442,-0.0599 -2.926542,-0.14436 -4.391441,-0.1471 -0.794279,-0.0154 -1.610571,0.0583 -2.342378,0.39491 -0.362423,0.16665 -0.557368,0.33185 -0.875199,0.56308 -0.766626,0.66442 -1.153102,1.38974 -1.382043,2.36291 -0.144524,0.8776 -0.02263,1.75557 0.349222,2.5635 0.08435,0.18323 0.188447,0.3567 0.28267,0.53506 0.333467,0.49259 0.766592,1.18425 1.285882,1.50036 1.696326,1.03267 4.621016,3.30819 7.211948,3.97267 0.35308,0.0905 0.714046,0.14692 1.071069,0.2203 1.987635,0.34897 4.001809,0.49104 6.016259,0.55384 1.000744,0.0219 2.00171,0.0266 3.002609,0.0378 0,0 -5.432525,-3.94183 -5.432525,-3.94183 v 0 c -0.96313,0.0239 -1.92674,0.0351 -2.890076,0.0154 -1.960703,-0.0516 -3.930629,-0.15927 -5.84782,-0.60494 -0.356046,-0.10526 -0.719172,-0.18922 -1.068154,-0.31605 -0.296523,-0.10766 -1.132119,-0.55257 -0.86409,-0.38617 1.627287,1.01023 3.287714,1.96645 4.947986,2.92149 0.192406,0.11075 -0.370464,-0.246 -0.541904,-0.38697 -0.157553,-0.12961 -0.305573,-0.27165 -0.442708,-0.42274 -0.130808,-0.14418 -0.23945,-0.30715 -0.359184,-0.46072 -0.569659,-0.8517 -0.913395,-1.57428 -0.800296,-2.62344 0.156182,-0.80551 0.437839,-1.42324 1.10858,-1.93576 0.307562,-0.19726 0.406516,-0.28505 0.754539,-0.41008 0.690061,-0.24789 1.43651,-0.25439 2.159487,-0.26697 1.490821,0.008 2.987489,0.0716 4.462554,0.29957 z" />
    <path
       style="display:inline;fill:#000000;stroke:url(#linearGradient19);stroke-width:0.339516"
       id="path13-5"
       d="m 85.971926,127.96376 c 0.419299,0.42965 0.730583,1.09791 0.998876,1.80552 0.291441,0.80486 0.436546,1.70529 0.508265,2.64742 0.03702,1.12466 -0.0927,2.23399 -0.290503,3.29393 -0.216792,1.1073 -0.549421,2.10658 -0.923758,3.0597 -0.513479,1.2905 -1.096058,2.47379 -1.706802,3.61487 -0.786765,1.42761 -1.633081,2.74135 -2.50708,3.99075 -0.670888,0.95682 -1.409897,1.73349 -2.141909,2.52373 -0.707519,0.80329 -1.417446,1.59952 -2.127842,2.39451 -1.489224,1.64143 -3.009139,3.19137 -4.531814,4.72892 -0.627176,0.63332 -0.01543,0.0468 -0.611833,0.60923 -0.08452,0.0827 -0.336998,0.33426 -0.253731,0.24748 0.99051,-1.03252 3.957562,-4.14358 2.975625,-3.08479 -1.120272,1.20794 -2.263104,2.34641 -3.390594,3.53224 -1.012608,1.06498 4.054751,-4.24617 3.045881,-3.16969 -0.155153,0.1656 -8.404224,8.76198 -0.246616,0.25998 0,0 -3.518934,2.47283 -3.518934,2.47283 v 0 c 1.112095,-1.16823 2.224154,-2.33646 3.336248,-3.50471 -1.025414,1.07058 -4.099565,4.28894 -3.076294,3.2117 1.122004,-1.18119 2.254087,-2.3312 3.372455,-3.52349 0.997504,-1.06342 -4.022211,4.15333 -3.009775,3.13684 1.147788,-1.15234 2.275757,-2.36774 3.415882,-3.54454 0.07921,-0.0817 0.161495,-0.15412 0.242124,-0.23117 0.29923,-0.29649 0.280938,-0.27705 0.591997,-0.59113 0.112293,-0.11331 0.44763,-0.45735 0.336383,-0.34099 -5.091429,5.32417 -3.221556,3.37443 -2.115102,2.19419 0.709914,-0.79348 1.42648,-1.56866 2.123296,-2.39921 0.735924,-0.81127 1.497914,-1.54726 2.192785,-2.47474 0.07247,-0.10084 0.758664,-1.05416 0.819016,-1.14305 0.595562,-0.87725 1.168715,-1.8085 1.721358,-2.77211 0.32582,-0.61245 0.664288,-1.21685 0.964185,-1.87235 0.241609,-0.52813 0.459153,-1.09405 0.709698,-1.60981 0.359416,-0.91324 0.719687,-1.829 0.938628,-2.88794 0.228241,-0.94435 0.361376,-1.94995 0.360093,-2.98542 -0.05505,-0.83867 -0.159442,-1.64695 -0.418705,-2.36624 -0.257062,-0.65036 -0.560422,-1.20129 -0.96773,-1.54264 z" />
    <path
       style="display:inline;fill:#000000;stroke-width:0.507763"
       id="path17"
       d="m 158.61564,104.70932 c -0.34431,-1.68952 -0.6577,-3.41793 -1.25001,-5.018883 -0.18511,-0.500225 -0.41202,-0.977114 -0.618,-1.465672 -1.32325,-1.802082 -1.6593,-2.443351 -3.38236,-3.926595 -0.9164,-0.788862 -1.88669,-1.485403 -2.8668,-2.152458 -4.9106,-3.34211 -10.31847,-5.471664 -15.55551,-7.859079 -6.01086,-2.247247 -12.2142,-3.691643 -18.45061,-4.521993 -1.21581,-0.161839 -2.4354,-0.270343 -3.65311,-0.405524 -5.54462,-0.45332 -11.1145,-0.500963 -16.648497,-0.04029 -0.945874,0.07869 -1.888965,0.192989 -2.833494,0.289492 -4.312274,0.550201 -8.597144,1.514 -12.756252,2.95327 -0.7327,0.253524 -1.456694,0.540599 -2.185036,0.810908 -2.58359,1.042147 -5.107386,2.292455 -7.556229,3.718986 -1.20906,0.704308 -1.973184,1.202512 -3.153493,1.949509 -1.623207,1.109025 -3.28569,2.232657 -4.645155,3.792533 -0.699096,0.802166 -0.842797,1.108341 -1.406747,2.015187 -0.534206,0.912041 -0.793181,1.962018 -1.052398,3.018964 0,0 6.306198,2.915265 6.306198,2.915265 v 0 c 0.218465,-0.972715 0.429918,-1.939882 0.908252,-2.783517 0.188463,-0.313745 0.36076,-0.64262 0.56539,-0.941266 1.381357,-2.016114 3.308252,-3.360525 5.153867,-4.669826 3.369796,-2.194032 6.833908,-4.199601 10.489475,-5.641374 1.808863,-0.684712 2.552856,-1.000709 4.413459,-1.562122 3.381132,-1.02022 6.832888,-1.721955 10.305305,-2.163704 0.92398,-0.101321 1.846515,-0.220162 2.771965,-0.303825 5.4534,-0.49294 10.94389,-0.466538 16.40996,0.0069 1.21125,0.140237 2.42441,0.254999 3.63375,0.420695 6.21669,0.85178 12.39645,2.323005 18.37278,4.638193 -0.58682,-0.331255 -2.36597,-1.270537 -1.76051,-0.993749 1.15194,0.526612 2.28437,1.118301 3.40245,1.744364 1.83792,1.029117 4.12584,2.465883 5.80267,3.904346 1.5216,1.305239 1.89208,1.943508 3.06469,3.502767 0.19477,0.45315 0.41051,0.894481 0.58459,1.359379 0.55386,1.479415 0.87406,3.143919 0.99598,4.748589 z" />
    <path
       id="path15"
       style="display:inline;fill:#000000;stroke-width:0.4536"
       d="m 156.60024,106.22798 c -1.97169,0.024 -2.89635,-0.0351 -4.84343,0.26757 -2.55885,0.39772 -4.96365,1.34434 -6.9927,2.967 -0.41327,0.37766 -0.8501,0.73168 -1.24032,1.13311 -0.37509,0.38586 -0.71245,0.80659 -1.05161,1.22437 -1.00974,1.24376 -1.88237,2.58604 -2.72513,3.94597 l 5.89059,3.32936 c 0.50981,-1.47107 1.32844,-2.82206 2.28484,-4.0452 0.32197,-0.41177 0.65211,-0.81917 1.01618,-1.19425 0.3713,-0.38255 0.79042,-0.71566 1.18539,-1.07374 0.45147,-0.31569 0.88058,-0.66486 1.3537,-0.94707 1.6218,-0.96738 3.46558,-1.55005 5.32537,-1.83656 1.94437,-0.29953 2.70582,-0.2232 4.68397,-0.22503 1.88844,0.11314 3.78715,0.33523 5.6266,0.80179 0.19473,0.27541 0.39178,0.54914 0.54306,0.8496 0.68016,1.35101 0.84576,2.87327 0.63611,4.35882 -0.20171,1.42918 -0.46658,1.85074 -1.00377,3.20533 -0.31911,0.56616 -0.60963,1.14895 -0.95681,1.69833 -1.84968,2.92703 -4.29563,5.42008 -6.65429,7.92827 -0.78036,0.82982 -1.55432,1.66491 -2.33179,2.49747 -3.02835,3.18531 -5.97506,6.46666 -8.55994,10.02792 -1.46966,2.02479 -1.91866,2.82188 -3.23722,4.92848 -1.41905,2.48704 -2.7623,5.02647 -3.87687,7.66691 -1.25972,2.98431 -2.28938,6.0654 -3.33998,9.12694 -0.43116,1.33707 -0.85243,2.67839 -1.2722,4.02039 0.0231,0.25361 -0.053,0.46262 -0.19049,0.60067 -0.68174,2.20732 -1.3263,4.42552 -1.83299,6.67997 -0.52111,2.31858 -0.54347,2.7144 -0.90543,5.04454 -0.39997,2.94379 -0.61965,5.91259 -0.51828,8.88418 0.0202,0.59441 0.0722,1.18798 0.10801,1.78164 l 5.59559,2.79335 c -0.0612,-0.59354 -0.14229,-1.18465 -0.18428,-1.77985 -0.2087,-2.95972 -0.0585,-5.93275 0.31009,-8.87355 0.32853,-2.29765 0.35639,-2.73805 0.82657,-5.03037 0.78812,-3.84218 1.9166,-7.60601 3.10256,-11.3409 0.88239,-2.58904 1.18696,-3.59547 2.20775,-6.13601 1.44703,-3.60124 3.12901,-7.11119 5.05341,-10.48152 1.26382,-2.05976 1.75346,-2.92992 3.15217,-4.91784 2.51639,-3.57646 5.39589,-6.87814 8.42704,-10.0244 0.25524,-0.25601 4.24154,-4.2535 4.62016,-4.63701 0.67535,-0.68405 1.36859,-1.35141 2.01641,-2.06158 1.48641,-1.62951 2.81469,-3.4166 3.89281,-5.34132 0.619,-1.42264 0.9019,-1.83326 1.16767,-3.34796 0.2744,-1.56401 0.17703,-3.20774 -0.42968,-4.68662 -0.18855,-0.45963 -0.4718,-0.87404 -0.70787,-1.31119 -0.33236,-0.37285 -0.57762,-0.84851 -0.99756,-1.11894 -2.17816,-1.40266 -4.44999,-2.65764 -6.742,-3.86534 -0.51118,-0.26936 -1.08569,-0.40178 -1.64341,-0.55282 -2.21037,-0.59867 -4.50883,-0.82396 -6.78807,-0.93291 z" />
  </g>
</svg>
