<?xml version="1.0" encoding="UTF-8" standalone="no"?>
<!-- Created with Inkscape (http://www.inkscape.org/) -->

<svg
   width="107.09665mm"
   height="107.09665mm"
   viewBox="0 0 107.09665 107.09665"
   version="1.1"
   id="svg1"
   inkscape:version="1.4 (86a8ad7, 2024-10-11)"
   sodipodi:docname="AppLogoCircle.svg"
   xmlns:inkscape="http://www.inkscape.org/namespaces/inkscape"
   xmlns:sodipodi="http://sodipodi.sourceforge.net/DTD/sodipodi-0.dtd"
   xmlns:xlink="http://www.w3.org/1999/xlink"
   xmlns="http://www.w3.org/2000/svg"
   xmlns:svg="http://www.w3.org/2000/svg">
  <sodipodi:namedview
     id="namedview1"
     pagecolor="#505050"
     bordercolor="#ffffff"
     borderopacity="1"
     inkscape:showpageshadow="0"
     inkscape:pageopacity="0"
     inkscape:pagecheckerboard="1"
     inkscape:deskcolor="#505050"
     inkscape:document-units="mm"
     inkscape:zoom="1.4378367"
     inkscape:cx="197.17121"
     inkscape:cy="155.09411"
     inkscape:window-width="1278"
     inkscape:window-height="1000"
     inkscape:window-x="-7"
     inkscape:window-y="0"
     inkscape:window-maximized="0"
     inkscape:current-layer="layer5" />
  <defs
     id="defs1">
    <linearGradient
       id="linearGradient18"
       inkscape:collect="always">
      <stop
         style="stop-color:#000000;stop-opacity:1;"
         offset="0"
         id="stop18" />
      <stop
         style="stop-color:#000000;stop-opacity:0;"
         offset="1"
         id="stop19" />
    </linearGradient>
    <linearGradient
       inkscape:collect="always"
       xlink:href="#linearGradient18"
       id="linearGradient19"
       x1="86.514572"
       y1="99.916084"
       x2="96.030312"
       y2="99.916084"
       gradientUnits="userSpaceOnUse"
       gradientTransform="translate(-0.36802972,0.09200743)" />
    <linearGradient
       inkscape:collect="always"
       xlink:href="#linearGradient18"
       id="linearGradient20"
       gradientUnits="userSpaceOnUse"
       x1="86.514572"
       y1="99.916084"
       x2="96.030312"
       y2="99.916084"
       gradientTransform="translate(-1.7058889,1.3443191)" />
  </defs>
  <g
     inkscape:groupmode="layer"
     id="layer4"
     inkscape:label="Layer 3"
     transform="translate(-51.694328,-43.131095)">
    <g
       inkscape:groupmode="layer"
       id="layer5"
       inkscape:label="Layer 4"
       transform="translate(63.28727,62.636664)">
      <circle
         style="fill:#603948;fill-opacity:1;stroke-width:0.248367"
         id="path3"
         cx="105.24265"
         cy="96.67942"
         r="53.548325"
         transform="translate(-63.28727,-62.636665)" />
    </g>
    <g
       inkscape:groupmode="layer"
       id="layer2"
       inkscape:label="Layer 2"
       style="display:inline;fill:none" />
    <path
       id="path1-2"
       style="display:inline;fill:#782144;stroke-width:0.264583"
       d="m 112.71198,81.926265 v 5.17e-4 c -1.56692,-0.01574 -2.90316,0.303677 -4.08812,1.563729 -0.29031,0.308705 -0.50858,0.678427 -0.76274,1.017509 -1.1467,2.086178 -1.78698,4.471338 -1.86449,6.855396 -0.016,0.490606 0.0231,0.981531 0.0346,1.472261 0.58756,3.255915 1.97495,6.355061 3.85662,9.070763 0.35608,0.51393 0.75029,1.00056 1.12551,1.50068 1.47038,1.88597 3.21926,3.4986 5.05189,5.01624 0.0346,-0.009 0.0716,-0.0142 0.1111,-0.0155 0.13143,-0.004 0.28822,0.0339 0.46147,0.13229 0.45235,0.25694 0.90437,0.51501 1.35754,0.7705 0.59213,0.34654 1.17096,0.72476 1.79731,1.00717 0.14264,0.0643 0.25,0.14277 0.32711,0.22635 0.26045,0.11665 0.52055,0.23409 0.7829,0.34623 -2.29371,-1.79981 -4.5326,-3.67702 -6.35982,-5.96605 -0.90081,-1.16506 -1.45442,-1.80907 -2.21227,-3.08559 -1.33052,-2.241186 -2.37147,-4.683833 -2.8391,-7.253826 -0.0179,-0.477369 -0.0644,-0.954354 -0.0543,-1.431954 0.0486,-2.310328 0.6542,-4.637076 1.77302,-6.653857 0.24172,-0.309256 0.44943,-0.648094 0.72502,-0.927592 1.2448,-1.262473 2.91983,-1.449258 4.59662,-1.296562 2.07506,0.205501 4.18065,0.460746 6.16448,1.123446 0.16874,0.165625 0.3312,0.338172 0.48886,0.515731 -0.11603,-0.302709 0.0628,-0.562906 0.36638,-0.558622 0.006,7.9e-5 0.0123,0.0028 0.0181,0.0031 0.0241,-0.138621 0.0869,-0.240442 0.16898,-0.302824 0.004,-0.0082 0.007,-0.01753 0.0124,-0.02532 -1.38473,-0.814716 -2.904,-1.578207 -3.18688,-1.737879 -2.30063,-0.817708 -4.74704,-1.115193 -7.16649,-1.340486 -0.23349,-0.01417 -0.4619,-0.02359 -0.68575,-0.02584 z m 10.87479,4.445207 c -0.004,3.37e-4 -0.0139,0.0012 -0.0176,0.0016 0.0212,0.02689 0.0426,0.05363 0.0636,0.08062 0.0243,0.0044 0.0486,0.009 0.0729,0.01344 -0.0397,-0.03172 -0.0793,-0.0637 -0.11886,-0.0956 z m 4.26641,2.428276 c 0.002,0.0048 0.005,0.0097 0.007,0.01447 0.001,4.94e-4 0.003,0.0011 0.005,0.0015 -0.004,-0.0053 -0.008,-0.01068 -0.0119,-0.01602 z m 0.15296,0.311609 c 0.002,0.0036 0.003,0.0072 0.005,0.01085 l 0.12144,0.05271 c -0.006,-0.0079 -0.0117,-0.01588 -0.0176,-0.02377 -0.0363,-0.01351 -0.0728,-0.02632 -0.10904,-0.03979 z m -5.46323,23.742733 c 4.5e-4,0.003 10e-4,0.007 0.002,0.0103 l 0.0878,0.0346 c -0.0282,-0.0172 -0.0597,-0.0299 -0.0894,-0.045 z m 1.91771,0.709 c 0.015,0.0254 0.0283,0.0507 0.0403,0.0755 l 0.14004,0.0553 c -0.11565,-0.0829 -0.0924,-0.0677 -0.18035,-0.13075 z" />
    <path
       id="path13-1"
       style="display:inline;fill:#782144;stroke-width:0.264583"
       d="m 72.252954,93.425822 c 0.0034,0.0026 0.0069,0.0051 0.01033,0.0078 5.18e-4,-5.7e-5 0.001,3.2e-5 0.0016,0 z m 0.0677,0.04341 c 0.0034,0.0034 0.0069,0.0067 0.01034,0.0098 0.008,0.0037 0.01338,0.0066 0.02119,0.01033 z m -0.259415,0.01395 c 0.004,0.0043 0.0079,0.0087 0.01189,0.01292 4.83e-4,-8.64e-4 0.0011,-0.0017 0.0015,-0.0026 -0.0045,-0.0034 -0.0089,-0.0069 -0.01344,-0.01033 z m -0.392741,0.03462 c -0.272383,0.228135 -0.499067,0.507907 -0.700216,0.802018 -0.305049,0.467032 -0.456688,0.989152 -0.53175,1.535824 -0.03879,0.652587 0.097,1.296471 0.303857,1.911511 0.226904,0.64251 0.575063,1.222552 0.966866,1.775602 0.537417,0.748823 1.147233,1.435433 1.786454,2.097553 0.823438,0.82838 1.709375,1.59065 2.624129,2.31562 0.70216,0.55519 1.475589,1.00546 2.241724,1.46399 0.740497,0.46611 1.483231,0.92829 2.226738,1.38958 1.55866,0.95244 3.149729,1.85185 4.743379,2.74402 0.592046,0.33144 0.218554,0.13364 0.57981,0.32194 0.0093,0.005 -0.200379,-0.11642 -0.21084,-0.12247 0.09631,0.0557 0.125033,0.0724 0.220658,0.12764 0.01484,0.008 0.0038,0.002 0.02119,0.0109 0.24321,0.1395 0.487471,0.27736 0.729671,0.41858 0.213346,0.1244 -0.442697,-0.25599 -0.641305,-0.37103 0.10934,0.0599 0.274495,0.15079 0.206706,0.11162 -0.541564,-0.31298 -1.623155,-0.94089 -2.409672,-1.39527 l 3.597197,1.40147 -2.00608,-1.16841 c -0.63864,-0.36904 -1.277009,-0.73823 -1.916162,-1.10639 -0.516441,-0.31757 -1.032635,-0.63626 -1.538407,-0.97048 -0.77023,-0.47074 -1.567675,-0.89791 -2.29495,-1.43609 -0.07585,-0.0585 -0.793632,-0.61143 -0.856796,-0.66301 -0.623332,-0.50902 -1.223552,-1.04956 -1.801957,-1.60869 -0.341025,-0.35538 -0.695369,-0.70588 -1.009241,-1.08623 -0.252873,-0.30643 -0.480375,-0.63504 -0.74259,-0.93431 -0.376198,-0.52991 -0.753218,-1.0609 -0.982369,-1.675358 -0.238881,-0.54795 -0.378062,-1.131861 -0.376721,-1.732711 0.05756,-0.48663 0.166828,-0.955157 0.438216,-1.372526 0.206493,-0.289616 0.444942,-0.541644 0.735872,-0.734322 -0.0094,-0.005 -0.0051,-0.0024 -0.01499,-0.0078 -0.12871,-0.07095 -0.257812,-0.141057 -0.386023,-0.212907 -0.466767,-0.261576 -0.925945,-0.537314 -1.399914,-0.785998 -0.213453,-0.11876 -0.308257,-0.168882 -0.515731,-0.294039 -0.265999,-0.160461 -0.523214,-0.334416 -0.77463,-0.516764 -0.128703,-0.09393 -0.184303,-0.132437 -0.306958,-0.228927 -0.0017,-0.0014 -0.0034,-0.0028 -0.0052,-0.0041 z m 13.748514,15.370638 c 0.182436,0.10543 0.365869,0.20914 0.548804,0.31368 0.395518,0.22754 0.791376,0.45471 1.185458,0.68471 0.33,0.1926 -0.696062,-0.40281 -0.992188,-0.57412 0.204361,0.11617 0.406959,0.23552 0.612366,0.34985 1.05963,0.58981 -4.194196,-2.43761 -3.150196,-1.82056 0.281571,0.16642 0.565645,0.32882 0.848527,0.49299 -0.269317,-0.1561 -0.358994,-0.20773 -0.538468,-0.31161 z M 72.175956,93.595837 c -0.0011,2.98e-4 -6.43e-4,2.47e-4 -0.0015,5.17e-4 0.0014,0.0013 0.0027,0.0028 0.0041,0.0041 0.0037,-3.59e-4 0.0063,-5.39e-4 0.0093,-0.001 -0.004,-0.0011 -0.0078,-0.0026 -0.01189,-0.0036 z m 1.241268,0.810287 c 1.44e-4,5.26e-4 3.67e-4,10e-4 5.17e-4,0.0015 0.02696,0.01414 0.05367,0.02873 0.08061,0.04289 -0.02738,-0.01421 -0.0539,-0.02996 -0.08113,-0.04444 z m 0.08113,0.04444 c 0.01958,0.01029 0.03882,0.02122 0.05839,0.03152 0.178532,0.0923 0.356255,0.18599 0.534852,0.278019 -0.0044,-0.005 -0.0085,-0.01007 -0.01292,-0.01499 -0.121664,-0.06215 -0.243279,-0.124399 -0.365352,-0.185518 -0.07182,-0.03589 -0.143683,-0.07205 -0.214974,-0.109037 z" />
    <path
       id="path13-1-7"
       style="display:inline;fill:#782144;stroke-width:0.219402"
       d="m 94.512577,82.364482 c -0.178159,0.0014 -0.370428,0.02058 -0.580326,0.0615 -0.381664,0.09041 -0.802561,0.231234 -1.296045,0.466121 -0.0113,0.01143 -0.02354,0.02198 -0.03514,0.03307 0.0065,0.03132 -0.0057,0.07313 -0.04651,0.114722 -0.04114,0.04193 -0.07516,0.09004 -0.114205,0.133842 -0.04117,0.04618 -0.06008,0.06385 -0.104386,0.108003 -0.126068,0.116954 -0.258967,0.226199 -0.385506,0.342615 -0.152824,0.143293 -0.301479,0.291364 -0.442867,0.445968 -0.02494,0.02684 -0.0481,0.05497 -0.07183,0.08268 0.02335,0.06342 0.0017,0.153991 -0.09302,0.241329 -0.07178,0.06618 -0.143309,0.132222 -0.216008,0.197404 -0.02525,0.0398 -0.0498,0.08008 -0.07648,0.118856 -0.05544,0.08303 -0.122396,0.156526 -0.190686,0.228926 -0.0724,0.07028 -0.148595,0.136905 -0.224275,0.203605 -0.06221,0.05719 -0.126726,0.111316 -0.186036,0.171566 -0.05609,0.05642 -0.109354,0.115166 -0.163814,0.173116 -0.05866,0.0677 -0.118683,0.134602 -0.175183,0.204122 -0.06935,0.08126 -0.13386,0.166128 -0.19637,0.252698 -0.06,0.07917 -0.122866,0.156467 -0.189136,0.230477 -0.06692,0.0692 -0.136422,0.135732 -0.202572,0.205672 -0.04553,0.0439 -0.08979,0.08902 -0.134358,0.133842 -0.01278,0.02432 -0.02614,0.04825 -0.03928,0.07235 -0.02389,0.04489 -0.05176,0.08724 -0.08113,0.128674 -0.02048,0.03057 -0.04248,0.06017 -0.06615,0.08837 -0.02623,0.03051 -0.0535,0.05972 -0.0801,0.08992 -0.03507,0.04303 -0.07455,0.0817 -0.113688,0.120923 -0.05947,0.06022 -0.122348,0.117373 -0.185518,0.173633 -0.08845,0.07733 -0.174776,0.156758 -0.259416,0.238228 -0.09159,0.08977 -0.183695,0.178581 -0.275435,0.268201 -0.102989,0.100747 -0.20528,0.202306 -0.307475,0.303857 -0.04225,0.04284 -0.08673,0.08344 -0.130225,0.125057 -0.0011,0.0013 -0.002,0.0028 -0.0031,0.0041 -0.09224,0.111044 -0.18461,0.221978 -0.27957,0.330729 -0.08377,0.09722 -0.167914,0.194542 -0.253214,0.290422 -0.08155,0.093 -0.164543,0.184163 -0.243913,0.279053 -0.06821,0.08313 -0.133854,0.168348 -0.194304,0.257348 -0.06039,0.08588 -0.121434,0.171332 -0.184484,0.255282 -0.05932,0.07707 -0.119732,0.153339 -0.183452,0.226859 -0.0636,0.07546 -0.126009,0.151387 -0.187069,0.228927 -0.05626,0.06941 -0.111621,0.139746 -0.168981,0.208256 -0.05454,0.06702 -0.106497,0.136275 -0.158647,0.205155 -0.04934,0.06373 -0.09917,0.127177 -0.146761,0.192237 -0.03162,0.04619 -0.06159,0.09304 -0.09353,0.139009 -0.03086,0.04539 -0.05735,0.09364 -0.08578,0.14056 -0.03633,0.06118 -0.07262,0.122682 -0.106971,0.185002 -0.05223,0.0905 -0.103689,0.181335 -0.155029,0.272335 -0.05823,0.100504 -0.118764,0.199373 -0.179834,0.298173 -0.02364,0.04043 -0.04729,0.08089 -0.0708,0.121439 -0.009,0.02737 -0.01853,0.05457 -0.02687,0.08217 0.0028,0.01357 0.0059,0.02687 0.0088,0.04031 7.1e-5,0.0055 0.001,0.0028 0.001,0.0072 0.427555,-0.57431 0.899005,-1.164124 1.399398,-1.76475 0.704993,-0.835797 1.376199,-1.551433 2.038635,-2.231388 0.77494,-0.760219 1.44115,-1.339491 1.999878,-1.759583 0.650419,-0.515119 1.102594,-0.756202 1.553394,-0.997355 0.223949,-0.07952 0.506757,-0.235653 0.745691,-0.334863 0.29658,-0.123163 0.53006,-0.162583 0.77773,-0.223243 0.363854,-0.04788 0.690096,-0.04794 0.961698,0.0186 0.02753,0.0067 0.297399,0.125696 0.326079,0.137976 0.245076,0.147961 0.303862,0.515923 0.435632,0.797884 0.118847,0.153453 0.211487,0.338413 0.302307,0.525033 0.0804,0.262338 0.16262,0.522275 0.24443,0.782898 l 0.268717,0.807186 0.411861,-2.323373 c 0.100628,0.321161 0.242726,0.759289 0.312126,0.980302 0.0085,0.02775 -0.0065,-0.04591 -0.01654,-0.09457 0.02578,0.08074 0.111621,0.347103 0.08268,0.261483 -0.03271,-0.09723 -0.05953,-0.201241 -0.0894,-0.30179 6.1e-5,-0.0098 -0.001,-0.0035 -0.001,-0.01034 -0.01207,-0.03918 -0.01614,-0.05065 -0.02842,-0.08992 0.0012,0.0044 0.0289,0.08907 0.0279,0.08527 -0.02006,-0.173239 0.0047,0.0019 -0.05736,-0.253214 C 96.665138,85.213927 96.486887,84.539259 96.220485,83.968456 96.084349,83.705008 95.946694,83.443582 95.802423,83.189692 95.683905,82.89695 95.580592,82.58526 95.298061,82.48741 95.06667,82.40905 94.809512,82.362142 94.512579,82.36442 Z m -2.592606,0.912605 c -0.0139,0.0084 -0.02885,0.01829 -0.04289,0.02687 6.76e-4,0.0043 0.0012,0.0085 0.0016,0.01292 0.01416,-0.01288 0.02681,-0.02728 0.04134,-0.03979 z m 3.737756,2.789494 c -0.01165,0.02399 0.523125,1.754552 0.426331,1.33687 -0.02072,-0.08935 -0.04961,-0.168985 -0.07338,-0.254765 0.03816,0.12063 0.172878,0.535879 0.128158,0.403593 -0.05342,-0.157973 -0.102052,-0.321493 -0.151412,-0.484209 -0.02193,-0.07613 -0.04261,-0.154059 -0.06615,-0.228409 l -0.198438,-0.597897 c 0.0233,0.073 0.03411,0.109806 0.06925,0.219108 -0.03716,-0.114566 -0.07132,-0.232868 -0.112138,-0.343131 -0.0142,-0.03832 -0.02102,-0.05364 -0.02222,-0.05116 z m -6.47299,0.03462 c -0.0288,0.03531 -0.05783,0.07043 -0.0863,0.105937 0.03502,-0.03265 0.06995,-0.06547 0.104904,-0.09818 -0.0064,-0.0024 -0.01283,-0.0045 -0.0186,-0.0078 z m -0.885217,0.217558 c -0.01952,0.02024 -0.03937,0.04117 -0.05891,0.06149 0.02167,-0.01238 0.04407,-0.02392 0.0677,-0.03359 -0.0038,-0.0089 -0.0066,-0.01842 -0.0088,-0.0279 z m 0.698665,0.343648 c -0.01088,0.01117 -0.02157,0.02252 -0.03256,0.03359 0.0036,-0.0016 0.0072,-0.0034 0.01085,-0.0052 0.0032,-0.0039 0.0062,-0.0079 0.0093,-0.01189 5.26e-4,-6.71e-4 4e-4,-0.0014 0.0016,-0.0021 0.0037,-0.0047 0.0073,-0.0097 0.01085,-0.01447 z m -0.09767,0.114205 c -0.0025,0.0016 -0.0052,0.003 -0.0078,0.0047 l -5.16e-4,5.17e-4 c -0.0015,0.0019 -0.0031,0.0038 -0.0047,0.0057 8.51e-4,-5e-5 0.0017,2.7e-5 0.0026,0 0.0035,-0.0036 0.0069,-0.0072 0.01034,-0.01085 z M 88.5579,87.132146 c -0.0015,4.75e-4 -0.0027,5.1e-4 -0.0041,5.17e-4 6.65e-4,5.47e-4 0.0014,0.0011 0.0021,0.0015 6.71e-4,-7.03e-4 0.0013,-0.0014 0.0021,-0.0021 z m -0.868164,0.07958 c -0.0013,0.0014 -0.0027,0.0027 -0.0041,0.0041 0.0039,0.0047 0.0079,0.0092 0.01137,0.01395 0.0034,0.0047 4.45e-4,0.0093 -0.0041,0.01395 0.0025,-7.4e-4 0.0047,-0.0015 0.0072,-0.0021 0.0084,-0.0067 0.01694,-0.01335 0.02532,-0.02015 l -5.17e-4,-5.16e-4 c -0.0086,-8.46e-4 -0.01725,-0.002 -0.02584,-0.0026 -0.0029,-0.0025 -0.0062,-0.0044 -0.0093,-0.0067 z m 0.455269,0.183451 c -0.0015,0.0014 -0.0031,0.0027 -0.0047,0.0041 0.0021,-3.78e-4 0.0041,-0.001 0.0062,-0.001 -5.1e-4,-0.0011 -1.18e-4,-0.0021 -0.0016,-0.0031 z m -0.06253,0.06666 c -0.0034,0.0042 -0.0064,0.0087 -0.0098,0.01292 0.003,-4.52e-4 0.0056,-0.0011 0.0083,-0.0015 -4.7e-4,-0.0039 -6.75e-4,-0.0076 0.0016,-0.01137 z m -0.07183,0.0956 c -2.4e-4,2.67e-4 -10e-4,2.48e-4 -10e-4,5.17e-4 3.18e-4,-1.06e-4 10e-4,1.05e-4 10e-4,0 z m -0.923458,0.144178 c -0.0033,0.0026 -0.0065,0.0052 -0.0098,0.0078 -0.0048,0.0036 -0.0093,0.0088 -0.01395,0.01344 0.0048,-0.0017 0.0096,-0.0036 0.01447,-0.0052 0.0054,-0.0042 0.0106,-0.0087 0.01602,-0.01292 -0.0022,-0.0012 -0.0046,-0.0019 -0.0067,-0.0031 z m 0.798401,0.03049 c -0.002,1.69e-4 -0.0041,3.88e-4 -0.0062,5.16e-4 h -5.16e-4 c 0.0011,0.004 -1.65e-4,0.0084 -0.001,0.0124 0.0048,-0.0021 0.0085,-0.0038 0.01085,-0.0057 v -5.16e-4 c -0.0017,-0.002 -0.0029,-0.0041 -0.0031,-0.0067 z m -0.914156,0.01654 c -0.0096,0.01076 -0.01931,0.02126 -0.02894,0.03204 0.01314,-0.0081 0.02608,-0.01611 0.03979,-0.02325 -0.004,-0.0022 -0.0073,-0.0057 -0.01085,-0.0088 z m 0.77618,0.01344 c -0.0039,0.0037 -0.008,0.0072 -0.01189,0.01085 8.22e-4,3.39e-4 0.0018,10e-4 0.0026,10e-4 0.003,-0.004 0.0063,-0.0079 0.0093,-0.01189 z m 0.100769,0.0078 c -0.004,0.004 -0.0084,0.0079 -0.01292,0.01137 -0.0048,0.0062 -0.0097,0.01236 -0.01447,0.0186 0.01047,-0.0092 0.02106,-0.01821 0.03152,-0.02739 -0.0013,-8.3e-4 -0.0029,-0.0014 -0.0041,-0.0026 z m -0.353467,0.267168 c -0.0018,0.0021 -0.0029,0.0036 -0.0047,0.0057 3.63e-4,-2.7e-5 0.001,-1e-6 0.001,0 5.11e-4,-1.34e-4 6.9e-5,-4.6e-4 0.0016,-5.17e-4 8.57e-4,-8.9e-5 0.0017,2e-5 0.0026,0 -4.29e-4,-0.0018 -5.76e-4,-0.0035 -5.17e-4,-0.0052 z m 0.286804,0.01292 c -0.0029,0.0026 -0.0059,0.0052 -0.0088,0.0078 -0.0085,0.0077 -0.01632,0.01607 -0.02481,0.02377 0.0011,9.95e-4 0.0019,0.0019 0.0031,0.0031 0.01033,-0.0114 0.02038,-0.02304 0.03049,-0.03462 z m -1.406632,0.377238 c -0.0035,0.0041 -0.0068,0.0083 -0.01034,0.0124 0.0038,-0.0031 0.0075,-0.006 0.01034,-0.0093 4.74e-4,-5.5e-4 0.0011,-0.0011 0.0015,-0.0015 -4.63e-4,-5.65e-4 -0.001,-0.0011 -0.0015,-0.0016 z m 0.642854,0.166915 c -5.61e-4,2.95e-4 -0.0011,10e-4 -0.0015,10e-4 -0.0031,0.0041 -0.0067,0.0078 -0.0098,0.01189 0.0038,-0.0043 0.0076,-0.0086 0.01137,-0.01292 z m 0.142627,0.0832 c -0.0022,0.0026 -0.0044,0.0052 -0.0067,0.0078 4.83e-4,5.25e-4 0.0011,-1.5e-4 0.0016,0.0016 0.0024,-0.0027 0.0048,-0.0055 0.0072,-0.0083 -6.66e-4,-1.24e-4 -0.0014,-0.001 -0.0021,-0.001 z m -1.02681,0.02945 c -0.0029,0.0034 -0.0058,0.0069 -0.0088,0.01034 0.01856,0.0094 0.03806,0.01888 0.05529,0.02739 -0.0018,-0.0036 -0.0038,-0.0073 -0.0052,-0.01033 h -5.17e-4 c -0.01349,-0.0082 -0.02656,-0.01718 -0.04031,-0.02481 -1.35e-4,-8.57e-4 -3.63e-4,-0.0017 -5.16e-4,-0.0026 z m 0.304891,0.154513 c 0.01105,0.005 0.02209,0.0099 0.03307,0.01499 0.0027,-0.0031 0.0055,-0.0062 0.0083,-0.0093 -0.01377,-0.0019 -0.02756,-0.0038 -0.04134,-0.0057 z m -0.717786,0.403593 c -7.64e-4,3.3e-5 -9.92e-4,0.001 -5.17e-4,0.001 0.0033,0.0049 0.0068,0.0097 0.01033,0.01447 -2.81e-4,-0.0035 1.5e-4,-0.0069 -5.16e-4,-0.01034 -4.5e-4,-0.0025 -0.007,-0.0053 -0.0093,-0.0052 z m -0.144177,0.113171 c -0.0016,0.0019 -0.0031,0.0038 -0.0047,0.0057 0.0019,4e-5 0.0038,-9e-5 0.0057,0 -2.83e-4,-0.0019 -0.001,-0.0038 -0.001,-0.0057 z m -0.814421,1.012858 c -0.0062,0.0079 -0.01246,0.01592 -0.0186,0.02377 0.0068,-0.0025 0.01399,-0.0045 0.02119,-0.0057 0.0018,-2.95e-4 0.0034,-2.73e-4 0.0052,-5.17e-4 -0.0029,-0.0058 -0.0051,-0.01208 -0.0078,-0.01757 z m -0.379822,0.690397 c -9e-4,9e-4 3.21e-4,4.08e-4 -0.0021,0.0026 l -5.17e-4,5.17e-4 c -0.0012,0.0036 3.21e-4,0.0053 -0.0021,0.0088 0.0029,-0.0041 0.0049,-0.0076 0.0072,-0.01189 -10e-4,1.49e-4 -0.0016,-6.2e-5 -0.0026,0 z m -0.06718,0.01137 c -0.0019,-1e-4 -0.0065,0.0025 -0.0093,0.0031 0.0019,4.52e-4 0.0031,0.002 0.0052,0.0021 0.0018,-0.0019 0.0027,-0.0036 0.0041,-0.0052 z m -0.201538,0.293522 0.0031,0.0036 c -2e-4,-10e-5 0.001,8.43e-4 0.001,-0.0016 -0.0011,-0.0013 -0.0027,-0.0016 -0.0041,-0.0021 z m 0.01395,0.02222 0.0067,0.01085 c -8.12e-4,-0.0033 -0.0013,-0.0062 -10e-4,-0.01085 -0.0011,-4.64e-4 -0.002,-0.0016 -0.0057,0 z" />
    <path
       id="path13-1-7-3"
       style="display:inline;fill:#782144;stroke-width:0.244692"
       d="m 68.551371,83.090019 c -0.601007,0.0034 -1.039907,0.156747 -1.393196,0.387573 -0.269118,0.178669 -0.306248,0.562953 -0.362769,0.929142 -0.09175,0.327195 -0.174565,0.662017 -0.255798,0.998389 -0.146582,0.72219 -0.178972,1.543783 -0.197404,2.377116 -0.0068,0.309597 -0.01992,0.101339 -0.0026,0.306441 -2e-4,0.0046 0.0091,-0.09954 0.0093,-0.104903 -0.0038,0.04829 -0.0052,0.06244 -0.0088,0.110587 3.53e-4,0.0082 -0.0012,0.0011 0.001,0.0124 -0.0082,0.123267 -0.0129,0.249399 -0.0248,0.369486 -0.01053,0.105757 0.01839,-0.222036 0.02687,-0.321427 4.69e-4,0.05865 0.0014,0.147257 0.0041,0.113171 0.02199,-0.271812 0.07059,-0.811714 0.10232,-1.206644 l 0.944645,2.593123 0.09612,-0.996322 c 0.02591,-0.320521 0.05241,-0.640553 0.07648,-0.962732 0.05175,-0.236975 0.10521,-0.472387 0.19327,-0.677478 0.07259,-0.356782 0.05096,-0.796253 0.270268,-1.024227 0.0268,-0.02086 0.27804,-0.220455 0.304891,-0.234611 0.264874,-0.139902 0.60149,-0.21608 0.98702,-0.244946 0.26871,0.01285 0.517504,0.0048 0.850594,0.07855 0.268344,0.05946 0.59486,0.174315 0.843359,0.214458 0.518376,0.174629 1.037787,0.349378 1.823145,0.794783 0.66963,0.356683 1.486108,0.872341 2.45463,1.572514 0.834655,0.633356 1.685927,1.306123 2.599325,2.109949 0.649969,0.579096 1.268052,1.152209 1.837097,1.717724 -2.04e-4,-0.0052 -0.001,-0.0025 -0.001,-0.0088 -8.5e-5,-0.03004 3.05e-4,-0.05977 0,-0.08992 -0.245431,-0.428919 -0.501236,-0.851886 -0.783414,-1.257804 -0.07654,-0.105592 -0.151134,-0.212496 -0.229444,-0.316777 -0.367527,-0.489396 -0.773304,-0.949042 -1.185974,-1.400431 -0.06778,-0.07205 -0.134758,-0.144477 -0.203088,-0.216007 -0.254954,-0.266862 -0.517969,-0.525962 -0.781348,-0.784449 -0.197944,-0.190808 -0.399631,-0.377863 -0.603581,-0.562239 -0.176901,-0.158948 -0.352977,-0.318791 -0.529166,-0.478524 -0.154566,-0.138642 -0.307586,-0.278955 -0.458887,-0.421163 -0.129313,-0.120957 -0.254732,-0.245967 -0.385506,-0.365352 -0.02784,-0.02473 -0.05586,-0.04922 -0.08372,-0.0739 -0.251245,-0.143624 -0.500641,-0.290574 -0.746724,-0.442867 -0.293695,-0.184714 -0.58084,-0.380043 -0.857829,-0.589111 -0.215357,-0.165475 -0.423055,-0.340757 -0.641822,-0.501778 -0.192321,-0.134671 -0.390619,-0.259253 -0.594279,-0.376205 -0.200887,-0.119592 -0.406078,-0.231868 -0.608748,-0.348299 -0.0558,-0.03206 -0.08594,-0.07041 -0.09612,-0.106453 -0.211728,-0.0883 -0.414046,-0.167285 -0.600997,-0.230477 -0.727389,-0.239791 -1.290244,-0.322071 -1.787488,-0.341581 z m -1.060917,5.568135 c -0.0076,0.09149 -0.01104,0.186395 -0.01654,0.27957 -0.01441,0.199716 -0.02791,0.400148 -0.04754,0.595312 -0.01645,0.163429 0.02904,-0.348702 0.04134,-0.497127 -0.0053,0.104759 -0.01677,0.203945 -0.01809,0.312126 -0.0068,0.558042 0.192707,-2.088803 0.128157,-1.580782 -0.01735,0.137042 -0.02613,0.281537 -0.03876,0.422713 0.01167,-0.134612 0.01457,-0.179882 0.02222,-0.269751 z m 7.4073,-2.405021 c 7.02e-4,6.75e-4 0.0014,0.0014 0.0021,0.0021 3.07e-4,-2.41e-4 10e-4,-2.81e-4 10e-4,-5.17e-4 -10e-4,-5.5e-4 -0.0021,-0.0011 -0.0031,-0.0015 z m 0.08113,0.04909 c 0,8.68e-4 0.0013,0.0036 0.0052,0.0098 -2.97e-4,-0.0026 -10e-4,-0.0045 -10e-4,-0.0083 -0.0024,-0.0013 -0.0041,-0.0024 -0.0041,-0.0015 z m 0.373104,0.28422 c 0.01121,0.01273 0.02324,0.02466 0.03462,0.03721 -0.0046,-0.0061 -0.0095,-0.01189 -0.01395,-0.01809 -0.0018,-0.0024 -0.0037,-0.0049 -0.0052,-0.0072 v -5.17e-4 c -0.0022,-0.0021 -0.0045,-0.0041 -0.0067,-0.0062 -0.0029,-0.0018 -0.0059,-0.0034 -0.0088,-0.0052 z m 0.717269,0.68523 c 0.02941,0.02967 0.05847,0.0597 0.08785,0.0894 0.0044,-0.0064 0.01157,-0.01131 0.02015,-0.01344 -9.35e-4,-0.0015 -0.0017,-0.0031 -0.0026,-0.0047 l -5.17e-4,-5.17e-4 c -0.01027,-0.0017 -0.02029,-0.0065 -0.03049,-0.0093 -0.01008,-0.0069 -0.02099,-0.01307 -0.03049,-0.02067 -0.01056,-0.0084 -0.02007,-0.01819 -0.02997,-0.02739 -0.0047,-0.0044 -0.0093,-0.009 -0.01395,-0.01344 z m 0.301273,0.05529 c 0.0031,0.0088 0.006,0.01763 0.0093,0.02635 0.0022,-0.0018 0.01246,-0.0044 0.0155,-0.0057 -0.0082,-0.007 -0.01672,-0.01356 -0.02481,-0.02067 z m 0.766362,0.716753 c -0.0013,10e-4 -0.0026,0.0021 -0.0041,0.0026 0.0075,0.008 0.01475,0.01625 0.02222,0.02429 -0.006,-0.009 -0.01206,-0.01789 -0.01809,-0.02687 z m 0.727087,0.81132 c 0.04938,0.0453 0.09815,0.09108 0.148828,0.134875 3.52e-4,1.54e-4 9.53e-4,3.65e-4 0.001,5.17e-4 3.78e-4,-0.0014 9.11e-4,-0.0028 0.001,-0.0041 -0.05003,-0.04404 -0.100236,-0.0881 -0.150895,-0.131258 z m -0.04444,0.222208 c 0.0065,0.0072 0.01267,0.01454 0.01912,0.0217 -0.0013,-0.0026 -0.0029,-0.0051 -0.0041,-0.0078 -0.005,-0.0046 -0.01002,-0.0093 -0.01499,-0.01395 z m 0.411862,0.29869 c -0.0031,5.84e-4 -0.0061,0.001 -0.0098,0.001 0.0021,0.0036 0.0041,0.0072 0.0062,0.01085 0.0015,-0.0012 0.0031,-0.002 0.0047,-0.0031 -3.61e-4,-0.0029 -7.74e-4,-0.0059 -0.001,-0.0088 z m 0.198437,0.121956 c -0.0023,0.0042 -0.0048,0.0083 -0.0072,0.0124 0.0047,-0.0012 0.0096,-0.0019 0.01447,-0.0026 -0.0026,-0.0038 -0.0044,-0.0056 -0.0072,-0.0098 z m 0.05323,0.148312 c -9e-4,0.0012 -0.0013,0.0028 -0.0021,0.0041 0.0033,6.08e-4 0.0066,8.35e-4 0.0098,0 0.0028,-7e-4 -0.0044,-0.0049 -0.0072,-0.0041 z m 0.418062,0.04134 c 0.0029,0.0043 0.0064,0.0081 0.0093,0.0124 -0.0013,-0.0028 -0.0027,-0.0055 -0.0041,-0.0083 -0.0018,-0.0013 -0.0033,-0.0028 -0.0052,-0.0041 z m 0.595829,0.38964 c 4.93e-4,0.001 0.0011,0.0021 0.0016,0.0031 5.56e-4,0.0012 0.001,0.0024 0.0015,0.0036 0.0013,-5.99e-4 0.0024,-0.0015 0.0036,-0.0021 0.0012,-5.42e-4 0.0028,-0.0015 0.0041,-0.0021 -0.0037,-4.77e-4 -0.0075,-0.0014 -0.01085,-0.0026 z m 0.403593,0.217558 c -3.5e-5,5.32e-4 3.1e-5,0.0016 0,0.0021 3.53e-4,-3.37e-4 10e-4,-0.001 10e-4,-0.001 -3.6e-4,-3.32e-4 -10e-4,-0.001 -10e-4,-0.001 z m -0.851111,0.102836 c -0.0022,8.73e-4 -0.0041,0.0025 -0.0062,0.0036 0.0019,0 0.0038,-1.86e-4 0.0057,0 1.91e-4,-0.0012 2.94e-4,-0.0025 5.16e-4,-0.0036 z m 0.699183,0.116789 c 2.33e-4,0.0028 2.48e-4,0.0065 5.16e-4,0.0078 3.79e-4,0.0018 0.0011,-0.0039 5.17e-4,-0.0057 -2.96e-4,-8.8e-4 -0.001,-0.0013 -0.001,-0.0021 z m -0.566374,0.281636 c 0.01035,0.01556 0.02019,0.03143 0.03049,0.04703 -1.17e-4,-0.0059 -1.22e-4,-0.01195 5.17e-4,-0.01757 -0.01015,-0.01011 -0.02045,-0.01982 -0.03101,-0.02946 z m 0.3514,0.04599 c 9.83e-4,0.0033 0.002,0.0066 0.0031,0.0098 0.0022,-0.002 0.0044,-0.0036 0.0067,-0.0052 -0.0034,-0.0014 -0.0065,-0.0032 -0.0098,-0.0047 z m 0.865063,0.04909 c 0.0018,0.0015 0.0033,0.0029 0.0057,0.0047 0.0019,-5.36e-4 0.0028,-0.0021 0.0047,-0.0031 -0.0029,-2e-6 -0.0084,-0.0021 -0.01034,-0.0016 z m -0.07441,0.0026 c 0.0033,0.0044 0.0064,0.0078 0.01033,0.01189 -0.002,-0.0037 -0.0021,-0.0053 -0.0041,-0.0093 h -0.001 c -0.0016,-0.0016 -0.0015,-0.0017 -0.0026,-0.0026 -9.96e-4,1.5e-4 -0.0016,-5.1e-5 -0.0026,0 z m -1.024227,0.08423 c 0.0011,0.0017 0.002,0.0035 0.0031,0.0052 -3.89e-4,-0.0012 -6.86e-4,-0.0024 -10e-4,-0.0036 -7.38e-4,-3.24e-4 -0.0013,-9.51e-4 -0.0021,-0.0016 z m 0.103353,0.0584 c 10e-7,3.46e-4 -10e-7,7.2e-4 0,0.001 0.0027,0.0068 0.0055,0.0134 0.0083,0.02015 h 5.17e-4 c -0.003,-0.007 -0.0058,-0.01417 -0.0088,-0.02119 z m 0.257349,0.02894 c -0.0066,0.0033 -0.01203,0.0046 -0.01654,0.0046 2.25e-4,8.48e-4 2.93e-4,0.0017 5.17e-4,0.0026 0.0062,-0.0013 0.01235,-4.25e-4 0.0186,0.001 -8.64e-4,-0.0027 -0.0017,-0.0055 -0.0026,-0.0083 z m -0.07545,0.11007 c -9.9e-4,4.78e-4 -0.0021,6.48e-4 -0.0031,0.001 0.0013,4.48e-4 0.0032,9.99e-4 0.0052,0.0015 -6.77e-4,-8.99e-4 -0.0014,-0.0017 -0.0021,-0.0026 z m 1.086239,0.0088 c -0.0013,8.31e-4 -0.0026,0.0015 -0.0036,0.0031 5.2e-4,6.44e-4 0.0018,0.0013 0.0016,0.0015 z m -0.0093,0.02894 c -0.0042,-10e-4 -0.0047,0.0011 -0.0057,0.0015 0.0014,0.0055 0.0016,0.0083 0.0015,0.0124 z m -1.0573,0.02894 c 1.27e-4,3.09e-4 -5.1e-5,7.53e-4 0,0.001 3.49e-4,2.1e-5 7.34e-4,-3.7e-5 0.001,0 -3.05e-4,-3.86e-4 -7.63e-4,-6.79e-4 -0.001,-0.001 z m 0.522449,0.171049 c 0.0011,0.01384 0.0018,0.02697 0.0026,0.04082 -0.0012,-0.01313 -0.0011,-0.02441 -0.001,-0.03669 -5.31e-4,-0.0014 -10e-4,-0.0028 -0.0015,-0.0041 z m 0.0026,0.04082 c 1.57e-4,0.0017 3.53e-4,0.0035 5.16e-4,0.0052 -3.9e-5,-0.0014 7e-5,-0.0027 0,-0.0041 z m 5.16e-4,0.0052 c 2.64e-4,0.0092 0.001,0.01777 0.001,0.02739 0.002,0.02062 0.0038,0.04102 0.0057,0.06149 0.0014,5.73e-4 0.0032,0.0014 0.0047,0.0021 -0.0042,-0.03065 -0.0085,-0.06137 -0.01137,-0.09095 z m 0.02739,0.256315 c 0.0011,0.0027 0.0021,0.0054 0.0031,0.0083 8.14e-4,1.1e-5 0.0017,1.29e-4 0.0026,0 -1.3e-4,-0.001 -3.87e-4,-0.0021 -5.16e-4,-0.0031 -3.79e-4,-5.04e-4 -7.73e-4,-0.0011 -0.001,-0.0016 -0.0012,-0.0015 -0.0027,-0.0024 -0.0041,-0.0036 z" />
    <path
       style="display:inline;fill:#782144;stroke:url(#linearGradient20);stroke-width:0.198038"
       id="path13-5-1"
       d="m 93.44164,92.452 c 0.24458,0.250622 0.42615,0.64041 0.58264,1.053152 0.17,0.469484 0.25464,0.994689 0.29647,1.544231 0.0216,0.656013 -0.0541,1.303079 -0.16945,1.921342 -0.12645,0.645877 -0.32047,1.228757 -0.53882,1.784707 -0.29951,0.752753 -0.63933,1.442958 -0.995574,2.108548 -0.458917,0.83272 -0.952568,1.59902 -1.462369,2.32779 -0.391326,0.55811 -0.822393,1.01114 -1.249368,1.47208 -0.412692,0.46856 -0.826792,0.93299 -1.24116,1.39671 -0.868658,0.95744 -1.755226,1.86151 -2.643392,2.75836 -0.365829,0.36941 -0.0093,0.0273 -0.356874,0.35536 -0.04934,0.0482 -0.196572,0.19497 -0.148009,0.14435 0.577762,-0.60226 2.308435,-2.41693 1.735671,-1.79934 -0.653443,0.70458 -1.32006,1.36865 -1.977721,2.06034 -0.590644,0.6212 2.36512,-2.47677 1.776655,-1.84887 -0.09053,0.0966 -4.902155,5.11083 -0.143854,0.15165 0,0 -2.052575,1.44239 -2.052575,1.44239 v 0 c 0.648674,-0.68142 1.29734,-1.36285 1.946014,-2.04428 -0.59812,0.62446 -2.391254,2.50172 -1.794385,1.87337 0.654458,-0.68899 1.314803,-1.35978 1.967144,-2.05524 0.581838,-0.62029 -2.346146,2.42262 -1.755596,1.82971 0.669497,-0.67216 1.327441,-1.3811 1.992468,-2.06752 0.04619,-0.0477 0.09416,-0.0899 0.141233,-0.13484 0.174538,-0.17294 0.163875,-0.1616 0.345313,-0.3448 0.06548,-0.0661 0.261102,-0.26677 0.196203,-0.1989 -2.969803,3.10557 -1.879116,1.96829 -1.233724,1.27986 0.414085,-0.46283 0.832057,-0.91499 1.238508,-1.39945 0.429257,-0.47321 0.873726,-0.90251 1.279044,-1.44351 0.04226,-0.0588 0.442525,-0.61488 0.477725,-0.66673 0.34739,-0.5117 0.68171,-1.05489 1.00406,-1.61696 0.190056,-0.35724 0.387486,-0.70979 0.562409,-1.09214 0.140934,-0.30805 0.267822,-0.63815 0.413958,-0.93899 0.209659,-0.532695 0.419796,-1.066858 0.547502,-1.684538 0.133136,-0.55083 0.210793,-1.13739 0.210045,-1.741383 -0.03211,-0.489187 -0.09298,-0.960656 -0.24423,-1.380216 -0.149943,-0.379348 -0.326889,-0.700712 -0.564468,-0.899808 z" />
    <path
       id="path15-1"
       style="display:inline;fill:#782144;stroke-width:0.264583"
       d="m 137.48928,78.238635 c -0.0602,0.01478 -0.12032,0.03033 -0.18035,0.04599 0.0499,-0.0048 0.0998,-0.01004 0.14986,-0.01395 0.0431,-0.0031 0.0861,-0.0061 0.12919,-0.0093 -0.0327,-0.0085 -0.0659,-0.01466 -0.0987,-0.02274 z m 1.95906,0.821656 c -0.64136,0.0313 -1.28196,0.08152 -1.92237,0.128157 -1.66496,0.130529 -3.32045,0.360336 -4.97179,0.605648 -0.82287,0.120813 -1.64271,0.27184 -2.44946,0.47439 -0.30119,0.152203 -0.59725,0.314508 -0.88418,0.494026 -0.14345,0.09488 -0.28973,0.185887 -0.43047,0.284737 -0.38178,0.268154 -0.74328,0.571041 -1.06143,0.91364 0.003,0.018 -2e-4,0.03987 -0.0129,0.06718 -0.0221,0.04676 -0.0504,0.09013 -0.0755,0.135392 -0.034,0.06156 -0.0675,0.12334 -0.10128,0.185002 0.11718,-0.03966 0.2078,-0.027 0.15244,0.12299 -0.0536,0.145255 -0.21842,0.23529 -0.25942,0.384989 -0.16075,0.22703 -0.32232,0.453456 -0.48369,0.680062 -0.0378,0.07239 -0.0765,0.14372 -0.10748,0.200505 -0.0742,0.135848 -0.14957,0.271571 -0.22893,0.404626 0.033,0.0227 0.0648,0.04574 0.0946,0.06925 0.0297,-0.01583 0.0734,-0.02777 0.13952,-0.03514 0.0457,-0.0051 0.0697,0.05973 0.10387,0.09043 0.0616,0.05525 0.12236,0.111601 0.18346,0.167432 0.11462,0.03376 0.23513,0.07981 0.32969,0.139526 0.0227,0.01436 0.0448,0.03003 0.0667,0.04599 0.28683,-0.623013 0.66221,-1.205473 1.08417,-1.745113 0.1878,-0.240181 0.38037,-0.477822 0.59273,-0.696598 0.21658,-0.223142 0.46105,-0.417443 0.69143,-0.626318 0.26335,-0.184139 0.51365,-0.387805 0.78962,-0.552421 0.94599,-0.564269 2.02146,-0.904137 3.10627,-1.071253 1.13414,-0.174715 1.57828,-0.130194 2.73213,-0.131258 1.10152,0.06605 2.20903,0.195531 3.28197,0.467672 0.11359,0.160655 0.22854,0.32031 0.31678,0.495577 0.39673,0.788038 0.49333,1.675964 0.37104,2.54248 -0.11766,0.833639 -0.27216,1.079528 -0.5855,1.869653 -0.18613,0.33024 -0.35559,0.67018 -0.5581,0.990638 -1.07891,1.707314 -2.50562,3.161502 -3.88142,4.624524 -0.45518,0.484034 -0.90663,0.971134 -1.36012,1.456758 -1.76643,1.857981 -3.48523,3.771986 -4.99298,5.849256 -0.85725,1.181046 -1.11915,1.64599 -1.88826,2.87476 -0.82773,1.45068 -1.61124,2.93192 -2.26136,4.47208 -0.73479,1.74073 -1.33539,3.53791 -1.9482,5.3237 -0.25149,0.7799 -0.49722,1.5623 -0.74207,2.34508 0.0135,0.14793 -0.0309,0.26985 -0.11111,0.35037 -0.39766,1.28752 -0.77363,2.58139 -1.06918,3.8964 -0.30396,1.35242 -0.31701,1.5833 -0.52814,2.94246 -0.2297,1.69064 -0.35538,3.39545 -0.30282,5.10201 0.1798,0.15899 0.36295,0.3139 0.55087,0.46354 0.36544,0.29506 0.73336,0.58788 1.1157,0.86093 0.1405,0.0987 0.25598,0.18142 0.39945,0.27492 0.24171,0.15746 0.49251,0.29975 0.74311,0.44235 0.15904,0.0909 0.31946,0.18076 0.47439,0.27905 -0.0236,-0.20318 -0.0486,-0.40621 -0.063,-0.6103 -0.12174,-1.72639 -0.0341,-3.46055 0.18086,-5.17591 0.19163,-1.34021 0.20788,-1.59709 0.48214,-2.93419 0.4597,-2.24113 1.11794,-4.43656 1.80971,-6.6151 0.51469,-1.51018 0.69235,-2.09723 1.28778,-3.57911 0.84404,-2.10059 1.82513,-4.14794 2.94762,-6.11384 0.73718,-1.20145 1.02279,-1.70901 1.83865,-2.868557 1.4678,-2.086128 3.1474,-4.01198 4.91546,-5.847188 0.14888,-0.149323 2.47408,-2.481048 2.69493,-2.704745 0.39393,-0.399 0.79829,-0.788271 1.17616,-1.20251 0.86702,-0.950489 1.6418,-1.992889 2.27066,-3.115572 0.36106,-0.829815 0.52607,-1.069333 0.68109,-1.952853 0.16006,-0.912275 0.10326,-1.871056 -0.25063,-2.733683 -0.10998,-0.268105 -0.27519,-0.509827 -0.41289,-0.764811 -0.19386,-0.217485 -0.33693,-0.494936 -0.58188,-0.652673 -0.99781,-0.642561 -2.03341,-1.224371 -3.07785,-1.789038 z m -15.35979,4.087605 5.2e-4,5.17e-4 5.1e-4,-5.17e-4 z m 5.2e-4,5.17e-4 h -0.001 v 5.17e-4 z m -0.001,5.17e-4 c -0.002,8.47e-4 -0.003,0.0018 -0.005,0.0026 0.002,-6.67e-4 0.004,-0.0014 0.006,-0.0021 -1.3e-4,-1.41e-4 -8.9e-4,-4.46e-4 -0.001,-5.17e-4 z m 2.50941,0.03979 c -0.0427,0.04567 -0.0856,0.09111 -0.12816,0.136942 0.006,-10e-4 0.0133,-0.0012 0.0202,0.001 0.0145,0.0047 0.0271,0.0128 0.0387,0.02222 0.002,-0.0043 0.003,-0.0086 0.005,-0.01292 0.0362,-0.08648 0.0502,-0.115165 0.0641,-0.147278 z m -2.37091,0.313676 c -6.6e-4,0.0013 -10e-4,0.0028 -0.002,0.0041 h 5.2e-4 c 3.2e-4,-0.0013 0.001,-0.0028 0.002,-0.0041 z m 1.44849,0.782381 c -0.006,0.01022 -0.0135,0.01973 -0.0196,0.02997 l 0.0537,0.03049 c 9.7e-4,-9.95e-4 0.002,-0.0016 0.003,-0.0026 -0.0137,-0.01927 -0.0257,-0.0385 -0.0367,-0.05788 z m 0.54001,0.103869 c 0.0157,0.01416 0.031,0.02933 0.046,0.04496 0.0121,-0.0076 0.0242,-0.01511 0.0356,-0.02325 -0.0289,-0.0038 -0.0564,-0.01011 -0.0816,-0.0217 z m 1.2144,0.429948 c 0.004,0.006 0.008,0.01238 0.0119,0.0186 0.002,-0.0053 0.004,-0.01069 0.007,-0.01602 -0.007,-0.0011 -0.009,-5.1e-5 -0.0186,-0.0026 z m -6.67711,41.849126 c 0.074,0.0578 0.14719,0.11665 0.22221,0.17312 l 0.0904,0.045 c -0.10448,-0.0724 -0.20866,-0.14497 -0.31264,-0.21808 z m 2.72593,1.42265 0.11576,0.0579 c -10e-4,-0.01 -0.002,-0.0196 -0.003,-0.0295 -0.038,-0.008 -0.0753,-0.0179 -0.11266,-0.0284 z" />
  </g>
  <g
     inkscape:label="Layer 1"
     inkscape:groupmode="layer"
     id="layer1"
     style="display:inline"
     transform="translate(-51.694328,-43.131095)">
    <path
       style="fill:#000000;stroke-width:0.264583"
       id="path1"
       d="m 125.16314,86.835238 c -0.74632,-1.010086 -1.51148,-2.049446 -2.47509,-2.868832 -1.28612,-1.093629 -4.65843,-2.768089 -5.09382,-3.013842 -2.30063,-0.817708 -4.74675,-1.115155 -7.1662,-1.340448 -1.86788,-0.113358 -3.41992,0.0983 -4.77416,1.538359 -0.29031,0.308705 -0.50833,0.678167 -0.76249,1.017249 -1.1467,2.086178 -1.78686,4.471402 -1.86437,6.85546 -0.016,0.490606 0.0229,0.981464 0.0344,1.472194 0.58756,3.255915 1.97493,6.35531 3.8566,9.071028 0.35608,0.513924 0.75045,1.000234 1.12567,1.500354 2.23543,2.86724 5.09988,5.12178 7.94832,7.34076 1.42052,1.05698 0.73616,0.55411 2.05169,1.51053 0,0 3.62741,1.43488 3.62741,1.43488 v 0 c -1.33989,-0.96023 -0.64256,-0.45677 -2.09101,-1.5117 -2.85277,-2.20402 -5.74239,-4.41975 -8.00689,-7.25657 -0.90081,-1.16506 -1.45449,-1.80894 -2.21234,-3.085461 -1.33052,-2.241124 -2.37172,-4.684027 -2.83935,-7.25402 -0.0179,-0.477369 -0.0639,-0.954508 -0.0538,-1.432108 0.0486,-2.310328 0.65403,-4.636751 1.77285,-6.653532 0.24172,-0.309256 0.44957,-0.648269 0.72516,-0.927767 1.2448,-1.262473 2.91976,-1.449051 4.59655,-1.296355 2.3987,0.237551 4.83842,0.538758 7.08339,1.462669 -0.80116,-0.485343 -1.59452,-0.983802 -2.40347,-1.456031 -0.28232,-0.164801 0.56509,0.332468 0.82294,0.533398 0.97822,0.762277 1.74655,1.791718 2.47145,2.782829 z" />
    <path
       style="fill:#000000;stroke-width:0.264583"
       id="path2"
       d="m 112.95779,107.65822 c -0.69063,-0.26304 -1.41969,-0.4201 -2.14472,-0.55624 -0.57255,-0.12624 -1.15528,-0.14057 -1.7385,-0.1442 -0.38951,0.0113 -0.78049,-0.0219 -1.16911,0.0161 -0.0452,0.004 -0.44626,0.0618 -0.49896,0.0693 -0.41761,0.0538 -0.78559,0.2426 -1.15215,0.43542 -0.37932,0.18344 -0.6719,0.48316 -0.91934,0.81738 -0.26424,0.35598 -0.41223,0.76206 -0.49597,1.19282 -0.0799,0.45788 -0.0167,0.78078 0.20184,1.18624 0.21704,0.2874 0.47359,0.57042 0.78936,0.7534 3.50381,2.0304 2.33316,1.55771 3.89228,2.1662 0.56113,0.17617 1.12973,0.32574 1.70865,0.42963 0.58233,0.0653 1.16485,0.11803 1.74171,0.2232 0.69106,0.12234 1.39034,0.17307 2.09006,0.21365 0.67527,0.0786 1.35575,0.0817 2.03275,0.13271 0.54277,0.0498 1.08603,0.11027 1.62654,0.18239 0.33209,0.0784 0.6754,0.0874 1.00866,0.1579 0.14931,0.0316 0.29617,0.0738 0.44487,0.10814 0.34916,0.0874 0.69931,0.15811 1.05735,0.19595 0.17905,0.0135 0.0915,0.008 0.26262,0.0163 0,0 -3.18552,-2.35109 -3.18552,-2.35109 v 0 c -0.15808,-0.0166 -0.0773,-0.007 -0.24243,-0.0288 -0.34225,-0.0545 -0.67808,-0.13967 -1.01783,-0.20743 -0.48619,-0.0994 -0.9799,-0.15675 -1.47014,-0.23226 -0.53755,-0.0581 -1.07528,-0.11841 -1.61544,-0.14636 -0.67462,-0.0341 -1.34883,-0.0719 -2.02227,-0.12523 -0.70138,-0.0483 -1.3979,-0.13258 -2.08938,-0.26144 -0.57695,-0.0848 -1.16055,-0.12191 -1.73328,-0.23445 -0.5613,-0.12594 -1.12307,-0.26668 -1.65444,-0.49072 -1.35868,-0.64643 -0.15741,-0.084 2.80466,1.65937 0.0816,0.0481 -0.17299,-0.0784 -0.25397,-0.12753 -0.2086,-0.12664 -0.39802,-0.29553 -0.56872,-0.46817 -0.26262,-0.27362 -0.37597,-0.52191 -0.32783,-0.90626 0.049,-0.37422 0.15263,-0.72751 0.39016,-1.02976 0.22852,-0.28265 0.50157,-0.51431 0.83651,-0.66329 0.3377,-0.16556 0.68165,-0.30432 1.06148,-0.3363 0.5378,-0.066 1.07844,-0.0635 1.61961,-0.0464 0.56075,0.0206 1.11998,0.067 1.67101,0.1786 0.73992,0.15543 1.47779,0.33936 2.16269,0.66828 z" />
    <path
       style="fill:#000000;stroke-width:0.264583"
       id="path12"
       d="m 72.96239,84.827608 c -2.200108,-1.224595 4.196456,2.460821 2.109171,1.221867 -0.14152,-0.084 -0.281982,-0.169809 -0.424564,-0.251994 -1.238845,-0.714084 -2.479786,-1.424527 -3.719679,-2.136791 -0.924602,-0.518231 -1.917779,-0.882692 -2.918492,-1.221425 -0.807272,-0.274513 -1.627714,-0.520674 -2.472102,-0.64838 -0.338135,-0.05248 -0.677214,-0.07878 -1.018577,-0.09828 -0.08861,-0.0051 -0.177213,-0.01987 -0.265846,-0.01516 -0.08351,0.0044 -0.164851,0.02829 -0.247274,0.04243 -0.465129,0.141187 -0.598265,0.38926 -0.686787,0.842094 -0.03623,0.413727 -0.0406,0.829863 -0.01349,1.244158 0.02283,0.40717 0.08804,0.806268 0.19214,1.200063 0.131924,0.474295 0.390686,0.895075 0.656384,1.304182 0.233809,0.377446 0.501475,0.729744 0.796485,1.060865 0.31708,0.383447 0.667571,0.737394 1.016447,1.091557 0.436187,0.449109 0.936485,0.825905 1.415556,1.226323 0.25709,0.211386 0.496257,0.447947 0.768829,0.639789 0.178636,0.14229 0.331845,0.303352 0.530981,0.419195 1.164387,0.666443 2.328775,1.332886 3.493162,1.999329 0,0 -3.092202,-2.478413 -3.092202,-2.478413 v 0 c 1.099143,0.633021 2.198286,1.266045 3.297428,1.899066 -0.09801,-0.05634 -0.199106,-0.10617 -0.299172,-0.158396 -0.03175,-0.01656 -0.06888,-0.0231 -0.09811,-0.04378 -0.06119,-0.04333 -0.0937,-0.119867 -0.157313,-0.160777 -0.194458,-0.176604 0.02013,0.0086 -0.208529,-0.156961 -0.21133,-0.153025 -0.410302,-0.326501 -0.610028,-0.49379 -0.473356,-0.401132 -0.980364,-0.760293 -1.426298,-1.192418 -0.34436,-0.345906 -0.689903,-0.691113 -1.016727,-1.053823 -0.04466,-0.05797 -0.08607,-0.118586 -0.13398,-0.173902 -0.326707,-0.377235 0.03,0.07718 -0.299418,-0.315728 -0.09648,-0.115077 -0.174493,-0.2355 -0.260522,-0.358113 -0.04113,-0.05862 -0.08282,-0.116827 -0.124238,-0.175242 -0.255741,-0.385333 -0.535093,-0.759232 -0.70466,-1.19344 -0.110116,-0.37067 -0.197744,-0.742047 -0.210539,-1.130543 -0.04734,-0.382508 -0.06014,-0.766974 -0.02569,-1.151721 0.03446,-0.30158 0.07509,-0.378198 0.396571,-0.413279 0.488328,-2.65e-4 0.971179,0.07293 1.453927,0.140065 0.803704,0.147257 1.589223,0.371039 2.359314,0.644202 0.995952,0.354867 1.974479,0.757502 2.892904,1.285992 -0.946566,-0.548815 -1.892822,-1.098167 -2.839697,-1.646447 -0.139282,-0.08065 0.279017,0.160565 0.416918,0.243557 0.1285,0.07734 0.25255,0.16202 0.382217,0.237384 1.383337,0.804008 2.769052,1.641486 4.186684,2.399321 z" />
    <path
       style="fill:#000000;stroke-width:0.245274"
       id="path12-8"
       d="m 91.29151,84.107669 c 1.621249,-1.428141 -3.092344,2.869846 -1.554236,1.42496 0.104289,-0.09796 0.20779,-0.198034 0.312858,-0.29388 0.912898,-0.832776 1.827341,-1.661304 2.741012,-2.491958 0.681334,-0.604367 1.413198,-1.029408 2.150621,-1.424443 0.594871,-0.320142 1.199451,-0.607218 1.821671,-0.756151 0.24916,-0.0612 0.49904,-0.09187 0.75059,-0.114616 0.0653,-0.0059 0.13052,-0.02317 0.19589,-0.01768 0.0616,0.0051 0.12144,0.033 0.18223,0.04948 0.34274,0.164654 0.44085,0.453961 0.50606,0.982063 0.0267,0.482495 0.0299,0.967799 0.01,1.450955 -0.0169,0.474849 -0.0649,0.940282 -0.14159,1.399533 -0.0972,0.553129 -0.28788,1.043849 -0.48367,1.520956 -0.1723,0.440182 -0.36954,0.851037 -0.58693,1.237196 -0.23366,0.447182 -0.49194,0.859959 -0.74901,1.27299 -0.32142,0.523758 -0.69009,0.963183 -1.04311,1.430156 -0.18946,0.246522 -0.365701,0.522403 -0.566558,0.746132 -0.131635,0.16594 -0.244531,0.353773 -0.391271,0.488871 -0.858032,0.777216 -1.716064,1.554432 -2.574093,2.331648 0,0 2.27863,-2.890362 2.27863,-2.890362 v 0 c -0.809957,0.738237 -1.61991,1.47648 -2.429861,2.21472 0.07223,-0.06571 0.146719,-0.123818 0.220458,-0.184726 0.0234,-0.01931 0.05076,-0.02695 0.0723,-0.05106 0.0451,-0.05053 0.06906,-0.139792 0.115917,-0.187502 0.143295,-0.205958 -0.01484,0.01 0.153662,-0.18305 0.155729,-0.178459 0.30235,-0.38077 0.449529,-0.575865 0.348813,-0.467806 0.722423,-0.886664 1.051031,-1.390616 0.253756,-0.403401 0.508386,-0.805986 0.749219,-1.228984 0.0329,-0.06761 0.06343,-0.138297 0.09873,-0.202807 0.240751,-0.439937 -0.02213,0.09001 0.220636,-0.368207 0.07111,-0.134204 0.128578,-0.274643 0.191982,-0.417636 0.03029,-0.06836 0.06099,-0.136246 0.09154,-0.20437 0.18846,-0.449382 0.39431,-0.885428 0.51926,-1.391809 0.0811,-0.43228 0.14572,-0.865384 0.15515,-1.318455 0.0349,-0.446086 0.0444,-0.894457 0.0189,-1.343155 -0.0254,-0.351707 -0.0554,-0.441059 -0.29222,-0.481972 -0.35986,-3.08e-4 -0.715665,0.08505 -1.071401,0.163347 -0.592243,0.171733 -1.171088,0.43271 -1.738564,0.751277 -0.733913,0.413852 -1.454983,0.883411 -2.131765,1.499744 0.697519,-0.640037 1.39481,-1.280699 2.092556,-1.920112 0.102642,-0.09405 -0.205604,0.187253 -0.307224,0.28404 -0.09469,0.0902 -0.186103,0.18895 -0.281655,0.276841 -1.019372,0.937647 -2.040498,1.914325 -3.085144,2.798124 z" />
    <path
       style="fill:#000000;stroke-width:0.264583"
       id="path13"
       d="m 69.447312,92.109944 c -0.438857,0.249314 -0.764638,0.637066 -1.045446,1.047652 -0.305049,0.467032 -0.456914,0.989494 -0.531976,1.536166 -0.03879,0.652587 0.09718,1.296273 0.30404,1.911307 0.226904,0.642509 0.57504,1.222338 0.966843,1.775384 0.537417,0.748823 1.147167,1.435414 1.786388,2.097527 0.823438,0.82838 1.709216,1.59066 2.62397,2.31563 0.70216,0.55519 1.475648,1.00586 2.241783,1.46439 0.740497,0.46611 1.483532,0.92812 2.227043,1.38941 1.558655,0.95244 3.149454,1.85179 4.743109,2.74396 0.656418,0.36748 0.01659,0.0272 0.640347,0.3535 0.08853,0.0479 0.352716,0.19395 0.265583,0.1436 -1.036698,-0.59912 -4.142097,-2.40431 -3.114365,-1.78994 1.17249,0.7009 2.368624,1.3615 3.548689,2.04957 1.059808,0.61796 -4.243802,-2.46383 -3.187911,-1.83921 0.162446,0.0961 8.796081,5.08414 0.258125,0.15086 0,0 3.682989,1.43486 3.682989,1.43486 v 0 c -1.163928,-0.67787 -2.32786,-1.35574 -3.491788,-2.03361 1.073237,0.6212 4.290695,2.48866 3.219712,1.86359 -1.174311,-0.68539 -2.359176,-1.35268 -3.529703,-2.04451 -1.044006,-0.61705 4.209761,2.40997 3.150126,1.82016 -1.201293,-0.66865 -2.381861,-1.37389 -3.575142,-2.05673 -0.08295,-0.0475 -0.168947,-0.0894 -0.253421,-0.13413 -0.313179,-0.17204 -0.294053,-0.16076 -0.619609,-0.343 -0.117462,-0.0658 -0.468503,-0.26538 -0.352044,-0.19786 5.32879,3.08935 3.371749,1.95801 2.2137,1.27317 -0.743,-0.46041 -1.492991,-0.91021 -2.222291,-1.39214 -0.770229,-0.47074 -1.567749,-0.89779 -2.295025,-1.43597 -0.07585,-0.0585 -0.79403,-0.61167 -0.857194,-0.66325 -0.623332,-0.50902 -1.223209,-1.04937 -1.801614,-1.6085 -0.341025,-0.35538 -0.695281,-0.70609 -1.009153,-1.08644 -0.252873,-0.30643 -0.480552,-0.63482 -0.742767,-0.934083 -0.376198,-0.529911 -0.753261,-1.061276 -0.982412,-1.675731 -0.238881,-0.547957 -0.378221,-1.131448 -0.37688,-1.732291 0.05756,-0.486632 0.166833,-0.955638 0.438221,-1.373007 0.269058,-0.377367 0.586553,-0.697053 1.012854,-0.895109 z" />
    <path
       style="fill:#000000;stroke-width:0.264583"
       id="path14"
       d="m 74.334786,103.78078 c -0.853618,-0.0349 -1.707042,-0.0842 -2.561508,-0.0858 -0.463302,-0.009 -0.939441,0.034 -1.366303,0.23035 -0.2114,0.0972 -0.325107,0.19356 -0.510493,0.32844 -0.447177,0.38755 -0.672602,0.81063 -0.80614,1.37827 -0.08432,0.51191 -0.01318,1.02402 0.203697,1.49528 0.04919,0.10688 0.109913,0.20807 0.164873,0.3121 0.194513,0.28733 0.447159,0.69077 0.750059,0.87516 0.98946,0.60235 2.695419,1.92965 4.206698,2.31724 0.205946,0.0528 0.416501,0.0857 0.624752,0.1285 1.159373,0.20355 2.334239,0.28642 3.509251,0.32305 0.583732,0.0128 1.167596,0.0155 1.751412,0.0221 0,0 -3.168772,-2.29926 -3.168772,-2.29926 v 0 c -0.561787,0.0139 -1.123857,0.0205 -1.685766,0.009 -1.143664,-0.0301 -2.292718,-0.0929 -3.411005,-0.35286 -0.207685,-0.0614 -0.419497,-0.11037 -0.623057,-0.18435 -0.172953,-0.0628 -0.66036,-0.32231 -0.504018,-0.22525 0.94919,0.58926 1.917708,1.14702 2.886141,1.70409 0.112228,0.0646 -0.216088,-0.14349 -0.316087,-0.22572 -0.09192,-0.0756 -0.178245,-0.15845 -0.258236,-0.24658 -0.07634,-0.0841 -0.139668,-0.17916 -0.209503,-0.26874 -0.332284,-0.49679 -0.53278,-0.91827 -0.466817,-1.53024 0.0911,-0.46985 0.255392,-0.83017 0.646631,-1.12912 0.179398,-0.11506 0.237122,-0.16627 0.440126,-0.2392 0.402503,-0.14459 0.837907,-0.14838 1.259613,-0.15572 0.869593,0.005 1.742591,0.0418 2.602994,0.17474 z" />
    <path
       style="display:inline;fill:#000000;stroke:url(#linearGradient19);stroke-width:0.198038"
       id="path13-5"
       d="m 94.779496,91.199689 c 0.24458,0.250622 0.42615,0.64041 0.58264,1.053152 0.17,0.469484 0.25464,0.994689 0.29647,1.544231 0.0216,0.656013 -0.0541,1.303079 -0.16945,1.921342 -0.12645,0.645882 -0.32047,1.228755 -0.53882,1.784705 -0.299507,0.752754 -0.639327,1.44295 -0.995571,2.108538 -0.458917,0.832723 -0.952568,1.599023 -1.462369,2.327793 -0.391326,0.55811 -0.822393,1.01114 -1.249368,1.47208 -0.412692,0.46856 -0.826792,0.93299 -1.24116,1.39671 -0.868658,0.95744 -1.755226,1.86151 -2.643392,2.75836 -0.365829,0.36941 -0.0093,0.0273 -0.356874,0.35536 -0.04934,0.0482 -0.196572,0.19497 -0.148009,0.14435 0.577762,-0.60226 2.308435,-2.41693 1.735671,-1.79934 -0.653443,0.70458 -1.32006,1.36865 -1.977721,2.06034 -0.590644,0.6212 2.36512,-2.47677 1.776655,-1.84887 -0.09053,0.0966 -4.902155,5.11083 -0.143854,0.15165 0,0 -2.052575,1.44239 -2.052575,1.44239 v 0 c 0.648674,-0.68142 1.29734,-1.36285 1.946014,-2.04428 -0.59812,0.62446 -2.391254,2.50172 -1.794385,1.87337 0.654458,-0.68899 1.314803,-1.35978 1.967144,-2.05524 0.581838,-0.62029 -2.346146,2.42262 -1.755596,1.82971 0.669497,-0.67216 1.327441,-1.3811 1.992468,-2.06752 0.04619,-0.0477 0.09416,-0.0899 0.141233,-0.13484 0.174538,-0.17294 0.163875,-0.1616 0.345313,-0.3448 0.06548,-0.0661 0.261102,-0.26677 0.196203,-0.1989 -2.969803,3.10557 -1.879116,1.96829 -1.233724,1.27986 0.414085,-0.46283 0.832057,-0.91499 1.238508,-1.39945 0.429257,-0.47321 0.873726,-0.90251 1.279044,-1.44351 0.04226,-0.0588 0.442525,-0.61488 0.477725,-0.66673 0.34739,-0.5117 0.68171,-1.05489 1.00406,-1.61696 0.190056,-0.35724 0.387486,-0.70979 0.562409,-1.092142 0.140934,-0.308042 0.267822,-0.638148 0.413958,-0.938986 0.209659,-0.532693 0.419796,-1.066848 0.547502,-1.684529 0.133136,-0.550833 0.210793,-1.137388 0.210045,-1.741385 -0.03211,-0.489187 -0.09298,-0.960656 -0.24423,-1.380216 -0.149943,-0.379348 -0.326889,-0.700712 -0.564468,-0.899808 z" />
    <path
       style="fill:#000000;stroke-width:0.296176"
       id="path17"
       d="m 137.15228,77.635474 c -0.20083,-0.985495 -0.38363,-1.993671 -0.72912,-2.927494 -0.10798,-0.291774 -0.24033,-0.569945 -0.36048,-0.854918 -0.77184,-1.05115 -0.96786,-1.425197 -1.97292,-2.290371 -0.53453,-0.460143 -1.10049,-0.866431 -1.67219,-1.255524 -2.86433,-1.949431 -6.01872,-3.191598 -9.07346,-4.584163 -3.50612,-1.310808 -7.1245,-2.153322 -10.76217,-2.637661 -0.70918,-0.09442 -1.42056,-0.157695 -2.13085,-0.236545 -3.23415,-0.264416 -6.48304,-0.292205 -9.71099,-0.02351 -0.55173,0.04592 -1.101836,0.112574 -1.652776,0.168869 -2.515332,0.32093 -5.014677,0.883101 -7.440669,1.72262 -0.427382,0.147886 -0.849682,0.315335 -1.274522,0.473002 -1.507,0.60788 -2.979119,1.337178 -4.407518,2.169271 -0.70524,0.410825 -1.150951,0.701419 -1.839417,1.137144 -0.946808,0.646885 -1.916536,1.302294 -2.709501,2.212166 -0.407782,0.467901 -0.491602,0.646489 -0.820546,1.175451 -0.311605,0.53199 -0.462661,1.144443 -0.613866,1.760947 0,0 3.678379,1.700459 3.678379,1.700459 v 0 c 0.127435,-0.567373 0.250769,-1.131517 0.529785,-1.623602 0.109928,-0.183015 0.210431,-0.374845 0.329783,-0.549042 0.805743,-1.17599 1.929694,-1.960182 3.006231,-2.723895 1.965592,-1.279768 3.986197,-2.449609 6.11847,-3.290583 1.055105,-0.399392 1.489073,-0.583712 2.57435,-0.911183 1.972202,-0.595087 3.985607,-1.004407 6.011047,-1.262082 0.53896,-0.05908 1.07707,-0.12842 1.61688,-0.177216 3.18094,-0.287535 6.38352,-0.272131 9.57186,0.0036 0.70652,0.0818 1.41415,0.148736 2.11955,0.245388 3.62617,0.496836 7.2308,1.354998 10.71677,2.705436 -0.34229,-0.193217 -1.38006,-0.7411 -1.0269,-0.579649 0.67192,0.307169 1.33247,0.652305 1.98464,1.017481 1.07205,0.600284 2.40658,1.438342 3.38467,2.277387 0.88754,0.761347 1.10365,1.133642 1.78762,2.043159 0.11361,0.264314 0.23945,0.521741 0.34099,0.792916 0.32307,0.862943 0.50984,1.833835 0.58095,2.769834 z" />
    <path
       id="path15"
       style="display:inline;fill:#000000;stroke-width:0.264583"
       d="m 135.97671,78.521305 c -1.15008,0.01405 -1.68943,-0.02046 -2.82515,0.156063 -1.49257,0.231995 -2.89528,0.784158 -4.07882,1.730644 -0.24106,0.220292 -0.49586,0.426785 -0.72347,0.660941 -0.21879,0.225073 -0.41557,0.47048 -0.6134,0.714169 -0.58898,0.725482 -1.09798,1.508429 -1.58956,2.301668 l 3.43596,1.942 c 0.29737,-0.858063 0.77487,-1.6461 1.33274,-2.359546 0.1878,-0.240181 0.38037,-0.477822 0.59273,-0.696598 0.21658,-0.223142 0.46105,-0.417443 0.69143,-0.626318 0.26335,-0.184139 0.51364,-0.387805 0.78961,-0.552421 0.94599,-0.564269 2.02146,-0.904137 3.10627,-1.071253 1.13414,-0.174715 1.57829,-0.130194 2.73214,-0.131258 1.10152,0.06605 2.20903,0.195531 3.28197,0.467672 0.11359,0.160655 0.22853,0.32031 0.31677,0.495577 0.39673,0.788038 0.49333,1.675964 0.37104,2.54248 -0.11766,0.833639 -0.27216,1.079529 -0.5855,1.869654 -0.18613,0.33024 -0.35559,0.670179 -0.5581,0.990637 -1.07891,1.707314 -2.50562,3.161502 -3.88142,4.624524 -0.45518,0.484034 -0.90663,0.971134 -1.36012,1.456758 -1.76643,1.857981 -3.48523,3.771986 -4.99298,5.849256 -0.85725,1.181046 -1.11915,1.645986 -1.88826,2.874756 -0.82773,1.45068 -1.61124,2.93192 -2.26136,4.47208 -0.73479,1.74073 -1.33539,3.53792 -1.9482,5.32371 -0.25149,0.7799 -0.49722,1.56229 -0.74207,2.34507 0.0135,0.14793 -0.0309,0.26985 -0.11111,0.35037 -0.39766,1.28752 -0.77363,2.58139 -1.06918,3.8964 -0.30396,1.35242 -0.317,1.5833 -0.52813,2.94246 -0.2333,1.7171 -0.36144,3.44879 -0.30231,5.18211 0.0118,0.34671 0.0421,0.69294 0.063,1.03922 l 3.26389,1.62935 c -0.0357,-0.34621 -0.083,-0.691 -0.10749,-1.03818 -0.12174,-1.72639 -0.0341,-3.46055 0.18087,-5.17591 0.19163,-1.34021 0.20788,-1.59709 0.48214,-2.93419 0.4597,-2.24113 1.11794,-4.43656 1.80971,-6.6151 0.51469,-1.51018 0.69234,-2.09723 1.28777,-3.57911 0.84404,-2.10059 1.82514,-4.14793 2.94763,-6.11383 0.73718,-1.20145 1.02279,-1.70901 1.83865,-2.86856 1.4678,-2.086128 3.1474,-4.011983 4.91546,-5.847191 0.14888,-0.149323 2.47407,-2.481047 2.69492,-2.704744 0.39393,-0.399 0.79829,-0.788272 1.17616,-1.202511 0.86702,-0.950489 1.6418,-1.992889 2.27066,-3.115572 0.36106,-0.829815 0.52608,-1.069332 0.6811,-1.952852 0.16006,-0.912275 0.10326,-1.871057 -0.25063,-2.733684 -0.10998,-0.268105 -0.2752,-0.509827 -0.4129,-0.764811 -0.19386,-0.217485 -0.33692,-0.494936 -0.58187,-0.652673 -1.27051,-0.818168 -2.59566,-1.550187 -3.93258,-2.254643 -0.29817,-0.157117 -0.63328,-0.234352 -0.9586,-0.322461 -1.2893,-0.349199 -2.62998,-0.480602 -3.95945,-0.544153 z" />
  </g>
</svg>
